<?xml version="1.0" encoding="UTF-8" standalone="no"?><svg xmlns="http://www.w3.org/2000/svg" xmlns:xlink="http://www.w3.org/1999/xlink" contentStyleType="text/css" height="1097px" preserveAspectRatio="none" style="width:491px;height:1097px;background:#FFFFFF;" version="1.1" viewBox="0 0 491 1097" width="491px" zoomAndPan="magnify"><defs/><g><!--MD5=[c751f9fc585ab4ee4b61b0f24fae101a]
class AddProductToCartAction--><g id="elem_AddProductToCartAction"><rect fill="#F1F1F1" height="48" id="AddProductToCartAction" rx="2.5" ry="2.5" style="stroke:#181818;stroke-width:0.5;" width="189" x="61.5" y="7"/><ellipse cx="76.5" cy="23" fill="#ADD1B2" rx="11" ry="11" style="stroke:#181818;stroke-width:1.0;"/><path d="M78.5,19.5 Q78.7031,19 78.9375,18.75 Q79.1719,18.5 79.4375,18.5 Q79.9063,18.5 80.2031,18.7813 Q80.5,19.0625 80.5,19.7188 L80.5,21.2813 Q80.5,21.9375 80.2188,22.2188 Q79.9375,22.5 79.5,22.5 Q79.1094,22.5 78.8594,22.3281 Q78.6094,22.1563 78.5,21.7031 Q78.4531,21.3906 78.2813,21.2188 Q77.9688,20.8906 77.4063,20.7031 Q76.8438,20.5 76.2813,20.5 Q75.5781,20.5 74.9844,20.7813 Q74.4063,21.0625 73.9531,21.6875 Q73.5,22.3125 73.5,23.1719 L73.5,24.0938 Q73.5,25.125 74.3438,25.8125 Q75.1875,26.5 76.6875,26.5 Q77.5781,26.5 78.2031,26.2969 Q78.5625,26.1875 78.9688,25.8281 Q79.2344,25.625 79.375,25.5625 Q79.5156,25.5 79.6875,25.5 Q80.0156,25.5 80.25,25.7656 Q80.5,26.0156 80.5,26.375 Q80.5,26.7188 80.1563,27.125 Q79.6563,27.7188 78.8594,28.0469 Q77.8125,28.5 76.5313,28.5 Q75.0313,28.5 73.8281,27.9063 Q72.8594,27.4375 72.1719,26.4219 Q71.5,25.4063 71.5,24.2031 L71.5,23.1094 Q71.5,21.8594 72.0938,20.7656 Q72.7031,19.6719 73.75,19.0938 Q74.8125,18.5 76,18.5 Q76.7188,18.5 77.3438,18.75 Q77.9688,19 78.5,19.5 Z " fill="#000000"/><text fill="#000000" font-family="sans-serif" font-size="14" lengthAdjust="spacing" textLength="157" x="90.5" y="28.7285">AddProductToCartAction</text><line style="stroke:#181818;stroke-width:0.5;" x1="62.5" x2="249.5" y1="39" y2="39"/><line style="stroke:#181818;stroke-width:0.5;" x1="62.5" x2="249.5" y1="47" y2="47"/></g><!--MD5=[97e1f3a0eaecc28568fa1997293cf788]
class ListProductsUI--><g id="elem_ListProductsUI"><rect codeLine="12" fill="#F1F1F1" height="83.2188" id="ListProductsUI" rx="2.5" ry="2.5" style="stroke:#181818;stroke-width:0.5;" width="122" x="7" y="150.5"/><ellipse cx="22" cy="166.5" fill="#ADD1B2" rx="11" ry="11" style="stroke:#181818;stroke-width:1.0;"/><path d="M24,163 Q24.2031,162.5 24.4375,162.25 Q24.6719,162 24.9375,162 Q25.4063,162 25.7031,162.2813 Q26,162.5625 26,163.2188 L26,164.7813 Q26,165.4375 25.7188,165.7188 Q25.4375,166 25,166 Q24.6094,166 24.3594,165.8281 Q24.1094,165.6563 24,165.2031 Q23.9531,164.8906 23.7813,164.7188 Q23.4688,164.3906 22.9063,164.2031 Q22.3438,164 21.7813,164 Q21.0781,164 20.4844,164.2813 Q19.9063,164.5625 19.4531,165.1875 Q19,165.8125 19,166.6719 L19,167.5938 Q19,168.625 19.8438,169.3125 Q20.6875,170 22.1875,170 Q23.0781,170 23.7031,169.7969 Q24.0625,169.6875 24.4688,169.3281 Q24.7344,169.125 24.875,169.0625 Q25.0156,169 25.1875,169 Q25.5156,169 25.75,169.2656 Q26,169.5156 26,169.875 Q26,170.2188 25.6563,170.625 Q25.1563,171.2188 24.3594,171.5469 Q23.3125,172 22.0313,172 Q20.5313,172 19.3281,171.4063 Q18.3594,170.9375 17.6719,169.9219 Q17,168.9063 17,167.7031 L17,166.6094 Q17,165.3594 17.5938,164.2656 Q18.2031,163.1719 19.25,162.5938 Q20.3125,162 21.5,162 Q22.2188,162 22.8438,162.25 Q23.4688,162.5 24,163 Z " fill="#000000"/><text fill="#000000" font-family="sans-serif" font-size="14" lengthAdjust="spacing" textLength="90" x="36" y="172.2285">ListProductsUI</text><line style="stroke:#181818;stroke-width:0.5;" x1="8" x2="128" y1="182.5" y2="182.5"/><line style="stroke:#181818;stroke-width:0.5;" x1="8" x2="128" y1="190.5" y2="190.5"/><text fill="#000000" font-family="sans-serif" font-size="14" lengthAdjust="spacing" textLength="68" x="13" y="209.0332">+doShow()</text><text fill="#000000" font-family="sans-serif" font-size="14" lengthAdjust="spacing" textLength="77" x="13" y="226.6426">+headLine()</text></g><!--MD5=[0ca160925bfb1722b089a991b0c3eca4]
class AddProductToCartUI--><g id="elem_AddProductToCartUI"><rect codeLine="17" fill="#F1F1F1" height="153.6563" id="AddProductToCartUI" rx="2.5" ry="2.5" style="stroke:#181818;stroke-width:0.5;" width="162" x="164" y="115"/><ellipse cx="179" cy="131" fill="#ADD1B2" rx="11" ry="11" style="stroke:#181818;stroke-width:1.0;"/><path d="M181,127.5 Q181.2031,127 181.4375,126.75 Q181.6719,126.5 181.9375,126.5 Q182.4063,126.5 182.7031,126.7813 Q183,127.0625 183,127.7188 L183,129.2813 Q183,129.9375 182.7188,130.2188 Q182.4375,130.5 182,130.5 Q181.6094,130.5 181.3594,130.3281 Q181.1094,130.1563 181,129.7031 Q180.9531,129.3906 180.7813,129.2188 Q180.4688,128.8906 179.9063,128.7031 Q179.3438,128.5 178.7813,128.5 Q178.0781,128.5 177.4844,128.7813 Q176.9063,129.0625 176.4531,129.6875 Q176,130.3125 176,131.1719 L176,132.0938 Q176,133.125 176.8438,133.8125 Q177.6875,134.5 179.1875,134.5 Q180.0781,134.5 180.7031,134.2969 Q181.0625,134.1875 181.4688,133.8281 Q181.7344,133.625 181.875,133.5625 Q182.0156,133.5 182.1875,133.5 Q182.5156,133.5 182.75,133.7656 Q183,134.0156 183,134.375 Q183,134.7188 182.6563,135.125 Q182.1563,135.7188 181.3594,136.0469 Q180.3125,136.5 179.0313,136.5 Q177.5313,136.5 176.3281,135.9063 Q175.3594,135.4375 174.6719,134.4219 Q174,133.4063 174,132.2031 L174,131.1094 Q174,129.8594 174.5938,128.7656 Q175.2031,127.6719 176.25,127.0938 Q177.3125,126.5 178.5,126.5 Q179.2188,126.5 179.8438,126.75 Q180.4688,127 181,127.5 Z " fill="#000000"/><text fill="#000000" font-family="sans-serif" font-size="14" lengthAdjust="spacing" textLength="130" x="193" y="136.7285">AddProductToCartUI</text><line style="stroke:#181818;stroke-width:0.5;" x1="165" x2="325" y1="147" y2="147"/><line style="stroke:#181818;stroke-width:0.5;" x1="165" x2="325" y1="155" y2="155"/><text fill="#000000" font-family="sans-serif" font-size="14" lengthAdjust="spacing" textLength="68" x="170" y="173.5332">+doShow()</text><text fill="#000000" font-family="sans-serif" font-size="14" lengthAdjust="spacing" textLength="91" x="170" y="191.1426">+repeatLoop()</text><text fill="#000000" font-family="sans-serif" font-size="14" lengthAdjust="spacing" textLength="113" x="170" y="208.752">+chooseProduct()</text><text fill="#000000" font-family="sans-serif" font-size="14" lengthAdjust="spacing" textLength="117" x="170" y="226.3613">+chooseQuantity()</text><text fill="#000000" font-family="sans-serif" font-size="14" lengthAdjust="spacing" textLength="125" x="170" y="243.9707">+chooseCustomer()</text><text fill="#000000" font-family="sans-serif" font-size="14" lengthAdjust="spacing" textLength="77" x="170" y="261.5801">+headLine()</text></g><!--MD5=[72081ea310711c6bb244066e3d800ccb]
class OrderServerController--><g id="elem_OrderServerController"><rect codeLine="26" fill="#F1F1F1" height="136.0469" id="OrderServerController" rx="2.5" ry="2.5" style="stroke:#181818;stroke-width:0.5;" width="256" x="117" y="329"/><ellipse cx="170.25" cy="345" fill="#ADD1B2" rx="11" ry="11" style="stroke:#181818;stroke-width:1.0;"/><path d="M172.25,341.5 Q172.4531,341 172.6875,340.75 Q172.9219,340.5 173.1875,340.5 Q173.6563,340.5 173.9531,340.7813 Q174.25,341.0625 174.25,341.7188 L174.25,343.2813 Q174.25,343.9375 173.9688,344.2188 Q173.6875,344.5 173.25,344.5 Q172.8594,344.5 172.6094,344.3281 Q172.3594,344.1563 172.25,343.7031 Q172.2031,343.3906 172.0313,343.2188 Q171.7188,342.8906 171.1563,342.7031 Q170.5938,342.5 170.0313,342.5 Q169.3281,342.5 168.7344,342.7813 Q168.1563,343.0625 167.7031,343.6875 Q167.25,344.3125 167.25,345.1719 L167.25,346.0938 Q167.25,347.125 168.0938,347.8125 Q168.9375,348.5 170.4375,348.5 Q171.3281,348.5 171.9531,348.2969 Q172.3125,348.1875 172.7188,347.8281 Q172.9844,347.625 173.125,347.5625 Q173.2656,347.5 173.4375,347.5 Q173.7656,347.5 174,347.7656 Q174.25,348.0156 174.25,348.375 Q174.25,348.7188 173.9063,349.125 Q173.4063,349.7188 172.6094,350.0469 Q171.5625,350.5 170.2813,350.5 Q168.7813,350.5 167.5781,349.9063 Q166.6094,349.4375 165.9219,348.4219 Q165.25,347.4063 165.25,346.2031 L165.25,345.1094 Q165.25,343.8594 165.8438,342.7656 Q166.4531,341.6719 167.5,341.0938 Q168.5625,340.5 169.75,340.5 Q170.4688,340.5 171.0938,340.75 Q171.7188,341 172.25,341.5 Z " fill="#000000"/><text fill="#000000" font-family="sans-serif" font-size="14" lengthAdjust="spacing" textLength="141" x="190.75" y="350.7285">OrderServerController</text><line style="stroke:#181818;stroke-width:0.5;" x1="118" x2="372" y1="361" y2="361"/><line style="stroke:#181818;stroke-width:0.5;" x1="118" x2="372" y1="369" y2="369"/><text fill="#000000" font-family="sans-serif" font-size="14" lengthAdjust="spacing" textLength="146" x="123" y="387.5332">+establishConnection()</text><text fill="#000000" font-family="sans-serif" font-size="14" lengthAdjust="spacing" textLength="205" x="123" y="405.1426">+validateCustomer(int customer)</text><text fill="#000000" font-family="sans-serif" font-size="14" lengthAdjust="spacing" textLength="244" x="123" y="422.752">+addProduct(String name, int quantity)</text><text fill="#000000" font-family="sans-serif" font-size="14" lengthAdjust="spacing" textLength="75" x="123" y="440.3613">+saveCart()</text><text fill="#000000" font-family="sans-serif" font-size="14" lengthAdjust="spacing" textLength="86" x="123" y="457.9707">+disconnect()</text></g><!--MD5=[d5eb33f051719b77800f35caf8765518]
class OrderServer--><g id="elem_OrderServer"><rect codeLine="34" fill="#F1F1F1" height="118.4375" id="OrderServer" rx="2.5" ry="2.5" style="stroke:#181818;stroke-width:0.5;" width="271" x="109.5" y="525"/><ellipse cx="201.25" cy="541" fill="#ADD1B2" rx="11" ry="11" style="stroke:#181818;stroke-width:1.0;"/><path d="M203.25,537.5 Q203.4531,537 203.6875,536.75 Q203.9219,536.5 204.1875,536.5 Q204.6563,536.5 204.9531,536.7813 Q205.25,537.0625 205.25,537.7188 L205.25,539.2813 Q205.25,539.9375 204.9688,540.2188 Q204.6875,540.5 204.25,540.5 Q203.8594,540.5 203.6094,540.3281 Q203.3594,540.1563 203.25,539.7031 Q203.2031,539.3906 203.0313,539.2188 Q202.7188,538.8906 202.1563,538.7031 Q201.5938,538.5 201.0313,538.5 Q200.3281,538.5 199.7344,538.7813 Q199.1563,539.0625 198.7031,539.6875 Q198.25,540.3125 198.25,541.1719 L198.25,542.0938 Q198.25,543.125 199.0938,543.8125 Q199.9375,544.5 201.4375,544.5 Q202.3281,544.5 202.9531,544.2969 Q203.3125,544.1875 203.7188,543.8281 Q203.9844,543.625 204.125,543.5625 Q204.2656,543.5 204.4375,543.5 Q204.7656,543.5 205,543.7656 Q205.25,544.0156 205.25,544.375 Q205.25,544.7188 204.9063,545.125 Q204.4063,545.7188 203.6094,546.0469 Q202.5625,546.5 201.2813,546.5 Q199.7813,546.5 198.5781,545.9063 Q197.6094,545.4375 196.9219,544.4219 Q196.25,543.4063 196.25,542.2031 L196.25,541.1094 Q196.25,539.8594 196.8438,538.7656 Q197.4531,537.6719 198.5,537.0938 Q199.5625,536.5 200.75,536.5 Q201.4688,536.5 202.0938,536.75 Q202.7188,537 203.25,537.5 Z " fill="#000000"/><text fill="#000000" font-family="sans-serif" font-size="14" lengthAdjust="spacing" textLength="79" x="221.75" y="546.7285">OrderServer</text><line style="stroke:#181818;stroke-width:0.5;" x1="110.5" x2="379.5" y1="557" y2="557"/><line style="stroke:#181818;stroke-width:0.5;" x1="110.5" x2="379.5" y1="565" y2="565"/><text fill="#000000" font-family="sans-serif" font-size="14" lengthAdjust="spacing" textLength="191" x="115.5" y="583.5332">+ClientHandler(Socket socket)</text><text fill="#000000" font-family="sans-serif" font-size="14" lengthAdjust="spacing" textLength="163" x="115.5" y="601.1426">+readMessage(byte[] buf)</text><text fill="#000000" font-family="sans-serif" font-size="14" lengthAdjust="spacing" textLength="259" x="115.5" y="618.752">+chooseAction(int code, String message)</text><text fill="#000000" font-family="sans-serif" font-size="14" lengthAdjust="spacing" textLength="190" x="115.5" y="636.3613">+writeMessage(String answer)</text></g><!--MD5=[1da039315e6b99ba5d28be99971cd735]
class AddProductToCartController--><g id="elem_AddProductToCartController"><rect codeLine="40" fill="#F1F1F1" height="136.0469" id="AddProductToCartController" rx="2.5" ry="2.5" style="stroke:#181818;stroke-width:0.5;" width="256" x="117" y="703"/><ellipse cx="151.8" cy="719" fill="#ADD1B2" rx="11" ry="11" style="stroke:#181818;stroke-width:1.0;"/><path d="M153.8,715.5 Q154.0031,715 154.2375,714.75 Q154.4719,714.5 154.7375,714.5 Q155.2063,714.5 155.5031,714.7813 Q155.8,715.0625 155.8,715.7188 L155.8,717.2813 Q155.8,717.9375 155.5188,718.2188 Q155.2375,718.5 154.8,718.5 Q154.4094,718.5 154.1594,718.3281 Q153.9094,718.1563 153.8,717.7031 Q153.7531,717.3906 153.5813,717.2188 Q153.2688,716.8906 152.7063,716.7031 Q152.1438,716.5 151.5813,716.5 Q150.8781,716.5 150.2844,716.7813 Q149.7063,717.0625 149.2531,717.6875 Q148.8,718.3125 148.8,719.1719 L148.8,720.0938 Q148.8,721.125 149.6438,721.8125 Q150.4875,722.5 151.9875,722.5 Q152.8781,722.5 153.5031,722.2969 Q153.8625,722.1875 154.2688,721.8281 Q154.5344,721.625 154.675,721.5625 Q154.8156,721.5 154.9875,721.5 Q155.3156,721.5 155.55,721.7656 Q155.8,722.0156 155.8,722.375 Q155.8,722.7188 155.4563,723.125 Q154.9563,723.7188 154.1594,724.0469 Q153.1125,724.5 151.8313,724.5 Q150.3313,724.5 149.1281,723.9063 Q148.1594,723.4375 147.4719,722.4219 Q146.8,721.4063 146.8,720.2031 L146.8,719.1094 Q146.8,717.8594 147.3938,716.7656 Q148.0031,715.6719 149.05,715.0938 Q150.1125,714.5 151.3,714.5 Q152.0188,714.5 152.6438,714.75 Q153.2688,715 153.8,715.5 Z " fill="#000000"/><text fill="#000000" font-family="sans-serif" font-size="14" lengthAdjust="spacing" textLength="180" x="170.2" y="724.7285">AddProductToCartController</text><line style="stroke:#181818;stroke-width:0.5;" x1="118" x2="372" y1="735" y2="735"/><text fill="#000000" font-family="sans-serif" font-size="14" lengthAdjust="spacing" textLength="123" x="123" y="753.5332">-ListProductService</text><line style="stroke:#181818;stroke-width:0.5;" x1="118" x2="372" y1="760.6094" y2="760.6094"/><text fill="#000000" font-family="sans-serif" font-size="14" lengthAdjust="spacing" textLength="243" x="123" y="779.1426">+validateNameOfProduct(String name)</text><text fill="#000000" font-family="sans-serif" font-size="14" lengthAdjust="spacing" textLength="244" x="123" y="796.752">+addProduct(String name, int quantity)</text><text fill="#000000" font-family="sans-serif" font-size="14" lengthAdjust="spacing" textLength="166" x="123" y="814.3613">+validateCustomer(int vat)</text><text fill="#000000" font-family="sans-serif" font-size="14" lengthAdjust="spacing" textLength="75" x="123" y="831.9707">+saveCart()</text></g><!--MD5=[e69d6994dde37a3d0167e5476c791457]
class CustomerRepository--><g id="elem_CustomerRepository"><rect codeLine="48" fill="#F1F1F1" height="65.6094" id="CustomerRepository" rx="2.5" ry="2.5" style="stroke:#181818;stroke-width:0.5;" width="218" x="136" y="899"/><ellipse cx="176.65" cy="915" fill="#B4A7E5" rx="11" ry="11" style="stroke:#181818;stroke-width:1.0;"/><path d="M177.65,912 L177.65,918 L179.65,918 L180.1344,918 L180.65,918.625 L180.65,919 L180.65,919.375 L180.1344,920 L179.65,920 L173.65,920 L173.1656,920 L172.65,919.375 L172.65,919 L172.65,918.625 L173.1656,918 L173.65,918 L175.65,918 L175.65,912 L173.65,912 L173.1656,912 L172.65,911.375 L172.65,911 L172.65,910.625 L173.1656,910 L173.65,910 L179.65,910 L180.1344,910 L180.65,910.625 L180.65,911 L180.65,911.375 L180.1344,912 L179.65,912 L177.65,912 Z " fill="#000000"/><text fill="#000000" font-family="sans-serif" font-size="14" font-style="italic" lengthAdjust="spacing" textLength="129" x="196.35" y="920.7285">CustomerRepository</text><line style="stroke:#181818;stroke-width:0.5;" x1="137" x2="353" y1="931" y2="931"/><line style="stroke:#181818;stroke-width:0.5;" x1="137" x2="353" y1="939" y2="939"/><text fill="#000000" font-family="sans-serif" font-size="14" lengthAdjust="spacing" textLength="206" x="142" y="957.5332">+findByPhoneNumber(Integer id)</text></g><!--MD5=[810ed7cd2fbecdd88a3e2d34af87c5c1]
class JpaCustomerRepository--><g id="elem_JpaCustomerRepository"><rect codeLine="52" fill="#F1F1F1" height="65.6094" id="JpaCustomerRepository" rx="2.5" ry="2.5" style="stroke:#181818;stroke-width:0.5;" width="218" x="9" y="1025"/><ellipse cx="39.75" cy="1041" fill="#ADD1B2" rx="11" ry="11" style="stroke:#181818;stroke-width:1.0;"/><path d="M41.75,1037.5 Q41.9531,1037 42.1875,1036.75 Q42.4219,1036.5 42.6875,1036.5 Q43.1563,1036.5 43.4531,1036.7813 Q43.75,1037.0625 43.75,1037.7188 L43.75,1039.2813 Q43.75,1039.9375 43.4688,1040.2188 Q43.1875,1040.5 42.75,1040.5 Q42.3594,1040.5 42.1094,1040.3281 Q41.8594,1040.1563 41.75,1039.7031 Q41.7031,1039.3906 41.5313,1039.2188 Q41.2188,1038.8906 40.6563,1038.7031 Q40.0938,1038.5 39.5313,1038.5 Q38.8281,1038.5 38.2344,1038.7813 Q37.6563,1039.0625 37.2031,1039.6875 Q36.75,1040.3125 36.75,1041.1719 L36.75,1042.0938 Q36.75,1043.125 37.5938,1043.8125 Q38.4375,1044.5 39.9375,1044.5 Q40.8281,1044.5 41.4531,1044.2969 Q41.8125,1044.1875 42.2188,1043.8281 Q42.4844,1043.625 42.625,1043.5625 Q42.7656,1043.5 42.9375,1043.5 Q43.2656,1043.5 43.5,1043.7656 Q43.75,1044.0156 43.75,1044.375 Q43.75,1044.7188 43.4063,1045.125 Q42.9063,1045.7188 42.1094,1046.0469 Q41.0625,1046.5 39.7813,1046.5 Q38.2813,1046.5 37.0781,1045.9063 Q36.1094,1045.4375 35.4219,1044.4219 Q34.75,1043.4063 34.75,1042.2031 L34.75,1041.1094 Q34.75,1039.8594 35.3438,1038.7656 Q35.9531,1037.6719 37,1037.0938 Q38.0625,1036.5 39.25,1036.5 Q39.9688,1036.5 40.5938,1036.75 Q41.2188,1037 41.75,1037.5 Z " fill="#000000"/><text fill="#000000" font-family="sans-serif" font-size="14" lengthAdjust="spacing" textLength="151" x="57.25" y="1046.7285">JpaCustomerRepository</text><line style="stroke:#181818;stroke-width:0.5;" x1="10" x2="226" y1="1057" y2="1057"/><line style="stroke:#181818;stroke-width:0.5;" x1="10" x2="226" y1="1065" y2="1065"/><text fill="#000000" font-family="sans-serif" font-size="14" lengthAdjust="spacing" textLength="206" x="15" y="1083.5332">+findByPhoneNumber(Integer id)</text></g><!--MD5=[03543f00130536e7c659feb793988deb]
class InMemoryCustomerRepository--><g id="elem_InMemoryCustomerRepository"><rect codeLine="56" fill="#F1F1F1" height="65.6094" id="InMemoryCustomerRepository" rx="2.5" ry="2.5" style="stroke:#181818;stroke-width:0.5;" width="222" x="262" y="1025"/><ellipse cx="277" cy="1041" fill="#ADD1B2" rx="11" ry="11" style="stroke:#181818;stroke-width:1.0;"/><path d="M279,1037.5 Q279.2031,1037 279.4375,1036.75 Q279.6719,1036.5 279.9375,1036.5 Q280.4063,1036.5 280.7031,1036.7813 Q281,1037.0625 281,1037.7188 L281,1039.2813 Q281,1039.9375 280.7188,1040.2188 Q280.4375,1040.5 280,1040.5 Q279.6094,1040.5 279.3594,1040.3281 Q279.1094,1040.1563 279,1039.7031 Q278.9531,1039.3906 278.7813,1039.2188 Q278.4688,1038.8906 277.9063,1038.7031 Q277.3438,1038.5 276.7813,1038.5 Q276.0781,1038.5 275.4844,1038.7813 Q274.9063,1039.0625 274.4531,1039.6875 Q274,1040.3125 274,1041.1719 L274,1042.0938 Q274,1043.125 274.8438,1043.8125 Q275.6875,1044.5 277.1875,1044.5 Q278.0781,1044.5 278.7031,1044.2969 Q279.0625,1044.1875 279.4688,1043.8281 Q279.7344,1043.625 279.875,1043.5625 Q280.0156,1043.5 280.1875,1043.5 Q280.5156,1043.5 280.75,1043.7656 Q281,1044.0156 281,1044.375 Q281,1044.7188 280.6563,1045.125 Q280.1563,1045.7188 279.3594,1046.0469 Q278.3125,1046.5 277.0313,1046.5 Q275.5313,1046.5 274.3281,1045.9063 Q273.3594,1045.4375 272.6719,1044.4219 Q272,1043.4063 272,1042.2031 L272,1041.1094 Q272,1039.8594 272.5938,1038.7656 Q273.2031,1037.6719 274.25,1037.0938 Q275.3125,1036.5 276.5,1036.5 Q277.2188,1036.5 277.8438,1036.75 Q278.4688,1037 279,1037.5 Z " fill="#000000"/><text fill="#000000" font-family="sans-serif" font-size="14" lengthAdjust="spacing" textLength="190" x="291" y="1046.7285">InMemoryCustomerRepository</text><line style="stroke:#181818;stroke-width:0.5;" x1="263" x2="483" y1="1057" y2="1057"/><line style="stroke:#181818;stroke-width:0.5;" x1="263" x2="483" y1="1065" y2="1065"/><text fill="#000000" font-family="sans-serif" font-size="14" lengthAdjust="spacing" textLength="206" x="268" y="1083.5332">+findByPhoneNumber(Integer id)</text></g><!--MD5=[5da5add42998e837e9d1850b10a0d568]
link AddProductToCartAction to ListProductsUI--><g id="link_AddProductToCartAction_ListProductsUI"><path codeLine="3" d="M143.2,55.12 C130.13,78.75 109.47,116.06 93.12,145.62 " fill="none" id="AddProductToCartAction-to-ListProductsUI" style="stroke:#181818;stroke-width:1.0;"/><polygon fill="#181818" points="90.53,150.29,98.3826,144.3455,92.9473,145.9132,91.3796,140.4779,90.53,150.29" style="stroke:#181818;stroke-width:1.0;"/></g><!--MD5=[e208a80e320a97751f5605cb68441643]
link AddProductToCartAction to AddProductToCartUI--><g id="link_AddProductToCartAction_AddProductToCartUI"><path codeLine="4" d="M168.94,55.12 C177.19,69.85 188.41,89.91 199.71,110.09 " fill="none" id="AddProductToCartAction-to-AddProductToCartUI" style="stroke:#181818;stroke-width:1.0;"/><polygon fill="#181818" points="202.27,114.67,201.3714,104.8622,199.8309,110.3053,194.3878,108.7648,202.27,114.67" style="stroke:#181818;stroke-width:1.0;"/></g><!--MD5=[0eae39b18e1f97020fd6971bc10fa32a]
link AddProductToCartUI to OrderServerController--><g id="link_AddProductToCartUI_OrderServerController"><path codeLine="5" d="M245,269.17 C245,286.91 245,305.75 245,323.34 " fill="none" id="AddProductToCartUI-to-OrderServerController" style="stroke:#181818;stroke-width:1.0;"/><polygon fill="#181818" points="245,328.75,249,319.75,245,323.75,241,319.75,245,328.75" style="stroke:#181818;stroke-width:1.0;"/></g><!--MD5=[6710f75c611ae1e06d6bf7af3665cc0c]
link OrderServerController to OrderServer--><g id="link_OrderServerController_OrderServer"><path codeLine="6" d="M245,465.05 C245,482.76 245,501.82 245,519.35 " fill="none" id="OrderServerController-to-OrderServer" style="stroke:#181818;stroke-width:1.0;"/><polygon fill="#181818" points="245,524.74,249,515.74,245,519.74,241,515.74,245,524.74" style="stroke:#181818;stroke-width:1.0;"/></g><!--MD5=[9a1ce41d0563962447600797bf9028b6]
link OrderServer to AddProductToCartController--><g id="link_OrderServer_AddProductToCartController"><path codeLine="7" d="M245,643.03 C245,660.37 245,679.59 245,697.72 " fill="none" id="OrderServer-to-AddProductToCartController" style="stroke:#181818;stroke-width:1.0;"/><polygon fill="#181818" points="245,702.81,249,693.81,245,697.81,241,693.81,245,702.81" style="stroke:#181818;stroke-width:1.0;"/></g><!--MD5=[9258a933e21ff48087c6385837c7ea83]
link AddProductToCartController to CustomerRepository--><g id="link_AddProductToCartController_CustomerRepository"><path codeLine="8" d="M245,839.43 C245,857.98 245,877.44 245,893.62 " fill="none" id="AddProductToCartController-to-CustomerRepository" style="stroke:#181818;stroke-width:1.0;"/><polygon fill="#181818" points="245,898.97,249,889.97,245,893.97,241,889.97,245,898.97" style="stroke:#181818;stroke-width:1.0;"/></g><!--MD5=[037db757c73a2b6bf679199d601c9eb6]
link CustomerRepository to JpaCustomerRepository--><g id="link_CustomerRepository_JpaCustomerRepository"><path codeLine="9" d="M211.96,965.26 C194.47,982.33 172.94,1003.36 154.9,1020.97 " fill="none" id="CustomerRepository-to-JpaCustomerRepository" style="stroke:#181818;stroke-width:1.0;"/><polygon fill="#181818" points="150.87,1024.91,160.1046,1021.4864,154.4482,1021.4177,154.5169,1015.7612,150.87,1024.91" style="stroke:#181818;stroke-width:1.0;"/></g><!--MD5=[34f2c0a94ff3fab39c1209f2556293e6]
link CustomerRepository to InMemoryCustomerRepository--><g id="link_CustomerRepository_InMemoryCustomerRepository"><path codeLine="10" d="M278.3,965.26 C296.07,982.48 317.99,1003.71 336.27,1021.41 " fill="none" id="CustomerRepository-to-InMemoryCustomerRepository" style="stroke:#181818;stroke-width:1.0;"/><polygon fill="#181818" points="339.87,1024.91,336.2048,1015.7685,336.2848,1021.4248,330.6285,1021.5048,339.87,1024.91" style="stroke:#181818;stroke-width:1.0;"/></g><!--MD5=[1785fe021609c0043825ba4f3ef7834f]
@startuml
skinparam classAttributeIconSize 0

AddProductToCartAction - ->ListProductsUI
AddProductToCartAction - ->AddProductToCartUI
AddProductToCartUI - -> OrderServerController
OrderServerController - ->OrderServer
OrderServer - -> AddProductToCartController
AddProductToCartController - -> CustomerRepository
CustomerRepository - -> JpaCustomerRepository
CustomerRepository - -> InMemoryCustomerRepository

class ListProductsUI{
 +doShow()
 +headLine()
}

class AddProductToCartUI{
 +doShow()
 +repeatLoop()
 +chooseProduct()
 +chooseQuantity()
 +chooseCustomer()
 +headLine()
}

class OrderServerController{
+establishConnection()
+validateCustomer(int customer)
+addProduct(String name, int quantity)
+saveCart()
+disconnect()
}

class OrderServer{
+ClientHandler(Socket socket)
+readMessage(byte[] buf)
+chooseAction(int code, String message)
+writeMessage(String answer)
}
class AddProductToCartController{
-ListProductService
+validateNameOfProduct(String name)
+addProduct(String name, int quantity)
+validateCustomer(int vat)
+saveCart()
}

interface CustomerRepository{
+findByPhoneNumber(Integer id)
}

class JpaCustomerRepository{
+findByPhoneNumber(Integer id)
}

class InMemoryCustomerRepository{
+findByPhoneNumber(Integer id)
}
@enduml

PlantUML version 1.2022.4(Sat Apr 09 14:29:17 BST 2022)
(GPL source distribution)
Java Runtime: OpenJDK Runtime Environment
JVM: OpenJDK 64-Bit Server VM
Default Encoding: Cp1252
Language: pt
Country: PT
--></g></svg>