<svg xmlns="http://www.w3.org/2000/svg" xmlns:xlink="http://www.w3.org/1999/xlink" xmlns:lucid="lucid" width="4900" height="2400"><g transform="translate(-200 -440)" lucid:page-tab-id="0_0"><path d="M0 0h5484.6v3840.5H0z" fill="#fff"/><path d="M520 906a6 6 0 0 1 6-6h28a6 6 0 0 1 6 6v1388a6 6 0 0 1-6 6h-28a6 6 0 0 1-6-6zM220 466a6 6 0 0 1 6-6h648a6 6 0 0 1 6 6v308a6 6 0 0 1-6 6H226a6 6 0 0 1-6-6z" stroke="#5e5e5e" stroke-width="3" fill="#fff"/><use xlink:href="#a" transform="matrix(1,0,0,1,220,460) translate(68.02969135802478 170.55555555555554)"/><path d="M1420 466a6 6 0 0 1 6-6h648a6 6 0 0 1 6 6v308a6 6 0 0 1-6 6h-648a6 6 0 0 1-6-6z" stroke="#5e5e5e" stroke-width="3" fill="#fff"/><use xlink:href="#b" transform="matrix(1,0,0,1,1420,460) translate(52.042037037037126 170.55555555555554)"/><path d="M2780 466a6 6 0 0 1 6-6h828a6 6 0 0 1 6 6v308a6 6 0 0 1-6 6h-828a6 6 0 0 1-6-6z" stroke="#5e5e5e" stroke-width="3" fill="#fff"/><use xlink:href="#c" transform="matrix(1,0,0,1,2780,460) translate(41.73339506172835 170.55555555555554)"/><path d="M4420 466a6 6 0 0 1 6-6h648a6 6 0 0 1 6 6v308a6 6 0 0 1-6 6h-648a6 6 0 0 1-6-6z" stroke="#5e5e5e" stroke-width="3" fill="#fff"/><use xlink:href="#d" transform="matrix(1,0,0,1,4420,460) translate(58.95561728395064 170.55555555555554)"/><path d="M220 2486a6 6 0 0 1 6-6h648a6 6 0 0 1 6 6v308a6 6 0 0 1-6 6H226a6 6 0 0 1-6-6z" stroke="#5e5e5e" stroke-width="3" fill="#fff"/><use xlink:href="#a" transform="matrix(1,0,0,1,220,2480) translate(68.02969135802478 170.55555555555554)"/><path d="M1420 2506a6 6 0 0 1 6-6h648a6 6 0 0 1 6 6v308a6 6 0 0 1-6 6h-648a6 6 0 0 1-6-6z" stroke="#5e5e5e" stroke-width="3" fill="#fff"/><use xlink:href="#b" transform="matrix(1,0,0,1,1420,2500) translate(52.042037037037126 170.55555555555554)"/><path d="M2780 2486a6 6 0 0 1 6-6h828a6 6 0 0 1 6 6v308a6 6 0 0 1-6 6h-828a6 6 0 0 1-6-6z" stroke="#5e5e5e" stroke-width="3" fill="#fff"/><use xlink:href="#c" transform="matrix(1,0,0,1,2780,2480) translate(41.73339506172835 170.55555555555554)"/><path d="M4420 2466a6 6 0 0 1 6-6h648a6 6 0 0 1 6 6v308a6 6 0 0 1-6 6h-648a6 6 0 0 1-6-6z" stroke="#5e5e5e" stroke-width="3" fill="#fff"/><use xlink:href="#d" transform="matrix(1,0,0,1,4420,2460) translate(58.95561728395064 170.55555555555554)"/><path d="M1730 906a6 6 0 0 1 6-6h28a6 6 0 0 1 6 6v1388a6 6 0 0 1-6 6h-28a6 6 0 0 1-6-6zM3180 906a6 6 0 0 1 6-6h28a6 6 0 0 1 6 6v1388a6 6 0 0 1-6 6h-28a6 6 0 0 1-6-6zM4760 906a6 6 0 0 1 6-6h28a6 6 0 0 1 6 6v1388a6 6 0 0 1-6 6h-28a6 6 0 0 1-6-6z" stroke="#5e5e5e" stroke-width="3" fill="#fff"/><path d="M562.43 948h33a6 6 0 0 1 6 6v128a6 6 0 0 1-6 6h-15.5" stroke="#5e5e5e" stroke-width="2" fill="none"/><path d="M562.45 949h-1.02v-2h1.02z" stroke="#5e5e5e" stroke-width=".05" fill="#5e5e5e"/><path d="M564.67 1088l14.27-4.64v9.27z" stroke="#5e5e5e" stroke-width="2" fill="#5e5e5e"/><path d="M640 906a6 6 0 0 1 6-6h148a6 6 0 0 1 6 6v174a6 6 0 0 1-6 6H646a6 6 0 0 1-6-6z" stroke="#000" stroke-opacity="0" stroke-width="3" fill="#fff" fill-opacity="0"/><use xlink:href="#e" transform="matrix(1,0,0,1,645,905) translate(22.22222222222223 33.77777777777777)"/><use xlink:href="#f" transform="matrix(1,0,0,1,645,905) translate(15.24382716049383 84.44444444444443)"/><use xlink:href="#g" transform="matrix(1,0,0,1,645,905) translate(76.1141975308642 84.44444444444443)"/><use xlink:href="#h" transform="matrix(1,0,0,1,645,905) translate(-11.672839506172835 135.1111111111111)"/><use xlink:href="#i" transform="matrix(1,0,0,1,645,905) translate(-29.148148148148124 185.77777777777774)"/><a xlink:href="http://1.Ask" target="_blank" transform="matrix(1,0,0,1,645,905)"><path class="lucid-link lucid-hotspot lucid-overlay-hotspot" fill-opacity="0" d="M22.22 0h105.56v50.67H22.22z"/></a><path d="M562.44 1166H1710" stroke="#5e5e5e" stroke-width="2" fill="none"/><path d="M562.47 1167h-1.03v-2h1.03z" stroke="#5e5e5e" stroke-width=".05" fill="#5e5e5e"/><path d="M1725.28 1166l-14.27 4.64v-9.28z" stroke="#5e5e5e" stroke-width="2" fill="#5e5e5e"/><path d="M1360 846a6 6 0 0 1 6-6h228a6 6 0 0 1 6 6v368a6 6 0 0 1-6 6h-228a6 6 0 0 1-6-6z" stroke="#000" stroke-opacity="0" stroke-width="3" fill="#fff" fill-opacity="0"/><use xlink:href="#j" transform="matrix(1,0,0,1,1365,845) translate(27.222222222222257 95.59374999999999)"/><use xlink:href="#k" transform="matrix(1,0,0,1,1365,845) translate(71.66666666666669 95.59374999999999)"/><use xlink:href="#l" transform="matrix(1,0,0,1,1365,845) translate(87.22222222222223 143.59374999999997)"/><use xlink:href="#m" transform="matrix(1,0,0,1,1365,845) translate(16.33333333333337 191.59374999999997)"/><use xlink:href="#n" transform="matrix(1,0,0,1,1365,845) translate(65.00000000000001 239.59374999999994)"/><use xlink:href="#l" transform="matrix(1,0,0,1,1365,845) translate(109.44444444444444 239.59374999999994)"/><use xlink:href="#o" transform="matrix(1,0,0,1,1365,845) translate(33.00000000000003 287.59374999999994)"/><path d="M1727.52 1280H579.95" stroke="#5e5e5e" stroke-width="2" fill="none"/><path d="M1728.52 1281h-1.03v-2h1.02z" stroke="#5e5e5e" stroke-width=".05" fill="#5e5e5e"/><path d="M564.68 1280l14.27-4.64v9.28z" stroke="#5e5e5e" stroke-width="2" fill="#5e5e5e"/><path d="M880 1186a6 6 0 0 1 6-6h568a6 6 0 0 1 6 6v118a6 6 0 0 1-6 6H886a6 6 0 0 1-6-6z" stroke="#000" stroke-opacity="0" stroke-width="3" fill="#fff" fill-opacity="0"/><use xlink:href="#p" transform="matrix(1,0,0,1,885,1185) translate(25.27777777777783 67.91666666666666)"/><use xlink:href="#q" transform="matrix(1,0,0,1,885,1185) translate(62.31481481481485 67.91666666666666)"/><use xlink:href="#r" transform="matrix(1,0,0,1,885,1185) translate(188.05555555555554 67.91666666666666)"/><use xlink:href="#s" transform="matrix(1,0,0,1,885,1185) translate(213.88888888888886 67.91666666666666)"/><use xlink:href="#t" transform="matrix(1,0,0,1,885,1185) translate(269.4444444444444 67.91666666666666)"/><use xlink:href="#u" transform="matrix(1,0,0,1,885,1185) translate(443.14814814814804 67.91666666666666)"/><use xlink:href="#v" transform="matrix(1,0,0,1,885,1185) translate(476.3888888888888 67.91666666666666)"/><path d="M562.46 1460h1147.56" stroke="#5e5e5e" stroke-width="2" fill="none"/><path d="M562.48 1461h-1.02v-2h1.02z" stroke="#5e5e5e" stroke-width=".05" fill="#5e5e5e"/><path d="M1725.3 1460l-14.27 4.64v-9.28z" stroke="#5e5e5e" stroke-width="2" fill="#5e5e5e"/><path d="M580 1286a6 6 0 0 1 6-6h1108a6 6 0 0 1 6 6v254a6 6 0 0 1-6 6H586a6 6 0 0 1-6-6z" stroke="#000" stroke-opacity="0" stroke-width="3" fill="#fff" fill-opacity="0"/><use xlink:href="#w" transform="matrix(1,0,0,1,585,1285) translate(41.41975308641997 132.44444444444443)"/><use xlink:href="#x" transform="matrix(1,0,0,1,585,1285) translate(159.64197530864215 132.44444444444443)"/><use xlink:href="#y" transform="matrix(1,0,0,1,585,1285) translate(218.90123456790138 132.44444444444443)"/><use xlink:href="#z" transform="matrix(1,0,0,1,585,1285) translate(374.55555555555566 132.44444444444443)"/><use xlink:href="#A" transform="matrix(1,0,0,1,585,1285) translate(423.93827160493834 132.44444444444443)"/><use xlink:href="#B" transform="matrix(1,0,0,1,585,1285) translate(552.0370370370371 132.44444444444443)"/><use xlink:href="#C" transform="matrix(1,0,0,1,585,1285) translate(581.6666666666666 132.44444444444443)"/><use xlink:href="#D" transform="matrix(1,0,0,1,585,1285) translate(737.5185185185184 132.44444444444443)"/><use xlink:href="#E" transform="matrix(1,0,0,1,585,1285) translate(810.4074074074073 132.44444444444443)"/><use xlink:href="#F" transform="matrix(1,0,0,1,585,1285) translate(893.1728395061726 132.44444444444443)"/><a xlink:href="http://4.Callls" target="_blank" transform="matrix(1,0,0,1,585,1285)"><path class="lucid-link lucid-hotspot lucid-overlay-hotspot" fill-opacity="0" d="M41.42 104h108.35v42.67H41.42z"/></a><path d="M1772.46 1520h1387.57" stroke="#5e5e5e" stroke-width="2" fill="none"/><path d="M1772.48 1521h-1.02v-2h1.02z" stroke="#5e5e5e" stroke-width=".05" fill="#5e5e5e"/><path d="M3175.3 1520l-14.27 4.64v-9.28z" stroke="#5e5e5e" stroke-width="2" fill="#5e5e5e"/><path d="M1980 1366a6 6 0 0 1 6-6h1068a6 6 0 0 1 6 6v238a6 6 0 0 1-6 6H1986a6 6 0 0 1-6-6z" stroke="#000" stroke-opacity="0" stroke-width="3" fill="#fff" fill-opacity="0"/><g><use xlink:href="#G" transform="matrix(1,0,0,1,1985,1365) translate(33.796296296296475 124.16666666666666)"/><use xlink:href="#H" transform="matrix(1,0,0,1,1985,1365) translate(187.31481481481495 124.16666666666666)"/><use xlink:href="#I" transform="matrix(1,0,0,1,1985,1365) translate(215.09259259259272 124.16666666666666)"/><use xlink:href="#J" transform="matrix(1,0,0,1,1985,1365) translate(348.3333333333334 124.16666666666666)"/><use xlink:href="#K" transform="matrix(1,0,0,1,1985,1365) translate(385.37037037037044 124.16666666666666)"/><use xlink:href="#L" transform="matrix(1,0,0,1,1985,1365) translate(457.59259259259267 124.16666666666666)"/><use xlink:href="#M" transform="matrix(1,0,0,1,1985,1365) translate(611.0185185185185 124.16666666666666)"/><use xlink:href="#s" transform="matrix(1,0,0,1,1985,1365) translate(679.351851851852 124.16666666666666)"/><use xlink:href="#t" transform="matrix(1,0,0,1,1985,1365) translate(734.9074074074074 124.16666666666666)"/><use xlink:href="#N" transform="matrix(1,0,0,1,1985,1365) translate(908.6111111111111 124.16666666666666)"/></g><g transform="matrix(1,0,0,1,1985,1365)"><a xlink:href="http://5.Creates" target="_blank"><path class="lucid-link lucid-hotspot lucid-overlay-hotspot" fill-opacity="0" d="M33.8 97.5h144.26v40H33.8z"/></a></g><path d="M3222.46 1580h1517.57" stroke="#5e5e5e" stroke-width="2" fill="none"/><path d="M3222.5 1581h-1.04v-2h1.03z" stroke="#5e5e5e" stroke-width=".05" fill="#5e5e5e"/><path d="M4755.3 1580l-14.27 4.64v-9.28z" stroke="#5e5e5e" stroke-width="2" fill="#5e5e5e"/><path d="M3500 1346a6 6 0 0 1 6-6h1098a6 6 0 0 1 6 6v369.67a6 6 0 0 1-6 6H3506a6 6 0 0 1-6-6z" stroke="#000" stroke-opacity="0" stroke-width="3" fill="#fff" fill-opacity="0"/><g><use xlink:href="#O" transform="matrix(1,0,0,1,3505,1345) translate(7.679012345679212 191.19444444444443)"/><use xlink:href="#x" transform="matrix(1,0,0,1,3505,1345) translate(145.95061728395075 191.19444444444443)"/><use xlink:href="#C" transform="matrix(1,0,0,1,3505,1345) translate(205.20987654321 191.19444444444443)"/><use xlink:href="#P" transform="matrix(1,0,0,1,3505,1345) translate(361.0617283950618 191.19444444444443)"/><use xlink:href="#x" transform="matrix(1,0,0,1,3505,1345) translate(398.4938271604939 191.19444444444443)"/><use xlink:href="#Q" transform="matrix(1,0,0,1,3505,1345) translate(457.7530864197531 191.19444444444443)"/><use xlink:href="#R" transform="matrix(1,0,0,1,3505,1345) translate(630.5925925925926 191.19444444444443)"/><use xlink:href="#S" transform="matrix(1,0,0,1,3505,1345) translate(745.0617283950617 191.19444444444443)"/><use xlink:href="#T" transform="matrix(1,0,0,1,3505,1345) translate(772.6172839506172 191.19444444444443)"/><use xlink:href="#P" transform="matrix(1,0,0,1,3505,1345) translate(926.4938271604937 191.19444444444443)"/><use xlink:href="#x" transform="matrix(1,0,0,1,3505,1345) translate(963.9259259259258 191.19444444444443)"/><use xlink:href="#U" transform="matrix(1,0,0,1,3505,1345) translate(1023.185185185185 191.19444444444443)"/></g><g transform="matrix(1,0,0,1,3505,1345)"><a xlink:href="http://6.Saves" target="_blank"><path class="lucid-link lucid-hotspot lucid-overlay-hotspot" fill-opacity="0" d="M7.68 162.75h128.4v42.67H7.68z"/></a></g><path d="M3177.55 1783.2H1790" stroke="#5e5e5e" stroke-width="2" fill="none"/><path d="M3178.55 1784.2h-1.03v-2h1.03z" stroke="#5e5e5e" stroke-width=".05" fill="#5e5e5e"/><path d="M1774.7 1783.2l14.28-4.64v9.27z" stroke="#5e5e5e" stroke-width="2" fill="#5e5e5e"/><path d="M2140 1686a6 6 0 0 1 6-6h808a6 6 0 0 1 6 6v118a6 6 0 0 1-6 6h-808a6 6 0 0 1-6-6z" stroke="#000" stroke-opacity="0" stroke-width="3" fill="#fff" fill-opacity="0"/><g><use xlink:href="#V" transform="matrix(1,0,0,1,2145,1685) translate(171.8981481481482 67.91666666666666)"/><use xlink:href="#s" transform="matrix(1,0,0,1,2145,1685) translate(325.4166666666667 67.91666666666666)"/><use xlink:href="#W" transform="matrix(1,0,0,1,2145,1685) translate(380.97222222222223 67.91666666666666)"/><use xlink:href="#X" transform="matrix(1,0,0,1,2145,1685) translate(527.0833333333333 67.91666666666666)"/></g><g transform="matrix(1,0,0,1,2145,1685)"><a xlink:href="http://6.Returns" target="_blank"><path class="lucid-link lucid-hotspot lucid-overlay-hotspot" fill-opacity="0" d="M171.9 41.25h18.52v40H171.9z"/></a><a xlink:href="http://6.Returns" target="_blank"><path class="lucid-link lucid-hotspot lucid-overlay-hotspot" fill-opacity="0" d="M190.42 41.25h125.74v40H190.42z"/></a></g><path d="M1727.56 2020H580" stroke="#5e5e5e" stroke-width="2" fill="none"/><path d="M1728.56 2021h-1.03v-2h1.03z" stroke="#5e5e5e" stroke-width=".05" fill="#5e5e5e"/><path d="M564.72 2020l14.27-4.64v9.28z" stroke="#5e5e5e" stroke-width="2" fill="#5e5e5e"/><g><path d="M756.4 1962.47a.5.5 0 0 1 .46-.53l721.76-48.25a.5.5 0 0 1 .53.45.5.5 0 0 1-.46.53l-721.77 48.26a.5.5 0 0 1-.53-.47z" stroke="#000" stroke-opacity="0" stroke-width="3" fill="#fff" fill-opacity="0"/></g><path d="M620 1866a6 6 0 0 1 6-6h988a6 6 0 0 1 6 6v168a6 6 0 0 1-6 6H626a6 6 0 0 1-6-6z" stroke="#000" stroke-opacity="0" stroke-width="3" fill="#fff" fill-opacity="0"/><g><use xlink:href="#Y" transform="matrix(1,0,0,1,625,1865) translate(26.25000000000017 69.16666666666666)"/><use xlink:href="#q" transform="matrix(1,0,0,1,625,1865) translate(63.287037037037194 69.16666666666666)"/><use xlink:href="#H" transform="matrix(1,0,0,1,625,1865) translate(189.02777777777789 69.16666666666666)"/><use xlink:href="#Z" transform="matrix(1,0,0,1,625,1865) translate(216.80555555555566 69.16666666666666)"/><use xlink:href="#aa" transform="matrix(1,0,0,1,625,1865) translate(362.7314814814816 69.16666666666666)"/><use xlink:href="#M" transform="matrix(1,0,0,1,625,1865) translate(483.0092592592593 69.16666666666666)"/><use xlink:href="#s" transform="matrix(1,0,0,1,625,1865) translate(551.3425925925926 69.16666666666666)"/><use xlink:href="#W" transform="matrix(1,0,0,1,625,1865) translate(606.898148148148 69.16666666666666)"/><use xlink:href="#ab" transform="matrix(1,0,0,1,625,1865) translate(753.0092592592591 69.16666666666666)"/><use xlink:href="#ac" transform="matrix(1,0,0,1,625,1865) translate(935.9722222222222 69.16666666666666)"/><use xlink:href="#ad" transform="matrix(1,0,0,1,625,1865) translate(389.58333333333337 109.16666666666664)"/><use xlink:href="#ae" transform="matrix(1,0,0,1,625,1865) translate(476.52777777777777 109.16666666666664)"/><use xlink:href="#s" transform="matrix(1,0,0,1,625,1865) translate(511.6203703703704 109.16666666666664)"/><use xlink:href="#af" transform="matrix(1,0,0,1,625,1865) translate(567.1759259259259 109.16666666666664)"/></g><defs><path d="M233-177c-1 41-23 64-60 70L243 0h-38l-65-103H63V0H30v-248c88 3 205-21 203 71zM63-129c60-2 137 13 137-47 0-61-80-42-137-45v92" id="ag"/><path d="M30 0v-248h187v28H63v79h144v27H63v87h162V0H30" id="ah"/><path d="M143 4C61 4 22-44 18-125c-5-107 100-154 193-111 17 8 29 25 37 43l-32 9c-13-25-37-40-76-40-61 0-88 39-88 99 0 61 29 100 91 101 35 0 62-11 79-27v-45h-74v-28h105v86C228-13 192 4 143 4" id="ai"/><path d="M33 0v-248h34V0H33" id="aj"/><path d="M185-189c-5-48-123-54-124 2 14 75 158 14 163 119 3 78-121 87-175 55-17-10-28-26-33-46l33-7c5 56 141 63 141-1 0-78-155-14-162-118-5-82 145-84 179-34 5 7 8 16 11 25" id="ak"/><path d="M127-220V0H93v-220H8v-28h204v28h-85" id="al"/><path d="M212-179c-10-28-35-45-73-45-59 0-87 40-87 99 0 60 29 101 89 101 43 0 62-24 78-52l27 14C228-24 195 4 139 4 59 4 22-46 18-125c-6-104 99-153 187-111 19 9 31 26 39 46" id="am"/><path d="M232-93c-1 65-40 97-104 97C67 4 28-28 28-90v-158h33c8 89-33 224 67 224 102 0 64-133 71-224h33v155" id="an"/><path d="M140-251c81 0 123 46 123 126C263-46 219 4 140 4 59 4 17-45 17-125s42-126 123-126zm0 227c63 0 89-41 89-101s-29-99-89-99c-61 0-89 39-89 99S79-25 140-24" id="ao"/><path d="M240 0l2-218c-23 76-54 145-80 218h-23L58-218 59 0H30v-248h44l77 211c21-75 51-140 76-211h43V0h-30" id="ap"/><g id="a"><use transform="matrix(0.12345679012345678,0,0,0.12345679012345678,0,0)" xlink:href="#ag"/><use transform="matrix(0.12345679012345678,0,0,0.12345679012345678,31.975308641975307,0)" xlink:href="#ah"/><use transform="matrix(0.12345679012345678,0,0,0.12345679012345678,61.60493827160494,0)" xlink:href="#ai"/><use transform="matrix(0.12345679012345678,0,0,0.12345679012345678,96.17283950617283,0)" xlink:href="#aj"/><use transform="matrix(0.12345679012345678,0,0,0.12345679012345678,108.51851851851852,0)" xlink:href="#ak"/><use transform="matrix(0.12345679012345678,0,0,0.12345679012345678,138.14814814814815,0)" xlink:href="#al"/><use transform="matrix(0.12345679012345678,0,0,0.12345679012345678,165.1851851851852,0)" xlink:href="#ah"/><use transform="matrix(0.12345679012345678,0,0,0.12345679012345678,194.8148148148148,0)" xlink:href="#ag"/><use transform="matrix(0.12345679012345678,0,0,0.12345679012345678,226.79012345679013,0)" xlink:href="#am"/><use transform="matrix(0.12345679012345678,0,0,0.12345679012345678,258.7654320987654,0)" xlink:href="#an"/><use transform="matrix(0.12345679012345678,0,0,0.12345679012345678,290.7407407407407,0)" xlink:href="#ak"/><use transform="matrix(0.12345679012345678,0,0,0.12345679012345678,320.3703703703703,0)" xlink:href="#al"/><use transform="matrix(0.12345679012345678,0,0,0.12345679012345678,346.54320987654313,0)" xlink:href="#ao"/><use transform="matrix(0.12345679012345678,0,0,0.12345679012345678,381.11111111111103,0)" xlink:href="#ap"/><use transform="matrix(0.12345679012345678,0,0,0.12345679012345678,418.0246913580246,0)" xlink:href="#ah"/><use transform="matrix(0.12345679012345678,0,0,0.12345679012345678,447.6543209876542,0)" xlink:href="#ag"/><use transform="matrix(0.12345679012345678,0,0,0.12345679012345678,479.6296296296295,0)" xlink:href="#an"/><use transform="matrix(0.12345679012345678,0,0,0.12345679012345678,511.6049382716048,0)" xlink:href="#aj"/><path d="M-2.22 3.08h528.4v3.26H-2.22z"/></g><path d="M190 0L58-211 59 0H30v-248h39L202-35l-2-213h31V0h-41" id="aq"/><path d="M30 0v-248h33v221h125V0H30" id="ar"/><g id="b"><use transform="matrix(0.12345679012345678,0,0,0.12345679012345678,0,0)" xlink:href="#am"/><use transform="matrix(0.12345679012345678,0,0,0.12345679012345678,31.975308641975307,0)" xlink:href="#an"/><use transform="matrix(0.12345679012345678,0,0,0.12345679012345678,63.95061728395061,0)" xlink:href="#ak"/><use transform="matrix(0.12345679012345678,0,0,0.12345679012345678,93.58024691358024,0)" xlink:href="#al"/><use transform="matrix(0.12345679012345678,0,0,0.12345679012345678,119.75308641975307,0)" xlink:href="#ao"/><use transform="matrix(0.12345679012345678,0,0,0.12345679012345678,154.32098765432096,0)" xlink:href="#ap"/><use transform="matrix(0.12345679012345678,0,0,0.12345679012345678,191.23456790123453,0)" xlink:href="#ah"/><use transform="matrix(0.12345679012345678,0,0,0.12345679012345678,220.86419753086415,0)" xlink:href="#ag"/><use transform="matrix(0.12345679012345678,0,0,0.12345679012345678,252.83950617283946,0)" xlink:href="#am"/><use transform="matrix(0.12345679012345678,0,0,0.12345679012345678,284.8148148148148,0)" xlink:href="#ao"/><use transform="matrix(0.12345679012345678,0,0,0.12345679012345678,319.3827160493827,0)" xlink:href="#aq"/><use transform="matrix(0.12345679012345678,0,0,0.12345679012345678,351.35802469135797,0)" xlink:href="#al"/><use transform="matrix(0.12345679012345678,0,0,0.12345679012345678,378.395061728395,0)" xlink:href="#ag"/><use transform="matrix(0.12345679012345678,0,0,0.12345679012345678,410.37037037037027,0)" xlink:href="#ao"/><use transform="matrix(0.12345679012345678,0,0,0.12345679012345678,444.93827160493817,0)" xlink:href="#ar"/><use transform="matrix(0.12345679012345678,0,0,0.12345679012345678,469.6296296296295,0)" xlink:href="#ar"/><use transform="matrix(0.12345679012345678,0,0,0.12345679012345678,494.32098765432085,0)" xlink:href="#ah"/><use transform="matrix(0.12345679012345678,0,0,0.12345679012345678,523.9506172839505,0)" xlink:href="#ag"/><path d="M-2.22 3.08h560.37v3.26H-2.22z"/></g><path d="M30-248c87 1 191-15 191 75 0 78-77 80-158 76V0H30v-248zm33 125c57 0 124 11 124-50 0-59-68-47-124-48v98" id="as"/><path d="M205 0l-28-72H64L36 0H1l101-248h38L239 0h-34zm-38-99l-47-123c-12 45-31 82-46 123h93" id="at"/><path d="M137 0h-34L2-248h35l83 218 83-218h36" id="au"/><g id="c"><use transform="matrix(0.12345679012345678,0,0,0.12345679012345678,0,0)" xlink:href="#am"/><use transform="matrix(0.12345679012345678,0,0,0.12345679012345678,31.975308641975307,0)" xlink:href="#an"/><use transform="matrix(0.12345679012345678,0,0,0.12345679012345678,63.95061728395061,0)" xlink:href="#ak"/><use transform="matrix(0.12345679012345678,0,0,0.12345679012345678,93.58024691358024,0)" xlink:href="#al"/><use transform="matrix(0.12345679012345678,0,0,0.12345679012345678,119.75308641975307,0)" xlink:href="#ao"/><use transform="matrix(0.12345679012345678,0,0,0.12345679012345678,154.32098765432096,0)" xlink:href="#ap"/><use transform="matrix(0.12345679012345678,0,0,0.12345679012345678,191.23456790123453,0)" xlink:href="#ah"/><use transform="matrix(0.12345679012345678,0,0,0.12345679012345678,220.86419753086415,0)" xlink:href="#ag"/><use transform="matrix(0.12345679012345678,0,0,0.12345679012345678,252.83950617283946,0)" xlink:href="#as"/><use transform="matrix(0.12345679012345678,0,0,0.12345679012345678,282.4691358024691,0)" xlink:href="#ah"/><use transform="matrix(0.12345679012345678,0,0,0.12345679012345678,312.09876543209873,0)" xlink:href="#ag"/><use transform="matrix(0.12345679012345678,0,0,0.12345679012345678,344.074074074074,0)" xlink:href="#ak"/><use transform="matrix(0.12345679012345678,0,0,0.12345679012345678,373.70370370370364,0)" xlink:href="#aj"/><use transform="matrix(0.12345679012345678,0,0,0.12345679012345678,386.0493827160493,0)" xlink:href="#ak"/><use transform="matrix(0.12345679012345678,0,0,0.12345679012345678,415.6790123456789,0)" xlink:href="#al"/><use transform="matrix(0.12345679012345678,0,0,0.12345679012345678,439.3827160493826,0)" xlink:href="#at"/><use transform="matrix(0.12345679012345678,0,0,0.12345679012345678,469.01234567901224,0)" xlink:href="#aq"/><use transform="matrix(0.12345679012345678,0,0,0.12345679012345678,500.98765432098753,0)" xlink:href="#am"/><use transform="matrix(0.12345679012345678,0,0,0.12345679012345678,532.9629629629628,0)" xlink:href="#ah"/><use transform="matrix(0.12345679012345678,0,0,0.12345679012345678,562.5925925925925,0)" xlink:href="#ak"/><use transform="matrix(0.12345679012345678,0,0,0.12345679012345678,592.2222222222222,0)" xlink:href="#ah"/><use transform="matrix(0.12345679012345678,0,0,0.12345679012345678,621.8518518518518,0)" xlink:href="#ag"/><use transform="matrix(0.12345679012345678,0,0,0.12345679012345678,652.9629629629629,0)" xlink:href="#au"/><use transform="matrix(0.12345679012345678,0,0,0.12345679012345678,682.5925925925926,0)" xlink:href="#aj"/><use transform="matrix(0.12345679012345678,0,0,0.12345679012345678,694.9382716049383,0)" xlink:href="#am"/><use transform="matrix(0.12345679012345678,0,0,0.12345679012345678,726.9135802469136,0)" xlink:href="#ah"/><path d="M-2.22 3.08h761v3.26h-761z"/></g><path d="M137-103V0h-34v-103L8-248h37l75 118 75-118h37" id="av"/><g id="d"><use transform="matrix(0.12345679012345678,0,0,0.12345679012345678,0,0)" xlink:href="#am"/><use transform="matrix(0.12345679012345678,0,0,0.12345679012345678,31.975308641975307,0)" xlink:href="#an"/><use transform="matrix(0.12345679012345678,0,0,0.12345679012345678,63.95061728395061,0)" xlink:href="#ak"/><use transform="matrix(0.12345679012345678,0,0,0.12345679012345678,93.58024691358024,0)" xlink:href="#al"/><use transform="matrix(0.12345679012345678,0,0,0.12345679012345678,119.75308641975307,0)" xlink:href="#ao"/><use transform="matrix(0.12345679012345678,0,0,0.12345679012345678,154.32098765432096,0)" xlink:href="#ap"/><use transform="matrix(0.12345679012345678,0,0,0.12345679012345678,191.23456790123453,0)" xlink:href="#ah"/><use transform="matrix(0.12345679012345678,0,0,0.12345679012345678,220.86419753086415,0)" xlink:href="#ag"/><use transform="matrix(0.12345679012345678,0,0,0.12345679012345678,252.83950617283946,0)" xlink:href="#ag"/><use transform="matrix(0.12345679012345678,0,0,0.12345679012345678,284.8148148148148,0)" xlink:href="#ah"/><use transform="matrix(0.12345679012345678,0,0,0.12345679012345678,314.4444444444444,0)" xlink:href="#as"/><use transform="matrix(0.12345679012345678,0,0,0.12345679012345678,344.074074074074,0)" xlink:href="#ao"/><use transform="matrix(0.12345679012345678,0,0,0.12345679012345678,378.6419753086419,0)" xlink:href="#ak"/><use transform="matrix(0.12345679012345678,0,0,0.12345679012345678,408.27160493827154,0)" xlink:href="#aj"/><use transform="matrix(0.12345679012345678,0,0,0.12345679012345678,420.6172839506172,0)" xlink:href="#al"/><use transform="matrix(0.12345679012345678,0,0,0.12345679012345678,446.79012345679,0)" xlink:href="#ao"/><use transform="matrix(0.12345679012345678,0,0,0.12345679012345678,481.3580246913579,0)" xlink:href="#ag"/><use transform="matrix(0.12345679012345678,0,0,0.12345679012345678,512.469135802469,0)" xlink:href="#av"/><path d="M-2.22 3.08h546.54v3.26H-2.22z"/></g><path fill="#333" d="M27 0v-27h64v-190l-56 39v-29l58-41h29v221h61V0H27" id="aw"/><path fill="#333" d="M33 0v-38h34V0H33" id="ax"/><path fill="#333" d="M205 0l-28-72H64L36 0H1l101-248h38L239 0h-34zm-38-99l-47-123c-12 45-31 82-46 123h93" id="ay"/><path fill="#333" d="M135-143c-3-34-86-38-87 0 15 53 115 12 119 90S17 21 10-45l28-5c4 36 97 45 98 0-10-56-113-15-118-90-4-57 82-63 122-42 12 7 21 19 24 35" id="az"/><path fill="#333" d="M143 0L79-87 56-68V0H24v-261h32v163l83-92h37l-77 82L181 0h-38" id="aA"/><g id="e"><use transform="matrix(0.11728395061728393,0,0,0.11728395061728393,0,0)" xlink:href="#aw"/><use transform="matrix(0.11728395061728393,0,0,0.11728395061728393,23.456790123456788,0)" xlink:href="#ax"/><use transform="matrix(0.11728395061728393,0,0,0.11728395061728393,35.18518518518518,0)" xlink:href="#ay"/><use transform="matrix(0.11728395061728393,0,0,0.11728395061728393,63.33333333333332,0)" xlink:href="#az"/><use transform="matrix(0.11728395061728393,0,0,0.11728395061728393,84.44444444444443,0)" xlink:href="#aA"/><path fill="#8080ff" d="M-2.1 2.93h109.77v3.1H-2.1z"/></g><path fill="#333" d="M101-234c-31-9-42 10-38 44h38v23H63V0H32v-167H5v-23h27c-7-52 17-82 69-68v24" id="aB"/><path fill="#333" d="M100-194c62-1 85 37 85 99 1 63-27 99-86 99S16-35 15-95c0-66 28-99 85-99zM99-20c44 1 53-31 53-75 0-43-8-75-51-75s-53 32-53 75 10 74 51 75" id="aC"/><path fill="#333" d="M114-163C36-179 61-72 57 0H25l-1-190h30c1 12-1 29 2 39 6-27 23-49 58-41v29" id="aD"/><g id="f"><use transform="matrix(0.11728395061728393,0,0,0.11728395061728393,0,0)" xlink:href="#aB"/><use transform="matrix(0.11728395061728393,0,0,0.11728395061728393,11.728395061728394,0)" xlink:href="#aC"/><use transform="matrix(0.11728395061728393,0,0,0.11728395061728393,35.18518518518518,0)" xlink:href="#aD"/></g><path fill="#333" d="M59-47c-2 24 18 29 38 22v24C64 9 27 4 27-40v-127H5v-23h24l9-43h21v43h35v23H59v120" id="aE"/><path fill="#333" d="M106-169C34-169 62-67 57 0H25v-261h32l-1 103c12-21 28-36 61-36 89 0 53 116 60 194h-32v-121c2-32-8-49-39-48" id="aF"/><path fill="#333" d="M100-194c63 0 86 42 84 106H49c0 40 14 67 53 68 26 1 43-12 49-29l28 8c-11 28-37 45-77 45C44 4 14-33 15-96c1-61 26-98 85-98zm52 81c6-60-76-77-97-28-3 7-6 17-6 28h103" id="aG"/><g id="g"><use transform="matrix(0.11728395061728393,0,0,0.11728395061728393,0,0)" xlink:href="#aE"/><use transform="matrix(0.11728395061728393,0,0,0.11728395061728393,11.728395061728394,0)" xlink:href="#aF"/><use transform="matrix(0.11728395061728393,0,0,0.11728395061728393,35.18518518518518,0)" xlink:href="#aG"/></g><path fill="#333" d="M96-169c-40 0-48 33-48 73s9 75 48 75c24 0 41-14 43-38l32 2c-6 37-31 61-74 61-59 0-76-41-82-99-10-93 101-131 147-64 4 7 5 14 7 22l-32 3c-4-21-16-35-41-35" id="aH"/><path fill="#333" d="M84 4C-5 8 30-112 23-190h32v120c0 31 7 50 39 49 72-2 45-101 50-169h31l1 190h-30c-1-10 1-25-2-33-11 22-28 36-60 37" id="aI"/><path fill="#333" d="M210-169c-67 3-38 105-44 169h-31v-121c0-29-5-50-35-48C34-165 62-65 56 0H25l-1-190h30c1 10-1 24 2 32 10-44 99-50 107 0 11-21 27-35 58-36 85-2 47 119 55 194h-31v-121c0-29-5-49-35-48" id="aJ"/><g id="h"><use transform="matrix(0.11728395061728393,0,0,0.11728395061728393,0,0)" xlink:href="#aH"/><use transform="matrix(0.11728395061728393,0,0,0.11728395061728393,21.111111111111107,0)" xlink:href="#aI"/><use transform="matrix(0.11728395061728393,0,0,0.11728395061728393,44.5679012345679,0)" xlink:href="#az"/><use transform="matrix(0.11728395061728393,0,0,0.11728395061728393,65.67901234567901,0)" xlink:href="#aE"/><use transform="matrix(0.11728395061728393,0,0,0.11728395061728393,77.4074074074074,0)" xlink:href="#aC"/><use transform="matrix(0.11728395061728393,0,0,0.11728395061728393,100.86419753086419,0)" xlink:href="#aJ"/><use transform="matrix(0.11728395061728393,0,0,0.11728395061728393,135.9320987654321,0)" xlink:href="#aG"/><use transform="matrix(0.11728395061728393,0,0,0.11728395061728393,159.38888888888889,0)" xlink:href="#aD"/></g><path fill="#333" d="M24-231v-30h32v30H24zM24 0v-190h32V0H24" id="aK"/><path fill="#333" d="M117-194c89-4 53 116 60 194h-32v-121c0-31-8-49-39-48C34-167 62-67 57 0H25l-1-190h30c1 10-1 24 2 32 11-22 29-35 61-36" id="aL"/><path fill="#333" d="M141-36C126-15 110 5 73 4 37 3 15-17 15-53c-1-64 63-63 125-63 3-35-9-54-41-54-24 1-41 7-42 31l-33-3c5-37 33-52 76-52 45 0 72 20 72 64v82c-1 20 7 32 28 27v20c-31 9-61-2-59-35zM48-53c0 20 12 33 32 33 41-3 63-29 60-74-43 2-92-5-92 41" id="aM"/><g id="i"><use transform="matrix(0.11728395061728393,0,0,0.11728395061728393,0,0)" xlink:href="#aK"/><use transform="matrix(0.11728395061728393,0,0,0.11728395061728393,9.26543209876543,0)" xlink:href="#aL"/><use transform="matrix(0.11728395061728393,0,0,0.11728395061728393,32.722222222222214,0)" xlink:href="#aB"/><use transform="matrix(0.11728395061728393,0,0,0.11728395061728393,44.450617283950606,0)" xlink:href="#aC"/><use transform="matrix(0.11728395061728393,0,0,0.11728395061728393,67.90740740740739,0)" xlink:href="#aD"/><use transform="matrix(0.11728395061728393,0,0,0.11728395061728393,81.86419753086417,0)" xlink:href="#aJ"/><use transform="matrix(0.11728395061728393,0,0,0.11728395061728393,116.93209876543207,0)" xlink:href="#aM"/><use transform="matrix(0.11728395061728393,0,0,0.11728395061728393,140.38888888888886,0)" xlink:href="#aE"/><use transform="matrix(0.11728395061728393,0,0,0.11728395061728393,152.11728395061726,0)" xlink:href="#aK"/><use transform="matrix(0.11728395061728393,0,0,0.11728395061728393,161.38271604938268,0)" xlink:href="#aC"/><use transform="matrix(0.11728395061728393,0,0,0.11728395061728393,184.83950617283946,0)" xlink:href="#aL"/></g><path fill="#333" d="M101-251c82-7 93 87 43 132L82-64C71-53 59-42 53-27h129V0H18c2-99 128-94 128-182 0-28-16-43-45-43s-46 15-49 41l-32-3c6-41 34-60 81-64" id="aN"/><g id="j"><use transform="matrix(0.11111111111111108,0,0,0.11111111111111108,0,0)" xlink:href="#aN"/><use transform="matrix(0.11111111111111108,0,0,0.11111111111111108,22.222222222222214,0)" xlink:href="#ax"/></g><path fill="#333" d="M30-248c87 1 191-15 191 75 0 78-77 80-158 76V0H30v-248zm33 125c57 0 124 11 124-50 0-59-68-47-124-48v98" id="aO"/><g id="k"><use transform="matrix(0.11111111111111108,0,0,0.11111111111111108,0,0)" xlink:href="#aO"/><use transform="matrix(0.11111111111111108,0,0,0.11111111111111108,26.666666666666657,0)" xlink:href="#aM"/><use transform="matrix(0.11111111111111108,0,0,0.11111111111111108,48.88888888888887,0)" xlink:href="#az"/><use transform="matrix(0.11111111111111108,0,0,0.11111111111111108,68.88888888888886,0)" xlink:href="#az"/><use transform="matrix(0.11111111111111108,0,0,0.11111111111111108,88.88888888888886,0)" xlink:href="#aG"/><use transform="matrix(0.11111111111111108,0,0,0.11111111111111108,111.11111111111107,0)" xlink:href="#az"/></g><g id="l"><use transform="matrix(0.11111111111111108,0,0,0.11111111111111108,0,0)" xlink:href="#aE"/><use transform="matrix(0.11111111111111108,0,0,0.11111111111111108,11.111111111111107,0)" xlink:href="#aF"/><use transform="matrix(0.11111111111111108,0,0,0.11111111111111108,33.33333333333332,0)" xlink:href="#aG"/></g><g id="m"><use transform="matrix(0.11111111111111108,0,0,0.11111111111111108,0,0)" xlink:href="#aK"/><use transform="matrix(0.11111111111111108,0,0,0.11111111111111108,8.777777777777775,0)" xlink:href="#aL"/><use transform="matrix(0.11111111111111108,0,0,0.11111111111111108,30.99999999999999,0)" xlink:href="#aB"/><use transform="matrix(0.11111111111111108,0,0,0.11111111111111108,42.1111111111111,0)" xlink:href="#aC"/><use transform="matrix(0.11111111111111108,0,0,0.11111111111111108,64.33333333333331,0)" xlink:href="#aD"/><use transform="matrix(0.11111111111111108,0,0,0.11111111111111108,77.55555555555553,0)" xlink:href="#aJ"/><use transform="matrix(0.11111111111111108,0,0,0.11111111111111108,110.77777777777774,0)" xlink:href="#aM"/><use transform="matrix(0.11111111111111108,0,0,0.11111111111111108,132.99999999999994,0)" xlink:href="#aE"/><use transform="matrix(0.11111111111111108,0,0,0.11111111111111108,144.11111111111106,0)" xlink:href="#aK"/><use transform="matrix(0.11111111111111108,0,0,0.11111111111111108,152.88888888888883,0)" xlink:href="#aC"/><use transform="matrix(0.11111111111111108,0,0,0.11111111111111108,175.11111111111103,0)" xlink:href="#aL"/></g><g id="n"><use transform="matrix(0.11111111111111108,0,0,0.11111111111111108,0,0)" xlink:href="#aE"/><use transform="matrix(0.11111111111111108,0,0,0.11111111111111108,11.111111111111107,0)" xlink:href="#aC"/></g><path fill="#333" d="M24 0v-261h32V0H24" id="aP"/><g id="o"><use transform="matrix(0.11111111111111108,0,0,0.11111111111111108,0,0)" xlink:href="#aH"/><use transform="matrix(0.11111111111111108,0,0,0.11111111111111108,19.999999999999993,0)" xlink:href="#aC"/><use transform="matrix(0.11111111111111108,0,0,0.11111111111111108,42.22222222222221,0)" xlink:href="#aL"/><use transform="matrix(0.11111111111111108,0,0,0.11111111111111108,64.44444444444443,0)" xlink:href="#aE"/><use transform="matrix(0.11111111111111108,0,0,0.11111111111111108,75.55555555555554,0)" xlink:href="#aD"/><use transform="matrix(0.11111111111111108,0,0,0.11111111111111108,88.77777777777776,0)" xlink:href="#aC"/><use transform="matrix(0.11111111111111108,0,0,0.11111111111111108,110.99999999999997,0)" xlink:href="#aP"/><use transform="matrix(0.11111111111111108,0,0,0.11111111111111108,119.77777777777774,0)" xlink:href="#aP"/><use transform="matrix(0.11111111111111108,0,0,0.11111111111111108,128.55555555555551,0)" xlink:href="#aG"/><use transform="matrix(0.11111111111111108,0,0,0.11111111111111108,150.77777777777771,0)" xlink:href="#aD"/></g><path fill="#333" d="M126-127c33 6 58 20 58 59 0 88-139 92-164 29-3-8-5-16-6-25l32-3c6 27 21 44 54 44 32 0 52-15 52-46 0-38-36-46-79-43v-28c39 1 72-4 72-42 0-27-17-43-46-43-28 0-47 15-49 41l-32-3c6-42 35-63 81-64 48-1 79 21 79 65 0 36-21 52-52 59" id="aQ"/><g id="p"><use transform="matrix(0.09259259259259256,0,0,0.09259259259259256,0,0)" xlink:href="#aQ"/><use transform="matrix(0.09259259259259256,0,0,0.09259259259259256,18.518518518518512,0)" xlink:href="#ax"/></g><path fill="#333" d="M233-177c-1 41-23 64-60 70L243 0h-38l-65-103H63V0H30v-248c88 3 205-21 203 71zM63-129c60-2 137 13 137-47 0-61-80-42-137-45v92" id="aR"/><g id="q"><use transform="matrix(0.09259259259259256,0,0,0.09259259259259256,0,0)" xlink:href="#aR"/><use transform="matrix(0.09259259259259256,0,0,0.09259259259259256,23.981481481481474,0)" xlink:href="#aG"/><use transform="matrix(0.09259259259259256,0,0,0.09259259259259256,42.499999999999986,0)" xlink:href="#aE"/><use transform="matrix(0.09259259259259256,0,0,0.09259259259259256,51.75925925925924,0)" xlink:href="#aI"/><use transform="matrix(0.09259259259259256,0,0,0.09259259259259256,70.27777777777774,0)" xlink:href="#aD"/><use transform="matrix(0.09259259259259256,0,0,0.09259259259259256,81.29629629629626,0)" xlink:href="#aL"/><use transform="matrix(0.09259259259259256,0,0,0.09259259259259256,99.81481481481478,0)" xlink:href="#az"/></g><g id="r"><use transform="matrix(0.09259259259259256,0,0,0.09259259259259256,0,0)" xlink:href="#aK"/><use transform="matrix(0.09259259259259256,0,0,0.09259259259259256,7.314814814814812,0)" xlink:href="#aB"/></g><g id="s"><use transform="matrix(0.09259259259259256,0,0,0.09259259259259256,0,0)" xlink:href="#aE"/><use transform="matrix(0.09259259259259256,0,0,0.09259259259259256,9.259259259259256,0)" xlink:href="#aF"/><use transform="matrix(0.09259259259259256,0,0,0.09259259259259256,27.777777777777768,0)" xlink:href="#aG"/></g><g id="t"><use transform="matrix(0.09259259259259256,0,0,0.09259259259259256,0,0)" xlink:href="#aK"/><use transform="matrix(0.09259259259259256,0,0,0.09259259259259256,7.314814814814812,0)" xlink:href="#aL"/><use transform="matrix(0.09259259259259256,0,0,0.09259259259259256,25.833333333333325,0)" xlink:href="#aB"/><use transform="matrix(0.09259259259259256,0,0,0.09259259259259256,35.09259259259258,0)" xlink:href="#aC"/><use transform="matrix(0.09259259259259256,0,0,0.09259259259259256,53.61111111111109,0)" xlink:href="#aD"/><use transform="matrix(0.09259259259259256,0,0,0.09259259259259256,64.6296296296296,0)" xlink:href="#aJ"/><use transform="matrix(0.09259259259259256,0,0,0.09259259259259256,92.31481481481478,0)" xlink:href="#aM"/><use transform="matrix(0.09259259259259256,0,0,0.09259259259259256,110.8333333333333,0)" xlink:href="#aE"/><use transform="matrix(0.09259259259259256,0,0,0.09259259259259256,120.09259259259252,0)" xlink:href="#aK"/><use transform="matrix(0.09259259259259256,0,0,0.09259259259259256,127.40740740740735,0)" xlink:href="#aC"/><use transform="matrix(0.09259259259259256,0,0,0.09259259259259256,145.92592592592587,0)" xlink:href="#aL"/></g><g id="u"><use transform="matrix(0.09259259259259256,0,0,0.09259259259259256,0,0)" xlink:href="#aK"/><use transform="matrix(0.09259259259259256,0,0,0.09259259259259256,7.314814814814812,0)" xlink:href="#az"/></g><path fill="#333" d="M108 0H70L1-190h34L89-25l56-165h34" id="aS"/><path fill="#333" d="M85-194c31 0 48 13 60 33l-1-100h32l1 261h-30c-2-10 0-23-3-31C134-8 116 4 85 4 32 4 16-35 15-94c0-66 23-100 70-100zm9 24c-40 0-46 34-46 75 0 40 6 74 45 74 42 0 51-32 51-76 0-42-9-74-50-73" id="aT"/><g id="v"><use transform="matrix(0.09259259259259256,0,0,0.09259259259259256,0,0)" xlink:href="#aS"/><use transform="matrix(0.09259259259259256,0,0,0.09259259259259256,16.66666666666666,0)" xlink:href="#aM"/><use transform="matrix(0.09259259259259256,0,0,0.09259259259259256,35.185185185185176,0)" xlink:href="#aP"/><use transform="matrix(0.09259259259259256,0,0,0.09259259259259256,42.499999999999986,0)" xlink:href="#aK"/><use transform="matrix(0.09259259259259256,0,0,0.09259259259259256,49.814814814814795,0)" xlink:href="#aT"/></g><path fill="#333" d="M155-56V0h-30v-56H8v-25l114-167h33v167h35v25h-35zm-30-156c-27 46-58 90-88 131h88v-131" id="aU"/><path fill="#333" d="M212-179c-10-28-35-45-73-45-59 0-87 40-87 99 0 60 29 101 89 101 43 0 62-24 78-52l27 14C228-24 195 4 139 4 59 4 22-46 18-125c-6-104 99-153 187-111 19 9 31 26 39 46" id="aV"/><g id="w"><use transform="matrix(0.0987654320987654,0,0,0.0987654320987654,0,0)" xlink:href="#aU"/><use transform="matrix(0.0987654320987654,0,0,0.0987654320987654,19.753086419753078,0)" xlink:href="#ax"/><use transform="matrix(0.0987654320987654,0,0,0.0987654320987654,29.62962962962962,0)" xlink:href="#aV"/><use transform="matrix(0.0987654320987654,0,0,0.0987654320987654,55.20987654320986,0)" xlink:href="#aM"/><use transform="matrix(0.0987654320987654,0,0,0.0987654320987654,74.96296296296293,0)" xlink:href="#aP"/><use transform="matrix(0.0987654320987654,0,0,0.0987654320987654,82.7654320987654,0)" xlink:href="#aP"/><use transform="matrix(0.0987654320987654,0,0,0.0987654320987654,90.56790123456787,0)" xlink:href="#az"/><path fill="#8080ff" d="M-1.78 2.47h111.9v2.6H-1.78z"/></g><g id="x"><use transform="matrix(0.0987654320987654,0,0,0.0987654320987654,0,0)" xlink:href="#aE"/><use transform="matrix(0.0987654320987654,0,0,0.0987654320987654,9.876543209876539,0)" xlink:href="#aF"/><use transform="matrix(0.0987654320987654,0,0,0.0987654320987654,29.62962962962962,0)" xlink:href="#aG"/></g><g id="y"><use transform="matrix(0.0987654320987654,0,0,0.0987654320987654,0,0)" xlink:href="#aH"/><use transform="matrix(0.0987654320987654,0,0,0.0987654320987654,17.77777777777777,0)" xlink:href="#aC"/><use transform="matrix(0.0987654320987654,0,0,0.0987654320987654,37.530864197530846,0)" xlink:href="#aL"/><use transform="matrix(0.0987654320987654,0,0,0.0987654320987654,57.28395061728392,0)" xlink:href="#aE"/><use transform="matrix(0.0987654320987654,0,0,0.0987654320987654,67.16049382716047,0)" xlink:href="#aD"/><use transform="matrix(0.0987654320987654,0,0,0.0987654320987654,78.91358024691354,0)" xlink:href="#aC"/><use transform="matrix(0.0987654320987654,0,0,0.0987654320987654,98.66666666666661,0)" xlink:href="#aP"/><use transform="matrix(0.0987654320987654,0,0,0.0987654320987654,106.46913580246908,0)" xlink:href="#aP"/><use transform="matrix(0.0987654320987654,0,0,0.0987654320987654,114.27160493827155,0)" xlink:href="#aG"/><use transform="matrix(0.0987654320987654,0,0,0.0987654320987654,134.02469135802463,0)" xlink:href="#aD"/></g><g id="z"><use transform="matrix(0.0987654320987654,0,0,0.0987654320987654,0,0)" xlink:href="#aE"/><use transform="matrix(0.0987654320987654,0,0,0.0987654320987654,9.876543209876539,0)" xlink:href="#aC"/></g><path fill="#333" d="M177-190C167-65 218 103 67 71c-23-6-38-20-44-43l32-5c15 47 100 32 89-28v-30C133-14 115 1 83 1 29 1 15-40 15-95c0-56 16-97 71-98 29-1 48 16 59 35 1-10 0-23 2-32h30zM94-22c36 0 50-32 50-73 0-42-14-75-50-75-39 0-46 34-46 75s6 73 46 73" id="aW"/><g id="A"><use transform="matrix(0.0987654320987654,0,0,0.0987654320987654,0,0)" xlink:href="#aD"/><use transform="matrix(0.0987654320987654,0,0,0.0987654320987654,11.753086419753082,0)" xlink:href="#aG"/><use transform="matrix(0.0987654320987654,0,0,0.0987654320987654,31.506172839506164,0)" xlink:href="#aW"/><use transform="matrix(0.0987654320987654,0,0,0.0987654320987654,51.259259259259245,0)" xlink:href="#aK"/><use transform="matrix(0.0987654320987654,0,0,0.0987654320987654,59.06172839506171,0)" xlink:href="#az"/><use transform="matrix(0.0987654320987654,0,0,0.0987654320987654,76.83950617283948,0)" xlink:href="#aE"/><use transform="matrix(0.0987654320987654,0,0,0.0987654320987654,86.71604938271602,0)" xlink:href="#aG"/><use transform="matrix(0.0987654320987654,0,0,0.0987654320987654,106.4691358024691,0)" xlink:href="#aD"/></g><use transform="matrix(0.0987654320987654,0,0,0.0987654320987654,0,0)" xlink:href="#aM" id="B"/><g id="C"><use transform="matrix(0.0987654320987654,0,0,0.0987654320987654,0,0)" xlink:href="#aH"/><use transform="matrix(0.0987654320987654,0,0,0.0987654320987654,17.77777777777777,0)" xlink:href="#aI"/><use transform="matrix(0.0987654320987654,0,0,0.0987654320987654,37.530864197530846,0)" xlink:href="#az"/><use transform="matrix(0.0987654320987654,0,0,0.0987654320987654,55.30864197530861,0)" xlink:href="#aE"/><use transform="matrix(0.0987654320987654,0,0,0.0987654320987654,65.18518518518516,0)" xlink:href="#aC"/><use transform="matrix(0.0987654320987654,0,0,0.0987654320987654,84.93827160493824,0)" xlink:href="#aJ"/><use transform="matrix(0.0987654320987654,0,0,0.0987654320987654,114.46913580246907,0)" xlink:href="#aG"/><use transform="matrix(0.0987654320987654,0,0,0.0987654320987654,134.22222222222217,0)" xlink:href="#aD"/></g><path fill="#333" d="M206 0h-36l-40-164L89 0H53L-1-190h32L70-26l43-164h34l41 164 42-164h31" id="aX"/><g id="D"><use transform="matrix(0.0987654320987654,0,0,0.0987654320987654,0,0)" xlink:href="#aX"/><use transform="matrix(0.0987654320987654,0,0,0.0987654320987654,25.58024691358024,0)" xlink:href="#aK"/><use transform="matrix(0.0987654320987654,0,0,0.0987654320987654,33.38271604938271,0)" xlink:href="#aE"/><use transform="matrix(0.0987654320987654,0,0,0.0987654320987654,43.259259259259245,0)" xlink:href="#aF"/></g><g id="E"><use transform="matrix(0.0987654320987654,0,0,0.0987654320987654,0,0)" xlink:href="#aS"/><use transform="matrix(0.0987654320987654,0,0,0.0987654320987654,17.77777777777777,0)" xlink:href="#aM"/><use transform="matrix(0.0987654320987654,0,0,0.0987654320987654,37.530864197530846,0)" xlink:href="#aP"/><use transform="matrix(0.0987654320987654,0,0,0.0987654320987654,45.333333333333314,0)" xlink:href="#aK"/><use transform="matrix(0.0987654320987654,0,0,0.0987654320987654,53.13580246913578,0)" xlink:href="#aT"/></g><g id="F"><use transform="matrix(0.0987654320987654,0,0,0.0987654320987654,0,0)" xlink:href="#aK"/><use transform="matrix(0.0987654320987654,0,0,0.0987654320987654,7.8024691358024665,0)" xlink:href="#aL"/><use transform="matrix(0.0987654320987654,0,0,0.0987654320987654,27.55555555555554,0)" xlink:href="#aB"/><use transform="matrix(0.0987654320987654,0,0,0.0987654320987654,37.43209876543208,0)" xlink:href="#aC"/><use transform="matrix(0.0987654320987654,0,0,0.0987654320987654,57.18518518518517,0)" xlink:href="#aD"/><use transform="matrix(0.0987654320987654,0,0,0.0987654320987654,68.93827160493825,0)" xlink:href="#aJ"/><use transform="matrix(0.0987654320987654,0,0,0.0987654320987654,98.46913580246911,0)" xlink:href="#aM"/><use transform="matrix(0.0987654320987654,0,0,0.0987654320987654,118.22222222222219,0)" xlink:href="#aE"/><use transform="matrix(0.0987654320987654,0,0,0.0987654320987654,128.09876543209873,0)" xlink:href="#aK"/><use transform="matrix(0.0987654320987654,0,0,0.0987654320987654,135.90123456790118,0)" xlink:href="#aC"/><use transform="matrix(0.0987654320987654,0,0,0.0987654320987654,155.65432098765427,0)" xlink:href="#aL"/></g><path fill="#333" d="M54-142c48-35 137-8 131 61C196 18 31 33 14-55l32-4c7 23 22 37 52 37 35-1 51-22 54-58 4-55-73-65-99-34H22l8-134h141v27H59" id="aY"/><g id="G"><use transform="matrix(0.09259259259259256,0,0,0.09259259259259256,0,0)" xlink:href="#aY"/><use transform="matrix(0.09259259259259256,0,0,0.09259259259259256,18.518518518518512,0)" xlink:href="#ax"/><use transform="matrix(0.09259259259259256,0,0,0.09259259259259256,27.777777777777768,0)" xlink:href="#aV"/><use transform="matrix(0.09259259259259256,0,0,0.09259259259259256,51.75925925925924,0)" xlink:href="#aD"/><use transform="matrix(0.09259259259259256,0,0,0.09259259259259256,62.77777777777776,0)" xlink:href="#aG"/><use transform="matrix(0.09259259259259256,0,0,0.09259259259259256,81.29629629629628,0)" xlink:href="#aM"/><use transform="matrix(0.09259259259259256,0,0,0.09259259259259256,99.81481481481478,0)" xlink:href="#aE"/><use transform="matrix(0.09259259259259256,0,0,0.09259259259259256,109.07407407407403,0)" xlink:href="#aG"/><use transform="matrix(0.09259259259259256,0,0,0.09259259259259256,127.59259259259255,0)" xlink:href="#az"/><path fill="#8080ff" d="M-1.67 2.3h147.6v2.45H-1.68z"/></g><use transform="matrix(0.09259259259259256,0,0,0.09259259259259256,0,0)" xlink:href="#aM" id="H"/><g id="I"><use transform="matrix(0.09259259259259256,0,0,0.09259259259259256,0,0)" xlink:href="#aK"/><use transform="matrix(0.09259259259259256,0,0,0.09259259259259256,7.314814814814812,0)" xlink:href="#aL"/><use transform="matrix(0.09259259259259256,0,0,0.09259259259259256,25.833333333333325,0)" xlink:href="#az"/><use transform="matrix(0.09259259259259256,0,0,0.09259259259259256,42.499999999999986,0)" xlink:href="#aE"/><use transform="matrix(0.09259259259259256,0,0,0.09259259259259256,51.75925925925924,0)" xlink:href="#aM"/><use transform="matrix(0.09259259259259256,0,0,0.09259259259259256,70.27777777777774,0)" xlink:href="#aL"/><use transform="matrix(0.09259259259259256,0,0,0.09259259259259256,88.79629629629625,0)" xlink:href="#aH"/><use transform="matrix(0.09259259259259256,0,0,0.09259259259259256,105.4629629629629,0)" xlink:href="#aG"/></g><g id="J"><use transform="matrix(0.09259259259259256,0,0,0.09259259259259256,0,0)" xlink:href="#aC"/><use transform="matrix(0.09259259259259256,0,0,0.09259259259259256,18.518518518518512,0)" xlink:href="#aB"/></g><path fill="#333" d="M179-190L93 31C79 59 56 82 12 73V49c39 6 53-20 64-50L1-190h34L92-34l54-156h33" id="aZ"/><path fill="#333" d="M115-194c55 1 70 41 70 98S169 2 115 4C84 4 66-9 55-30l1 105H24l-1-265h31l2 30c10-21 28-34 59-34zm-8 174c40 0 45-34 45-75s-6-73-45-74c-42 0-51 32-51 76 0 43 10 73 51 73" id="ba"/><g id="K"><use transform="matrix(0.09259259259259256,0,0,0.09259259259259256,0,0)" xlink:href="#aE"/><use transform="matrix(0.09259259259259256,0,0,0.09259259259259256,9.259259259259256,0)" xlink:href="#aZ"/><use transform="matrix(0.09259259259259256,0,0,0.09259259259259256,25.925925925925917,0)" xlink:href="#ba"/><use transform="matrix(0.09259259259259256,0,0,0.09259259259259256,44.44444444444443,0)" xlink:href="#aG"/></g><g id="L"><use transform="matrix(0.09259259259259256,0,0,0.09259259259259256,0,0)" xlink:href="#aV"/><use transform="matrix(0.09259259259259256,0,0,0.09259259259259256,23.981481481481474,0)" xlink:href="#aI"/><use transform="matrix(0.09259259259259256,0,0,0.09259259259259256,42.499999999999986,0)" xlink:href="#az"/><use transform="matrix(0.09259259259259256,0,0,0.09259259259259256,59.16666666666664,0)" xlink:href="#aE"/><use transform="matrix(0.09259259259259256,0,0,0.09259259259259256,68.4259259259259,0)" xlink:href="#aC"/><use transform="matrix(0.09259259259259256,0,0,0.09259259259259256,86.9444444444444,0)" xlink:href="#aJ"/><use transform="matrix(0.09259259259259256,0,0,0.09259259259259256,114.62962962962956,0)" xlink:href="#aG"/><use transform="matrix(0.09259259259259256,0,0,0.09259259259259256,133.1481481481481,0)" xlink:href="#aD"/></g><g id="M"><use transform="matrix(0.09259259259259256,0,0,0.09259259259259256,0,0)" xlink:href="#aX"/><use transform="matrix(0.09259259259259256,0,0,0.09259259259259256,23.981481481481474,0)" xlink:href="#aK"/><use transform="matrix(0.09259259259259256,0,0,0.09259259259259256,31.296296296296283,0)" xlink:href="#aE"/><use transform="matrix(0.09259259259259256,0,0,0.09259259259259256,40.55555555555554,0)" xlink:href="#aF"/></g><g id="N"><use transform="matrix(0.09259259259259256,0,0,0.09259259259259256,0,0)" xlink:href="#ba"/><use transform="matrix(0.09259259259259256,0,0,0.09259259259259256,18.518518518518512,0)" xlink:href="#aD"/><use transform="matrix(0.09259259259259256,0,0,0.09259259259259256,29.537037037037027,0)" xlink:href="#aC"/><use transform="matrix(0.09259259259259256,0,0,0.09259259259259256,48.055555555555536,0)" xlink:href="#aS"/><use transform="matrix(0.09259259259259256,0,0,0.09259259259259256,64.7222222222222,0)" xlink:href="#aK"/><use transform="matrix(0.09259259259259256,0,0,0.09259259259259256,72.03703703703701,0)" xlink:href="#aT"/><use transform="matrix(0.09259259259259256,0,0,0.09259259259259256,90.55555555555551,0)" xlink:href="#aG"/><use transform="matrix(0.09259259259259256,0,0,0.09259259259259256,109.07407407407402,0)" xlink:href="#aT"/></g><path fill="#333" d="M110-160c48 1 74 30 74 79 0 53-28 85-80 85-65 0-83-55-86-122-5-90 50-162 133-122 14 7 22 21 27 39l-31 6c-5-40-67-38-82-6-9 19-15 44-15 74 11-20 30-34 60-33zm-7 138c34 0 49-23 49-58s-16-56-50-56c-29 0-50 16-49 49 1 36 15 65 50 65" id="bb"/><path fill="#333" d="M185-189c-5-48-123-54-124 2 14 75 158 14 163 119 3 78-121 87-175 55-17-10-28-26-33-46l33-7c5 56 141 63 141-1 0-78-155-14-162-118-5-82 145-84 179-34 5 7 8 16 11 25" id="bc"/><g id="O"><use transform="matrix(0.0987654320987654,0,0,0.0987654320987654,0,0)" xlink:href="#bb"/><use transform="matrix(0.0987654320987654,0,0,0.0987654320987654,19.753086419753078,0)" xlink:href="#ax"/><use transform="matrix(0.0987654320987654,0,0,0.0987654320987654,29.62962962962962,0)" xlink:href="#bc"/><use transform="matrix(0.0987654320987654,0,0,0.0987654320987654,53.333333333333314,0)" xlink:href="#aM"/><use transform="matrix(0.0987654320987654,0,0,0.0987654320987654,73.08641975308639,0)" xlink:href="#aS"/><use transform="matrix(0.0987654320987654,0,0,0.0987654320987654,90.86419753086416,0)" xlink:href="#aG"/><use transform="matrix(0.0987654320987654,0,0,0.0987654320987654,110.61728395061722,0)" xlink:href="#az"/><path fill="#8080ff" d="M-1.78 2.47h131.95v2.6H-1.78z"/></g><g id="P"><use transform="matrix(0.0987654320987654,0,0,0.0987654320987654,0,0)" xlink:href="#aK"/><use transform="matrix(0.0987654320987654,0,0,0.0987654320987654,7.8024691358024665,0)" xlink:href="#aL"/></g><path fill="#333" d="M68-38c1 34 0 65-14 84H32c9-13 17-26 17-46H33v-38h35" id="bd"/><g id="Q"><use transform="matrix(0.0987654320987654,0,0,0.0987654320987654,0,0)" xlink:href="#aD"/><use transform="matrix(0.0987654320987654,0,0,0.0987654320987654,11.753086419753082,0)" xlink:href="#aG"/><use transform="matrix(0.0987654320987654,0,0,0.0987654320987654,31.506172839506164,0)" xlink:href="#ba"/><use transform="matrix(0.0987654320987654,0,0,0.0987654320987654,51.259259259259245,0)" xlink:href="#aC"/><use transform="matrix(0.0987654320987654,0,0,0.0987654320987654,71.01234567901231,0)" xlink:href="#az"/><use transform="matrix(0.0987654320987654,0,0,0.0987654320987654,88.79012345679008,0)" xlink:href="#aK"/><use transform="matrix(0.0987654320987654,0,0,0.0987654320987654,96.59259259259255,0)" xlink:href="#aE"/><use transform="matrix(0.0987654320987654,0,0,0.0987654320987654,106.4691358024691,0)" xlink:href="#aC"/><use transform="matrix(0.0987654320987654,0,0,0.0987654320987654,126.22222222222219,0)" xlink:href="#aD"/><use transform="matrix(0.0987654320987654,0,0,0.0987654320987654,137.97530864197526,0)" xlink:href="#aZ"/><use transform="matrix(0.0987654320987654,0,0,0.0987654320987654,153.08641975308637,0)" xlink:href="#bd"/></g><g id="R"><use transform="matrix(0.0987654320987654,0,0,0.0987654320987654,0,0)" xlink:href="#aF"/><use transform="matrix(0.0987654320987654,0,0,0.0987654320987654,19.753086419753078,0)" xlink:href="#aM"/><use transform="matrix(0.0987654320987654,0,0,0.0987654320987654,39.506172839506156,0)" xlink:href="#aS"/><use transform="matrix(0.0987654320987654,0,0,0.0987654320987654,57.28395061728393,0)" xlink:href="#aK"/><use transform="matrix(0.0987654320987654,0,0,0.0987654320987654,65.08641975308639,0)" xlink:href="#aL"/><use transform="matrix(0.0987654320987654,0,0,0.0987654320987654,84.83950617283946,0)" xlink:href="#aW"/></g><g id="S"><use transform="matrix(0.0987654320987654,0,0,0.0987654320987654,0,0)" xlink:href="#aK"/><use transform="matrix(0.0987654320987654,0,0,0.0987654320987654,7.8024691358024665,0)" xlink:href="#aE"/></g><g id="T"><use transform="matrix(0.0987654320987654,0,0,0.0987654320987654,0,0)" xlink:href="#ba"/><use transform="matrix(0.0987654320987654,0,0,0.0987654320987654,19.753086419753078,0)" xlink:href="#aG"/><use transform="matrix(0.0987654320987654,0,0,0.0987654320987654,39.506172839506156,0)" xlink:href="#aD"/><use transform="matrix(0.0987654320987654,0,0,0.0987654320987654,51.259259259259245,0)" xlink:href="#az"/><use transform="matrix(0.0987654320987654,0,0,0.0987654320987654,69.03703703703701,0)" xlink:href="#aK"/><use transform="matrix(0.0987654320987654,0,0,0.0987654320987654,76.83950617283948,0)" xlink:href="#az"/><use transform="matrix(0.0987654320987654,0,0,0.0987654320987654,94.61728395061725,0)" xlink:href="#aE"/><use transform="matrix(0.0987654320987654,0,0,0.0987654320987654,104.4938271604938,0)" xlink:href="#aG"/><use transform="matrix(0.0987654320987654,0,0,0.0987654320987654,124.24691358024687,0)" xlink:href="#aT"/></g><g id="U"><use transform="matrix(0.0987654320987654,0,0,0.0987654320987654,0,0)" xlink:href="#aT"/><use transform="matrix(0.0987654320987654,0,0,0.0987654320987654,19.753086419753078,0)" xlink:href="#aM"/><use transform="matrix(0.0987654320987654,0,0,0.0987654320987654,39.506172839506156,0)" xlink:href="#aE"/><use transform="matrix(0.0987654320987654,0,0,0.0987654320987654,49.382716049382694,0)" xlink:href="#aM"/></g><path fill="#333" d="M64 0c3-98 48-159 88-221H18v-27h164v26C143-157 98-101 97 0H64" id="be"/><g id="V"><use transform="matrix(0.09259259259259256,0,0,0.09259259259259256,0,0)" xlink:href="#be"/><path fill="#8080ff" d="M-1.67 2.3h21.85v2.45H-1.67z"/><use transform="matrix(0.09259259259259256,0,0,0.09259259259259256,18.518518518518512,0)" xlink:href="#ax"/><use transform="matrix(0.09259259259259256,0,0,0.09259259259259256,27.777777777777768,0)" xlink:href="#aR"/><use transform="matrix(0.09259259259259256,0,0,0.09259259259259256,51.75925925925924,0)" xlink:href="#aG"/><use transform="matrix(0.09259259259259256,0,0,0.09259259259259256,70.27777777777774,0)" xlink:href="#aE"/><use transform="matrix(0.09259259259259256,0,0,0.09259259259259256,79.537037037037,0)" xlink:href="#aI"/><use transform="matrix(0.09259259259259256,0,0,0.09259259259259256,98.05555555555551,0)" xlink:href="#aD"/><use transform="matrix(0.09259259259259256,0,0,0.09259259259259256,109.07407407407403,0)" xlink:href="#aL"/><use transform="matrix(0.09259259259259256,0,0,0.09259259259259256,127.59259259259255,0)" xlink:href="#az"/><path fill="#8080ff" d="M16.85 2.3h129.07v2.45H16.85z"/></g><g id="W"><use transform="matrix(0.09259259259259256,0,0,0.09259259259259256,0,0)" xlink:href="#aH"/><use transform="matrix(0.09259259259259256,0,0,0.09259259259259256,16.66666666666666,0)" xlink:href="#aI"/><use transform="matrix(0.09259259259259256,0,0,0.09259259259259256,35.185185185185176,0)" xlink:href="#az"/><use transform="matrix(0.09259259259259256,0,0,0.09259259259259256,51.85185185185183,0)" xlink:href="#aE"/><use transform="matrix(0.09259259259259256,0,0,0.09259259259259256,61.111111111111086,0)" xlink:href="#aC"/><use transform="matrix(0.09259259259259256,0,0,0.09259259259259256,79.62962962962959,0)" xlink:href="#aJ"/><use transform="matrix(0.09259259259259256,0,0,0.09259259259259256,107.31481481481478,0)" xlink:href="#aG"/><use transform="matrix(0.09259259259259256,0,0,0.09259259259259256,125.83333333333329,0)" xlink:href="#aD"/></g><g id="X"><use transform="matrix(0.09259259259259256,0,0,0.09259259259259256,0,0)" xlink:href="#aH"/><use transform="matrix(0.09259259259259256,0,0,0.09259259259259256,16.66666666666666,0)" xlink:href="#aD"/><use transform="matrix(0.09259259259259256,0,0,0.09259259259259256,27.685185185185176,0)" xlink:href="#aG"/><use transform="matrix(0.09259259259259256,0,0,0.09259259259259256,46.20370370370369,0)" xlink:href="#aM"/><use transform="matrix(0.09259259259259256,0,0,0.09259259259259256,64.7222222222222,0)" xlink:href="#aE"/><use transform="matrix(0.09259259259259256,0,0,0.09259259259259256,73.98148148148145,0)" xlink:href="#aG"/><use transform="matrix(0.09259259259259256,0,0,0.09259259259259256,92.49999999999997,0)" xlink:href="#aT"/></g><path fill="#333" d="M134-131c28 9 52 24 51 62-1 50-34 73-85 73S17-19 16-69c0-36 21-54 49-61-75-25-45-126 34-121 46 3 78 18 79 63 0 33-17 51-44 57zm-34-11c31 1 46-15 46-44 0-28-17-43-47-42-29 0-46 13-45 42 1 28 16 44 46 44zm1 122c35 0 51-18 51-52 0-30-18-46-53-46-33 0-51 17-51 47 0 34 19 51 53 51" id="bf"/><g id="Y"><use transform="matrix(0.09259259259259256,0,0,0.09259259259259256,0,0)" xlink:href="#bf"/><use transform="matrix(0.09259259259259256,0,0,0.09259259259259256,18.518518518518512,0)" xlink:href="#ax"/></g><path fill="#333" d="M87 75C49 33 22-17 22-94c0-76 28-126 65-167h31c-38 41-64 92-64 168S80 34 118 75H87" id="bg"/><path fill="#333" d="M33-261c38 41 65 92 65 168S71 34 33 75H2C39 34 66-17 66-93S39-220 2-261h31" id="bh"/><g id="Z"><use transform="matrix(0.09259259259259256,0,0,0.09259259259259256,0,0)" xlink:href="#aE"/><use transform="matrix(0.09259259259259256,0,0,0.09259259259259256,9.259259259259256,0)" xlink:href="#aC"/><use transform="matrix(0.09259259259259256,0,0,0.09259259259259256,27.777777777777768,0)" xlink:href="#bc"/><use transform="matrix(0.09259259259259256,0,0,0.09259259259259256,49.999999999999986,0)" xlink:href="#aE"/><use transform="matrix(0.09259259259259256,0,0,0.09259259259259256,59.25925925925924,0)" xlink:href="#aD"/><use transform="matrix(0.09259259259259256,0,0,0.09259259259259256,70.27777777777776,0)" xlink:href="#aK"/><use transform="matrix(0.09259259259259256,0,0,0.09259259259259256,77.59259259259257,0)" xlink:href="#aL"/><use transform="matrix(0.09259259259259256,0,0,0.09259259259259256,96.11111111111107,0)" xlink:href="#aW"/><use transform="matrix(0.09259259259259256,0,0,0.09259259259259256,114.62962962962959,0)" xlink:href="#bg"/><use transform="matrix(0.09259259259259256,0,0,0.09259259259259256,125.64814814814811,0)" xlink:href="#bh"/></g><g id="aa"><use transform="matrix(0.09259259259259256,0,0,0.09259259259259256,0,0)" xlink:href="#aJ"/><use transform="matrix(0.09259259259259256,0,0,0.09259259259259256,27.685185185185176,0)" xlink:href="#aG"/><use transform="matrix(0.09259259259259256,0,0,0.09259259259259256,46.20370370370369,0)" xlink:href="#aE"/><use transform="matrix(0.09259259259259256,0,0,0.09259259259259256,55.46296296296294,0)" xlink:href="#aF"/><use transform="matrix(0.09259259259259256,0,0,0.09259259259259256,73.98148148148147,0)" xlink:href="#aC"/><use transform="matrix(0.09259259259259256,0,0,0.09259259259259256,92.49999999999997,0)" xlink:href="#aT"/></g><g id="ab"><use transform="matrix(0.09259259259259256,0,0,0.09259259259259256,0,0)" xlink:href="#aK"/><use transform="matrix(0.09259259259259256,0,0,0.09259259259259256,7.314814814814812,0)" xlink:href="#aL"/><use transform="matrix(0.09259259259259256,0,0,0.09259259259259256,25.833333333333325,0)" xlink:href="#aB"/><use transform="matrix(0.09259259259259256,0,0,0.09259259259259256,35.09259259259258,0)" xlink:href="#aC"/><use transform="matrix(0.09259259259259256,0,0,0.09259259259259256,53.61111111111109,0)" xlink:href="#aD"/><use transform="matrix(0.09259259259259256,0,0,0.09259259259259256,64.6296296296296,0)" xlink:href="#aJ"/><use transform="matrix(0.09259259259259256,0,0,0.09259259259259256,92.31481481481478,0)" xlink:href="#aM"/><use transform="matrix(0.09259259259259256,0,0,0.09259259259259256,110.8333333333333,0)" xlink:href="#aE"/><use transform="matrix(0.09259259259259256,0,0,0.09259259259259256,120.09259259259252,0)" xlink:href="#aE"/><use transform="matrix(0.09259259259259256,0,0,0.09259259259259256,129.3518518518518,0)" xlink:href="#aK"/><use transform="matrix(0.09259259259259256,0,0,0.09259259259259256,136.6666666666666,0)" xlink:href="#aC"/><use transform="matrix(0.09259259259259256,0,0,0.09259259259259256,155.1851851851851,0)" xlink:href="#aL"/></g><g id="ac"><use transform="matrix(0.09259259259259256,0,0,0.09259259259259256,0,0)" xlink:href="#aE"/><use transform="matrix(0.09259259259259256,0,0,0.09259259259259256,9.259259259259256,0)" xlink:href="#aC"/></g><g id="ad"><use transform="matrix(0.09259259259259256,0,0,0.09259259259259256,0,0)" xlink:href="#az"/><use transform="matrix(0.09259259259259256,0,0,0.09259259259259256,16.66666666666666,0)" xlink:href="#aF"/><use transform="matrix(0.09259259259259256,0,0,0.09259259259259256,35.185185185185176,0)" xlink:href="#aC"/><use transform="matrix(0.09259259259259256,0,0,0.09259259259259256,53.70370370370368,0)" xlink:href="#aX"/></g><g id="ae"><use transform="matrix(0.09259259259259256,0,0,0.09259259259259256,0,0)" xlink:href="#aK"/><use transform="matrix(0.09259259259259256,0,0,0.09259259259259256,7.314814814814812,0)" xlink:href="#aL"/></g><path fill="#333" d="M232-93c-1 65-40 97-104 97C67 4 28-28 28-90v-158h33c8 89-33 224 67 224 102 0 64-133 71-224h33v155" id="bi"/><path fill="#333" d="M33 0v-248h34V0H33" id="bj"/><g id="af"><use transform="matrix(0.09259259259259256,0,0,0.09259259259259256,0,0)" xlink:href="#bi"/><use transform="matrix(0.09259259259259256,0,0,0.09259259259259256,23.981481481481474,0)" xlink:href="#bj"/></g></defs></g></svg>