<?xml version="1.0" encoding="UTF-8" standalone="no"?><svg xmlns="http://www.w3.org/2000/svg" xmlns:xlink="http://www.w3.org/1999/xlink" contentStyleType="text/css" height="839px" preserveAspectRatio="none" style="width:948px;height:839px;background:#FFFFFF;" version="1.1" viewBox="0 0 948 839" width="948px" zoomAndPan="magnify"><defs/><g><rect fill="#FFFFFF" height="655.3828" style="stroke:#181818;stroke-width:1.0;" width="10" x="60.5" y="92.6094"/><rect fill="#FFFFFF" height="633.0313" style="stroke:#181818;stroke-width:1.0;" width="10" x="402.5" y="114.9609"/><rect height="109.4063" style="stroke:#000000;stroke-width:1.5;fill:none;" width="801" x="10" y="325.0703"/><rect height="109.4063" style="stroke:#000000;stroke-width:1.5;fill:none;" width="801" x="10" y="448.4766"/><line style="stroke:#181818;stroke-width:0.5;fill:none;stroke-dasharray:5.0,5.0;" x1="65" x2="65" y1="82.6094" y2="756.9922"/><line style="stroke:#181818;stroke-width:0.5;fill:none;stroke-dasharray:5.0,5.0;" x1="293" x2="293" y1="82.6094" y2="756.9922"/><line style="stroke:#181818;stroke-width:0.5;fill:none;stroke-dasharray:5.0,5.0;" x1="407" x2="407" y1="82.6094" y2="756.9922"/><line style="stroke:#181818;stroke-width:0.5;fill:none;stroke-dasharray:5.0,5.0;" x1="695" x2="695" y1="82.6094" y2="756.9922"/><line style="stroke:#181818;stroke-width:0.5;fill:none;stroke-dasharray:5.0,5.0;" x1="884" x2="884" y1="82.6094" y2="756.9922"/><text fill="#000000" font-family="sans-serif" font-size="14" lengthAdjust="spacing" textLength="85" x="20" y="79.5332">AGVManager</text><ellipse cx="65.5" cy="13.5" fill="#E2E2F0" rx="8" ry="8" style="stroke:#181818;stroke-width:0.5;"/><path d="M65.5,21.5 L65.5,48.5 M52.5,29.5 L78.5,29.5 M65.5,48.5 L52.5,63.5 M65.5,48.5 L78.5,63.5 " fill="none" style="stroke:#181818;stroke-width:0.5;"/><text fill="#000000" font-family="sans-serif" font-size="14" lengthAdjust="spacing" textLength="85" x="20" y="770.5254">AGVManager</text><ellipse cx="65.5" cy="782.1016" fill="#E2E2F0" rx="8" ry="8" style="stroke:#181818;stroke-width:0.5;"/><path d="M65.5,790.1016 L65.5,817.1016 M52.5,798.1016 L78.5,798.1016 M65.5,817.1016 L52.5,832.1016 M65.5,817.1016 L78.5,832.1016 " fill="none" style="stroke:#181818;stroke-width:0.5;"/><rect fill="#E2E2F0" height="31.6094" rx="2.5" ry="2.5" style="stroke:#181818;stroke-width:0.5;" width="47" x="270" y="50"/><text fill="#000000" font-family="sans-serif" font-size="14" lengthAdjust="spacing" textLength="33" x="277" y="71.5332">:AGV</text><rect fill="#E2E2F0" height="31.6094" rx="2.5" ry="2.5" style="stroke:#181818;stroke-width:0.5;" width="47" x="270" y="755.9922"/><text fill="#000000" font-family="sans-serif" font-size="14" lengthAdjust="spacing" textLength="33" x="277" y="777.5254">:AGV</text><rect fill="#E2E2F0" height="31.6094" rx="2.5" ry="2.5" style="stroke:#181818;stroke-width:0.5;" width="161" x="327" y="50"/><text fill="#000000" font-family="sans-serif" font-size="14" lengthAdjust="spacing" textLength="147" x="334" y="71.5332">:OrderAGVAssigmentUI</text><rect fill="#E2E2F0" height="31.6094" rx="2.5" ry="2.5" style="stroke:#181818;stroke-width:0.5;" width="161" x="327" y="755.9922"/><text fill="#000000" font-family="sans-serif" font-size="14" lengthAdjust="spacing" textLength="147" x="334" y="777.5254">:OrderAGVAssigmentUI</text><rect fill="#E2E2F0" height="31.6094" rx="2.5" ry="2.5" style="stroke:#181818;stroke-width:0.5;" width="211" x="590" y="50"/><text fill="#000000" font-family="sans-serif" font-size="14" lengthAdjust="spacing" textLength="197" x="597" y="71.5332">:OrderAGVAssigmentController</text><rect fill="#E2E2F0" height="31.6094" rx="2.5" ry="2.5" style="stroke:#181818;stroke-width:0.5;" width="211" x="590" y="755.9922"/><text fill="#000000" font-family="sans-serif" font-size="14" lengthAdjust="spacing" textLength="197" x="597" y="777.5254">:OrderAGVAssigmentController</text><rect fill="#E2E2F0" height="31.6094" rx="2.5" ry="2.5" style="stroke:#181818;stroke-width:0.5;" width="115" x="827" y="50"/><text fill="#000000" font-family="sans-serif" font-size="14" lengthAdjust="spacing" textLength="101" x="834" y="71.5332">:AGVRepository</text><rect fill="#E2E2F0" height="31.6094" rx="2.5" ry="2.5" style="stroke:#181818;stroke-width:0.5;" width="115" x="827" y="755.9922"/><text fill="#000000" font-family="sans-serif" font-size="14" lengthAdjust="spacing" textLength="101" x="834" y="777.5254">:AGVRepository</text><rect fill="#FFFFFF" height="655.3828" style="stroke:#181818;stroke-width:1.0;" width="10" x="60.5" y="92.6094"/><rect fill="#FFFFFF" height="633.0313" style="stroke:#181818;stroke-width:1.0;" width="10" x="402.5" y="114.9609"/><polygon fill="#181818" points="281.5,110.9609,291.5,114.9609,281.5,118.9609,285.5,114.9609" style="stroke:#181818;stroke-width:1.0;"/><line style="stroke:#181818;stroke-width:1.0;" x1="70.5" x2="287.5" y1="114.9609" y2="114.9609"/><text fill="#000000" font-family="sans-serif" font-size="13" font-weight="bold" lengthAdjust="spacing" textLength="7" x="77.5" y="110.1045">1</text><text fill="#000000" font-family="sans-serif" font-size="13" lengthAdjust="spacing" textLength="188" x="88.5" y="110.1045">Request to order one task to agv</text><polygon fill="#181818" points="390.5,141.3125,400.5,145.3125,390.5,149.3125,394.5,145.3125" style="stroke:#181818;stroke-width:1.0;"/><line style="stroke:#181818;stroke-width:1.0;" x1="293.5" x2="396.5" y1="145.3125" y2="145.3125"/><text fill="#000000" font-family="sans-serif" font-size="13" font-weight="bold" lengthAdjust="spacing" textLength="7" x="300.5" y="140.4561">2</text><text fill="#000000" font-family="sans-serif" font-size="13" lengthAdjust="spacing" textLength="54" x="311.5" y="140.4561">doShow()</text><polygon fill="#181818" points="81.5,171.6641,71.5,175.6641,81.5,179.6641,77.5,175.6641" style="stroke:#181818;stroke-width:1.0;"/><line style="stroke:#181818;stroke-width:1.0;stroke-dasharray:2.0,2.0;" x1="75.5" x2="401.5" y1="175.6641" y2="175.6641"/><text fill="#000000" font-family="sans-serif" font-size="13" font-weight="bold" lengthAdjust="spacing" textLength="7" x="87.5" y="170.8076">3</text><text fill="#000000" font-family="sans-serif" font-size="13" lengthAdjust="spacing" textLength="83" x="98.5" y="170.8076">show all tasks</text><polygon fill="#181818" points="390.5,202.0156,400.5,206.0156,390.5,210.0156,394.5,206.0156" style="stroke:#181818;stroke-width:1.0;"/><line style="stroke:#181818;stroke-width:1.0;" x1="70.5" x2="396.5" y1="206.0156" y2="206.0156"/><text fill="#000000" font-family="sans-serif" font-size="13" font-weight="bold" lengthAdjust="spacing" textLength="7" x="77.5" y="201.1592">4</text><text fill="#000000" font-family="sans-serif" font-size="13" lengthAdjust="spacing" textLength="83" x="88.5" y="201.1592">enter one task</text><line style="stroke:#181818;stroke-width:1.0;" x1="695.5" x2="737.5" y1="236.3672" y2="236.3672"/><line style="stroke:#181818;stroke-width:1.0;" x1="737.5" x2="737.5" y1="236.3672" y2="249.3672"/><line style="stroke:#181818;stroke-width:1.0;" x1="696.5" x2="737.5" y1="249.3672" y2="249.3672"/><polygon fill="#181818" points="706.5,245.3672,696.5,249.3672,706.5,253.3672,702.5,249.3672" style="stroke:#181818;stroke-width:1.0;"/><text fill="#000000" font-family="sans-serif" font-size="13" font-weight="bold" lengthAdjust="spacing" textLength="7" x="702.5" y="231.5107">5</text><text fill="#000000" font-family="sans-serif" font-size="13" lengthAdjust="spacing" textLength="164" x="713.5" y="231.5107">existsOrderId(String answer)</text><polygon fill="#181818" points="683.5,275.7188,693.5,279.7188,683.5,283.7188,687.5,279.7188" style="stroke:#181818;stroke-width:1.0;"/><line style="stroke:#181818;stroke-width:1.0;" x1="412.5" x2="689.5" y1="279.7188" y2="279.7188"/><text fill="#000000" font-family="sans-serif" font-size="13" font-weight="bold" lengthAdjust="spacing" textLength="7" x="419.5" y="274.8623">6</text><text fill="#000000" font-family="sans-serif" font-size="13" lengthAdjust="spacing" textLength="57" x="430.5" y="274.8623">noTasks()</text><polygon fill="#181818" points="81.5,306.0703,71.5,310.0703,81.5,314.0703,77.5,310.0703" style="stroke:#181818;stroke-width:1.0;"/><line style="stroke:#181818;stroke-width:1.0;stroke-dasharray:2.0,2.0;" x1="75.5" x2="883.5" y1="310.0703" y2="310.0703"/><text fill="#000000" font-family="sans-serif" font-size="13" font-weight="bold" lengthAdjust="spacing" textLength="7" x="87.5" y="305.2139">7</text><text fill="#000000" font-family="sans-serif" font-size="13" lengthAdjust="spacing" textLength="130" x="98.5" y="305.2139">show all agvs available</text><path d="M10,325.0703 L83,325.0703 L83,333.4219 L73,343.4219 L10,343.4219 L10,325.0703 " fill="#EEEEEE" style="stroke:#000000;stroke-width:1.5;"/><rect fill="none" height="109.4063" style="stroke:#000000;stroke-width:1.5;" width="801" x="10" y="325.0703"/><text fill="#000000" font-family="sans-serif" font-size="13" font-weight="bold" lengthAdjust="spacing" textLength="28" x="25" y="339.5654">loop</text><text fill="#000000" font-family="sans-serif" font-size="11" font-weight="bold" lengthAdjust="spacing" textLength="344" x="98" y="338.4893">[while user want to add more tasks or don´t have more tasks]</text><polygon fill="#181818" points="390.5,361.7734,400.5,365.7734,390.5,369.7734,394.5,365.7734" style="stroke:#181818;stroke-width:1.0;"/><line style="stroke:#181818;stroke-width:1.0;" x1="70.5" x2="396.5" y1="365.7734" y2="365.7734"/><text fill="#000000" font-family="sans-serif" font-size="13" font-weight="bold" lengthAdjust="spacing" textLength="7" x="77.5" y="360.917">8</text><text fill="#000000" font-family="sans-serif" font-size="13" lengthAdjust="spacing" textLength="170" x="88.5" y="360.917">enter one agv and emergency</text><polygon fill="#181818" points="683.5,392.125,693.5,396.125,683.5,400.125,687.5,396.125" style="stroke:#181818;stroke-width:1.0;"/><line style="stroke:#181818;stroke-width:1.0;" x1="412.5" x2="689.5" y1="396.125" y2="396.125"/><text fill="#000000" font-family="sans-serif" font-size="13" font-weight="bold" lengthAdjust="spacing" textLength="7" x="419.5" y="391.2686">9</text><text fill="#000000" font-family="sans-serif" font-size="13" lengthAdjust="spacing" textLength="185" x="430.5" y="391.2686">assigntasktoaagv(String orderid)</text><polygon fill="#181818" points="683.5,422.4766,693.5,426.4766,683.5,430.4766,687.5,426.4766" style="stroke:#181818;stroke-width:1.0;"/><line style="stroke:#181818;stroke-width:1.0;" x1="412.5" x2="689.5" y1="426.4766" y2="426.4766"/><text fill="#000000" font-family="sans-serif" font-size="13" font-weight="bold" lengthAdjust="spacing" textLength="14" x="419.5" y="421.6201">10</text><text fill="#000000" font-family="sans-serif" font-size="13" lengthAdjust="spacing" textLength="241" x="437.5" y="421.6201">assigntaskimmediatlytoagv(String orderid)</text><path d="M10,448.4766 L83,448.4766 L83,456.8281 L73,466.8281 L10,466.8281 L10,448.4766 " fill="#EEEEEE" style="stroke:#000000;stroke-width:1.5;"/><rect fill="none" height="109.4063" style="stroke:#000000;stroke-width:1.5;" width="801" x="10" y="448.4766"/><text fill="#000000" font-family="sans-serif" font-size="13" font-weight="bold" lengthAdjust="spacing" textLength="28" x="25" y="462.9717">loop</text><text fill="#000000" font-family="sans-serif" font-size="11" font-weight="bold" lengthAdjust="spacing" textLength="313" x="98" y="461.8955">[while user want remove task or don´t have more tasks]</text><polygon fill="#181818" points="390.5,485.1797,400.5,489.1797,390.5,493.1797,394.5,489.1797" style="stroke:#181818;stroke-width:1.0;"/><line style="stroke:#181818;stroke-width:1.0;" x1="70.5" x2="396.5" y1="489.1797" y2="489.1797"/><text fill="#000000" font-family="sans-serif" font-size="13" font-weight="bold" lengthAdjust="spacing" textLength="14" x="77.5" y="484.3232">11</text><text fill="#000000" font-family="sans-serif" font-size="13" lengthAdjust="spacing" textLength="175" x="95.5" y="484.3232">enter task that want to remove</text><polygon fill="#181818" points="683.5,515.5313,693.5,519.5313,683.5,523.5313,687.5,519.5313" style="stroke:#181818;stroke-width:1.0;"/><line style="stroke:#181818;stroke-width:1.0;" x1="412.5" x2="689.5" y1="519.5313" y2="519.5313"/><text fill="#000000" font-family="sans-serif" font-size="13" font-weight="bold" lengthAdjust="spacing" textLength="14" x="419.5" y="514.6748">12</text><text fill="#000000" font-family="sans-serif" font-size="13" lengthAdjust="spacing" textLength="77" x="437.5" y="514.6748">removeTask()</text><polygon fill="#181818" points="81.5,545.8828,71.5,549.8828,81.5,553.8828,77.5,549.8828" style="stroke:#181818;stroke-width:1.0;"/><line style="stroke:#181818;stroke-width:1.0;stroke-dasharray:2.0,2.0;" x1="75.5" x2="694.5" y1="549.8828" y2="549.8828"/><text fill="#000000" font-family="sans-serif" font-size="13" font-weight="bold" lengthAdjust="spacing" textLength="14" x="87.5" y="545.0264">13</text><text fill="#000000" font-family="sans-serif" font-size="13" lengthAdjust="spacing" textLength="156" x="105.5" y="545.0264">Task successfully removed</text><polygon fill="#181818" points="390.5,583.2344,400.5,587.2344,390.5,591.2344,394.5,587.2344" style="stroke:#181818;stroke-width:1.0;"/><line style="stroke:#181818;stroke-width:1.0;" x1="70.5" x2="396.5" y1="587.2344" y2="587.2344"/><text fill="#000000" font-family="sans-serif" font-size="13" font-weight="bold" lengthAdjust="spacing" textLength="14" x="77.5" y="582.3779">14</text><text fill="#000000" font-family="sans-serif" font-size="13" lengthAdjust="spacing" textLength="220" x="95.5" y="582.3779">Want to see how many tasks we have</text><polygon fill="#181818" points="683.5,613.5859,693.5,617.5859,683.5,621.5859,687.5,617.5859" style="stroke:#181818;stroke-width:1.0;"/><line style="stroke:#181818;stroke-width:1.0;" x1="412.5" x2="689.5" y1="617.5859" y2="617.5859"/><text fill="#000000" font-family="sans-serif" font-size="13" font-weight="bold" lengthAdjust="spacing" textLength="14" x="419.5" y="612.7295">15</text><text fill="#000000" font-family="sans-serif" font-size="13" lengthAdjust="spacing" textLength="66" x="437.5" y="612.7295">SizeOrder()</text><polygon fill="#181818" points="81.5,643.9375,71.5,647.9375,81.5,651.9375,77.5,647.9375" style="stroke:#181818;stroke-width:1.0;"/><line style="stroke:#181818;stroke-width:1.0;stroke-dasharray:2.0,2.0;" x1="75.5" x2="694.5" y1="647.9375" y2="647.9375"/><text fill="#000000" font-family="sans-serif" font-size="13" font-weight="bold" lengthAdjust="spacing" textLength="14" x="87.5" y="643.0811">16</text><text fill="#000000" font-family="sans-serif" font-size="13" lengthAdjust="spacing" textLength="93" x="105.5" y="643.0811">number of tasks</text><polygon fill="#181818" points="390.5,674.2891,400.5,678.2891,390.5,682.2891,394.5,678.2891" style="stroke:#181818;stroke-width:1.0;"/><line style="stroke:#181818;stroke-width:1.0;" x1="70.5" x2="396.5" y1="678.2891" y2="678.2891"/><text fill="#000000" font-family="sans-serif" font-size="13" font-weight="bold" lengthAdjust="spacing" textLength="14" x="77.5" y="673.4326">17</text><text fill="#000000" font-family="sans-serif" font-size="13" lengthAdjust="spacing" textLength="154" x="95.5" y="673.4326">Wanto to see the first task</text><polygon fill="#181818" points="683.5,704.6406,693.5,708.6406,683.5,712.6406,687.5,708.6406" style="stroke:#181818;stroke-width:1.0;"/><line style="stroke:#181818;stroke-width:1.0;" x1="412.5" x2="689.5" y1="708.6406" y2="708.6406"/><text fill="#000000" font-family="sans-serif" font-size="13" font-weight="bold" lengthAdjust="spacing" textLength="14" x="419.5" y="703.7842">18</text><text fill="#000000" font-family="sans-serif" font-size="13" lengthAdjust="spacing" textLength="86" x="437.5" y="703.7842">HeadofQueue()</text><polygon fill="#181818" points="81.5,734.9922,71.5,738.9922,81.5,742.9922,77.5,738.9922" style="stroke:#181818;stroke-width:1.0;"/><line style="stroke:#181818;stroke-width:1.0;stroke-dasharray:2.0,2.0;" x1="75.5" x2="694.5" y1="738.9922" y2="738.9922"/><text fill="#000000" font-family="sans-serif" font-size="13" font-weight="bold" lengthAdjust="spacing" textLength="14" x="87.5" y="734.1357">19</text><text fill="#000000" font-family="sans-serif" font-size="13" lengthAdjust="spacing" textLength="58" x="105.5" y="734.1357">First Task</text><!--MD5=[2bb3a3a30c3a415194e3fb3babab7e6f]
@startuml
'https://plantuml.com/sequence-diagram

autonumber
actor AGVManager as Admin

participant ":AGV" as AGV
participant ":OrderAGVAssigmentUI" as UI
participant ":OrderAGVAssigmentController" as Controller
participant ":AGVRepository" as Repository
 activate Admin
Admin->AGV: Request to order one task to agv
activate UI
AGV->UI: doShow()
UI- ->Admin: show all tasks
Admin->UI: enter one task
Controller->Controller: existsOrderId(String answer)
UI->Controller: noTasks()
Repository- ->Admin: show all agvs available
loop while user want to add more tasks or don´t have more tasks
Admin->UI: enter one agv and emergency
UI->Controller: assigntasktoaagv(String orderid)
UI->Controller: assigntaskimmediatlytoagv(String orderid)
end

loop while user want remove task or don´t have more tasks
Admin->UI: enter task that want to remove
UI->Controller: removeTask()
Controller- ->Admin: Task successfully removed
end

Admin->UI: Want to see how many tasks we have
UI->Controller: SizeOrder()
Controller- ->Admin: number of tasks

Admin->UI: Wanto to see the first task
UI->Controller: HeadofQueue()
Controller- ->Admin: First Task
@enduml

@startuml

autonumber
actor AGVManager as Admin

participant ":AGV" as AGV
participant ":OrderAGVAssigmentUI" as UI
participant ":OrderAGVAssigmentController" as Controller
participant ":AGVRepository" as Repository
 activate Admin
Admin->AGV: Request to order one task to agv
activate UI
AGV->UI: doShow()
UI- ->Admin: show all tasks
Admin->UI: enter one task
Controller->Controller: existsOrderId(String answer)
UI->Controller: noTasks()
Repository- ->Admin: show all agvs available
loop while user want to add more tasks or don´t have more tasks
Admin->UI: enter one agv and emergency
UI->Controller: assigntasktoaagv(String orderid)
UI->Controller: assigntaskimmediatlytoagv(String orderid)
end

loop while user want remove task or don´t have more tasks
Admin->UI: enter task that want to remove
UI->Controller: removeTask()
Controller- ->Admin: Task successfully removed
end

Admin->UI: Want to see how many tasks we have
UI->Controller: SizeOrder()
Controller- ->Admin: number of tasks

Admin->UI: Wanto to see the first task
UI->Controller: HeadofQueue()
Controller- ->Admin: First Task
@enduml

PlantUML version 1.2022.4(Sat Apr 09 14:29:17 BST 2022)
(GPL source distribution)
Java Runtime: OpenJDK Runtime Environment
JVM: OpenJDK 64-Bit Server VM
Default Encoding: Cp1252
Language: pt
Country: PT
--></g></svg>