<?xml version="1.0" encoding="UTF-8" standalone="no"?><svg xmlns="http://www.w3.org/2000/svg" xmlns:xlink="http://www.w3.org/1999/xlink" contentStyleType="text/css" height="969px" preserveAspectRatio="none" style="width:516px;height:969px;background:#FFFFFF;" version="1.1" viewBox="0 0 516 969" width="516px" zoomAndPan="magnify"><defs/><g><!--MD5=[53b2c06ade5903185ca3326dce80e141]
class AGV--><g id="elem_AGV"><rect codeLine="11" fill="#F1F1F1" height="312.1406" id="AGV" rx="2.5" ry="2.5" style="stroke:#181818;stroke-width:0.5;" width="182" x="145" y="7"/><ellipse cx="217.25" cy="23" fill="#ADD1B2" rx="11" ry="11" style="stroke:#181818;stroke-width:1.0;"/><path d="M219.25,19.5 Q219.4531,19 219.6875,18.75 Q219.9219,18.5 220.1875,18.5 Q220.6563,18.5 220.9531,18.7813 Q221.25,19.0625 221.25,19.7188 L221.25,21.2813 Q221.25,21.9375 220.9688,22.2188 Q220.6875,22.5 220.25,22.5 Q219.8594,22.5 219.6094,22.3281 Q219.3594,22.1563 219.25,21.7031 Q219.2031,21.3906 219.0313,21.2188 Q218.7188,20.8906 218.1563,20.7031 Q217.5938,20.5 217.0313,20.5 Q216.3281,20.5 215.7344,20.7813 Q215.1563,21.0625 214.7031,21.6875 Q214.25,22.3125 214.25,23.1719 L214.25,24.0938 Q214.25,25.125 215.0938,25.8125 Q215.9375,26.5 217.4375,26.5 Q218.3281,26.5 218.9531,26.2969 Q219.3125,26.1875 219.7188,25.8281 Q219.9844,25.625 220.125,25.5625 Q220.2656,25.5 220.4375,25.5 Q220.7656,25.5 221,25.7656 Q221.25,26.0156 221.25,26.375 Q221.25,26.7188 220.9063,27.125 Q220.4063,27.7188 219.6094,28.0469 Q218.5625,28.5 217.2813,28.5 Q215.7813,28.5 214.5781,27.9063 Q213.6094,27.4375 212.9219,26.4219 Q212.25,25.4063 212.25,24.2031 L212.25,23.1094 Q212.25,21.8594 212.8438,20.7656 Q213.4531,19.6719 214.5,19.0938 Q215.5625,18.5 216.75,18.5 Q217.4688,18.5 218.0938,18.75 Q218.7188,19 219.25,19.5 Z " fill="#000000"/><text fill="#000000" font-family="sans-serif" font-size="14" lengthAdjust="spacing" textLength="29" x="237.75" y="28.7285">AGV</text><line style="stroke:#181818;stroke-width:0.5;" x1="146" x2="326" y1="39" y2="39"/><line style="stroke:#181818;stroke-width:0.5;" x1="146" x2="326" y1="47" y2="47"/><ellipse cx="156" cy="58" fill="#84BE84" rx="3" ry="3" style="stroke:#038048;stroke-width:1.0;"/><text fill="#000000" font-family="sans-serif" font-size="14" lengthAdjust="spacing" textLength="70" x="165" y="65.5332">getStatus()</text><ellipse cx="156" cy="75.6094" fill="#84BE84" rx="3" ry="3" style="stroke:#038048;stroke-width:1.0;"/><text fill="#000000" font-family="sans-serif" font-size="14" lengthAdjust="spacing" textLength="103" x="165" y="83.1426">numberoftasks()</text><ellipse cx="156" cy="93.2188" fill="#84BE84" rx="3" ry="3" style="stroke:#038048;stroke-width:1.0;"/><text fill="#000000" font-family="sans-serif" font-size="14" lengthAdjust="spacing" textLength="86" x="165" y="100.752">getagvtasks()</text><ellipse cx="156" cy="110.8281" fill="#84BE84" rx="3" ry="3" style="stroke:#038048;stroke-width:1.0;"/><text fill="#000000" font-family="sans-serif" font-size="14" lengthAdjust="spacing" textLength="156" x="165" y="118.3613">hasOrder(String orderid)</text><ellipse cx="156" cy="128.4375" fill="#84BE84" rx="3" ry="3" style="stroke:#038048;stroke-width:1.0;"/><text fill="#000000" font-family="sans-serif" font-size="14" lengthAdjust="spacing" textLength="70" x="165" y="135.9707">setId(int id)</text><ellipse cx="156" cy="146.0469" fill="#84BE84" rx="3" ry="3" style="stroke:#038048;stroke-width:1.0;"/><text fill="#000000" font-family="sans-serif" font-size="14" lengthAdjust="spacing" textLength="41" x="165" y="153.5801">getId()</text><ellipse cx="156" cy="163.6563" fill="#84BE84" rx="3" ry="3" style="stroke:#038048;stroke-width:1.0;"/><text fill="#000000" font-family="sans-serif" font-size="14" lengthAdjust="spacing" textLength="132" x="165" y="171.1895">addTask(String task)</text><ellipse cx="156" cy="181.2656" fill="#84BE84" rx="3" ry="3" style="stroke:#038048;stroke-width:1.0;"/><text fill="#000000" font-family="sans-serif" font-size="14" lengthAdjust="spacing" textLength="155" x="165" y="188.7988">removeTask(String task)</text><ellipse cx="156" cy="198.875" fill="#84BE84" rx="3" ry="3" style="stroke:#038048;stroke-width:1.0;"/><text fill="#000000" font-family="sans-serif" font-size="14" lengthAdjust="spacing" textLength="84" x="165" y="206.4082">getLocation()</text><ellipse cx="156" cy="216.4844" fill="#84BE84" rx="3" ry="3" style="stroke:#038048;stroke-width:1.0;"/><text fill="#000000" font-family="sans-serif" font-size="14" lengthAdjust="spacing" textLength="68" x="165" y="224.0176">getModel()</text><ellipse cx="156" cy="234.0938" fill="#84BE84" rx="3" ry="3" style="stroke:#038048;stroke-width:1.0;"/><text fill="#000000" font-family="sans-serif" font-size="14" lengthAdjust="spacing" textLength="147" x="165" y="241.627">setModel(Model model)</text><ellipse cx="156" cy="251.7031" fill="#84BE84" rx="3" ry="3" style="stroke:#038048;stroke-width:1.0;"/><text fill="#000000" font-family="sans-serif" font-size="14" lengthAdjust="spacing" textLength="151" x="165" y="259.2363">setStatus(Status status)</text><ellipse cx="156" cy="269.3125" fill="#84BE84" rx="3" ry="3" style="stroke:#038048;stroke-width:1.0;"/><text fill="#000000" font-family="sans-serif" font-size="14" lengthAdjust="spacing" textLength="135" x="165" y="276.8457">getShortDescription()</text><ellipse cx="156" cy="286.9219" fill="#84BE84" rx="3" ry="3" style="stroke:#038048;stroke-width:1.0;"/><text fill="#000000" font-family="sans-serif" font-size="14" lengthAdjust="spacing" textLength="138" x="165" y="294.4551">sameAs(Object other)</text><ellipse cx="156" cy="304.5313" fill="#84BE84" rx="3" ry="3" style="stroke:#038048;stroke-width:1.0;"/><text fill="#000000" font-family="sans-serif" font-size="14" lengthAdjust="spacing" textLength="59" x="165" y="312.0645">toString()</text></g><!--MD5=[82c211e66f59120dcbb4843612e77790]
class OrderAGVAssignmentUI--><g id="elem_OrderAGVAssignmentUI"><rect codeLine="44" fill="#F1F1F1" height="100.8281" id="OrderAGVAssignmentUI" rx="2.5" ry="2.5" style="stroke:#181818;stroke-width:0.5;" width="183" x="144.5" y="379"/><ellipse cx="159.5" cy="395" fill="#ADD1B2" rx="11" ry="11" style="stroke:#181818;stroke-width:1.0;"/><path d="M161.5,391.5 Q161.7031,391 161.9375,390.75 Q162.1719,390.5 162.4375,390.5 Q162.9063,390.5 163.2031,390.7813 Q163.5,391.0625 163.5,391.7188 L163.5,393.2813 Q163.5,393.9375 163.2188,394.2188 Q162.9375,394.5 162.5,394.5 Q162.1094,394.5 161.8594,394.3281 Q161.6094,394.1563 161.5,393.7031 Q161.4531,393.3906 161.2813,393.2188 Q160.9688,392.8906 160.4063,392.7031 Q159.8438,392.5 159.2813,392.5 Q158.5781,392.5 157.9844,392.7813 Q157.4063,393.0625 156.9531,393.6875 Q156.5,394.3125 156.5,395.1719 L156.5,396.0938 Q156.5,397.125 157.3438,397.8125 Q158.1875,398.5 159.6875,398.5 Q160.5781,398.5 161.2031,398.2969 Q161.5625,398.1875 161.9688,397.8281 Q162.2344,397.625 162.375,397.5625 Q162.5156,397.5 162.6875,397.5 Q163.0156,397.5 163.25,397.7656 Q163.5,398.0156 163.5,398.375 Q163.5,398.7188 163.1563,399.125 Q162.6563,399.7188 161.8594,400.0469 Q160.8125,400.5 159.5313,400.5 Q158.0313,400.5 156.8281,399.9063 Q155.8594,399.4375 155.1719,398.4219 Q154.5,397.4063 154.5,396.2031 L154.5,395.1094 Q154.5,393.8594 155.0938,392.7656 Q155.7031,391.6719 156.75,391.0938 Q157.8125,390.5 159,390.5 Q159.7188,390.5 160.3438,390.75 Q160.9688,391 161.5,391.5 Z " fill="#000000"/><text fill="#000000" font-family="sans-serif" font-size="14" lengthAdjust="spacing" textLength="151" x="173.5" y="400.7285">OrderAGVAssignmentUI</text><line style="stroke:#181818;stroke-width:0.5;" x1="145.5" x2="326.5" y1="411" y2="411"/><line style="stroke:#181818;stroke-width:0.5;" x1="145.5" x2="326.5" y1="419" y2="419"/><ellipse cx="155.5" cy="430" fill="#84BE84" rx="3" ry="3" style="stroke:#038048;stroke-width:1.0;"/><text fill="#000000" font-family="sans-serif" font-size="14" lengthAdjust="spacing" textLength="60" x="164.5" y="437.5332">doShow()</text><ellipse cx="155.5" cy="447.6094" fill="#84BE84" rx="3" ry="3" style="stroke:#038048;stroke-width:1.0;"/><text fill="#000000" font-family="sans-serif" font-size="14" lengthAdjust="spacing" textLength="156" x="164.5" y="455.1426">validateId(String orderId)</text><ellipse cx="155.5" cy="465.2188" fill="#84BE84" rx="3" ry="3" style="stroke:#038048;stroke-width:1.0;"/><text fill="#000000" font-family="sans-serif" font-size="14" lengthAdjust="spacing" textLength="64" x="164.5" y="472.752">headline()</text></g><!--MD5=[071efb2c81f2449c46dc9b21b0209cb0]
class OrderAGVAssignmentController--><g id="elem_OrderAGVAssignmentController"><rect codeLine="30" fill="#F1F1F1" height="171.2656" id="OrderAGVAssignmentController" rx="2.5" ry="2.5" style="stroke:#181818;stroke-width:0.5;" width="290" x="91" y="540"/><ellipse cx="131.65" cy="556" fill="#ADD1B2" rx="11" ry="11" style="stroke:#181818;stroke-width:1.0;"/><path d="M133.65,552.5 Q133.8531,552 134.0875,551.75 Q134.3219,551.5 134.5875,551.5 Q135.0563,551.5 135.3531,551.7813 Q135.65,552.0625 135.65,552.7188 L135.65,554.2813 Q135.65,554.9375 135.3688,555.2188 Q135.0875,555.5 134.65,555.5 Q134.2594,555.5 134.0094,555.3281 Q133.7594,555.1563 133.65,554.7031 Q133.6031,554.3906 133.4313,554.2188 Q133.1188,553.8906 132.5563,553.7031 Q131.9938,553.5 131.4313,553.5 Q130.7281,553.5 130.1344,553.7813 Q129.5563,554.0625 129.1031,554.6875 Q128.65,555.3125 128.65,556.1719 L128.65,557.0938 Q128.65,558.125 129.4938,558.8125 Q130.3375,559.5 131.8375,559.5 Q132.7281,559.5 133.3531,559.2969 Q133.7125,559.1875 134.1188,558.8281 Q134.3844,558.625 134.525,558.5625 Q134.6656,558.5 134.8375,558.5 Q135.1656,558.5 135.4,558.7656 Q135.65,559.0156 135.65,559.375 Q135.65,559.7188 135.3063,560.125 Q134.8063,560.7188 134.0094,561.0469 Q132.9625,561.5 131.6813,561.5 Q130.1813,561.5 128.9781,560.9063 Q128.0094,560.4375 127.3219,559.4219 Q126.65,558.4063 126.65,557.2031 L126.65,556.1094 Q126.65,554.8594 127.2438,553.7656 Q127.8531,552.6719 128.9,552.0938 Q129.9625,551.5 131.15,551.5 Q131.8688,551.5 132.4938,551.75 Q133.1188,552 133.65,552.5 Z " fill="#000000"/><text fill="#000000" font-family="sans-serif" font-size="14" lengthAdjust="spacing" textLength="201" x="151.35" y="561.7285">OrderAGVAssignmentController</text><line style="stroke:#181818;stroke-width:0.5;" x1="92" x2="380" y1="572" y2="572"/><line style="stroke:#181818;stroke-width:0.5;" x1="92" x2="380" y1="580" y2="580"/><ellipse cx="102" cy="591" fill="#84BE84" rx="3" ry="3" style="stroke:#038048;stroke-width:1.0;"/><text fill="#000000" font-family="sans-serif" font-size="14" lengthAdjust="spacing" textLength="191" x="111" y="598.5332">validateAnswer(String answer)</text><ellipse cx="102" cy="608.6094" fill="#84BE84" rx="3" ry="3" style="stroke:#038048;stroke-width:1.0;"/><text fill="#000000" font-family="sans-serif" font-size="14" lengthAdjust="spacing" textLength="148" x="111" y="616.1426">isValidId(String answer)</text><ellipse cx="102" cy="626.2188" fill="#84BE84" rx="3" ry="3" style="stroke:#038048;stroke-width:1.0;"/><text fill="#000000" font-family="sans-serif" font-size="14" lengthAdjust="spacing" textLength="179" x="111" y="633.752">existsOrderId(String answer)</text><ellipse cx="102" cy="643.8281" fill="#84BE84" rx="3" ry="3" style="stroke:#038048;stroke-width:1.0;"/><text fill="#000000" font-family="sans-serif" font-size="14" lengthAdjust="spacing" textLength="59" x="111" y="651.3613">notasks()</text><ellipse cx="102" cy="661.4375" fill="#84BE84" rx="3" ry="3" style="stroke:#038048;stroke-width:1.0;"/><text fill="#000000" font-family="sans-serif" font-size="14" lengthAdjust="spacing" textLength="206" x="111" y="668.9707">assigntasktoaagv(String orderid)</text><ellipse cx="102" cy="679.0469" fill="#84BE84" rx="3" ry="3" style="stroke:#038048;stroke-width:1.0;"/><text fill="#000000" font-family="sans-serif" font-size="14" lengthAdjust="spacing" textLength="264" x="111" y="686.5801">assigntaskimmediatlytoagv(String orderid)</text><ellipse cx="102" cy="696.6563" fill="#84BE84" rx="3" ry="3" style="stroke:#038048;stroke-width:1.0;"/><text fill="#000000" font-family="sans-serif" font-size="14" lengthAdjust="spacing" textLength="115" x="111" y="704.1895">agvwithlesstasks()</text></g><!--MD5=[a2934c79e3adc781b0cd87c74812aba5]
class AGVRepository--><g id="elem_AGVRepository"><rect codeLine="40" fill="#F1F1F1" height="65.6094" id="AGVRepository" rx="2.5" ry="2.5" style="stroke:#181818;stroke-width:0.5;" width="129" x="171.5" y="771"/><ellipse cx="186.5" cy="787" fill="#B4A7E5" rx="11" ry="11" style="stroke:#181818;stroke-width:1.0;"/><path d="M187.5,784 L187.5,790 L189.5,790 L189.9844,790 L190.5,790.625 L190.5,791 L190.5,791.375 L189.9844,792 L189.5,792 L183.5,792 L183.0156,792 L182.5,791.375 L182.5,791 L182.5,790.625 L183.0156,790 L183.5,790 L185.5,790 L185.5,784 L183.5,784 L183.0156,784 L182.5,783.375 L182.5,783 L182.5,782.625 L183.0156,782 L183.5,782 L189.5,782 L189.9844,782 L190.5,782.625 L190.5,783 L190.5,783.375 L189.9844,784 L189.5,784 L187.5,784 Z " fill="#000000"/><text fill="#000000" font-family="sans-serif" font-size="14" font-style="italic" lengthAdjust="spacing" textLength="97" x="200.5" y="792.7285">AGVRepository</text><line style="stroke:#181818;stroke-width:0.5;" x1="172.5" x2="299.5" y1="803" y2="803"/><line style="stroke:#181818;stroke-width:0.5;" x1="172.5" x2="299.5" y1="811" y2="811"/><ellipse cx="182.5" cy="822" fill="#84BE84" rx="3" ry="3" style="stroke:#038048;stroke-width:1.0;"/><text fill="#000000" font-family="sans-serif" font-size="14" lengthAdjust="spacing" textLength="48" x="191.5" y="829.5332">findAll()</text></g><!--MD5=[ef5ca6c486fbe5bafb60c27f722f9ed1]
class InMemoryAGVRepository--><g id="elem_InMemoryAGVRepository"><rect codeLine="54" fill="#F1F1F1" height="65.6094" id="InMemoryAGVRepository" rx="2.5" ry="2.5" style="stroke:#181818;stroke-width:0.5;" width="190" x="7" y="897"/><ellipse cx="22" cy="913" fill="#ADD1B2" rx="11" ry="11" style="stroke:#181818;stroke-width:1.0;"/><path d="M24,909.5 Q24.2031,909 24.4375,908.75 Q24.6719,908.5 24.9375,908.5 Q25.4063,908.5 25.7031,908.7813 Q26,909.0625 26,909.7188 L26,911.2813 Q26,911.9375 25.7188,912.2188 Q25.4375,912.5 25,912.5 Q24.6094,912.5 24.3594,912.3281 Q24.1094,912.1563 24,911.7031 Q23.9531,911.3906 23.7813,911.2188 Q23.4688,910.8906 22.9063,910.7031 Q22.3438,910.5 21.7813,910.5 Q21.0781,910.5 20.4844,910.7813 Q19.9063,911.0625 19.4531,911.6875 Q19,912.3125 19,913.1719 L19,914.0938 Q19,915.125 19.8438,915.8125 Q20.6875,916.5 22.1875,916.5 Q23.0781,916.5 23.7031,916.2969 Q24.0625,916.1875 24.4688,915.8281 Q24.7344,915.625 24.875,915.5625 Q25.0156,915.5 25.1875,915.5 Q25.5156,915.5 25.75,915.7656 Q26,916.0156 26,916.375 Q26,916.7188 25.6563,917.125 Q25.1563,917.7188 24.3594,918.0469 Q23.3125,918.5 22.0313,918.5 Q20.5313,918.5 19.3281,917.9063 Q18.3594,917.4375 17.6719,916.4219 Q17,915.4063 17,914.2031 L17,913.1094 Q17,911.8594 17.5938,910.7656 Q18.2031,909.6719 19.25,909.0938 Q20.3125,908.5 21.5,908.5 Q22.2188,908.5 22.8438,908.75 Q23.4688,909 24,909.5 Z " fill="#000000"/><text fill="#000000" font-family="sans-serif" font-size="14" lengthAdjust="spacing" textLength="158" x="36" y="918.7285">InMemoryAGVRepository</text><line style="stroke:#181818;stroke-width:0.5;" x1="8" x2="196" y1="929" y2="929"/><line style="stroke:#181818;stroke-width:0.5;" x1="8" x2="196" y1="937" y2="937"/><ellipse cx="18" cy="948" fill="#84BE84" rx="3" ry="3" style="stroke:#038048;stroke-width:1.0;"/><text fill="#000000" font-family="sans-serif" font-size="14" lengthAdjust="spacing" textLength="48" x="27" y="955.5332">findAll()</text></g><!--MD5=[42412ee73b3c2c3e8896847ed3bde20c]
class JpaAGVRepository--><g id="elem_JpaAGVRepository"><rect codeLine="50" fill="#F1F1F1" height="65.6094" id="JpaAGVRepository" rx="2.5" ry="2.5" style="stroke:#181818;stroke-width:0.5;" width="277" x="232.5" y="897"/><ellipse cx="307.25" cy="913" fill="#ADD1B2" rx="11" ry="11" style="stroke:#181818;stroke-width:1.0;"/><path d="M309.25,909.5 Q309.4531,909 309.6875,908.75 Q309.9219,908.5 310.1875,908.5 Q310.6563,908.5 310.9531,908.7813 Q311.25,909.0625 311.25,909.7188 L311.25,911.2813 Q311.25,911.9375 310.9688,912.2188 Q310.6875,912.5 310.25,912.5 Q309.8594,912.5 309.6094,912.3281 Q309.3594,912.1563 309.25,911.7031 Q309.2031,911.3906 309.0313,911.2188 Q308.7188,910.8906 308.1563,910.7031 Q307.5938,910.5 307.0313,910.5 Q306.3281,910.5 305.7344,910.7813 Q305.1563,911.0625 304.7031,911.6875 Q304.25,912.3125 304.25,913.1719 L304.25,914.0938 Q304.25,915.125 305.0938,915.8125 Q305.9375,916.5 307.4375,916.5 Q308.3281,916.5 308.9531,916.2969 Q309.3125,916.1875 309.7188,915.8281 Q309.9844,915.625 310.125,915.5625 Q310.2656,915.5 310.4375,915.5 Q310.7656,915.5 311,915.7656 Q311.25,916.0156 311.25,916.375 Q311.25,916.7188 310.9063,917.125 Q310.4063,917.7188 309.6094,918.0469 Q308.5625,918.5 307.2813,918.5 Q305.7813,918.5 304.5781,917.9063 Q303.6094,917.4375 302.9219,916.4219 Q302.25,915.4063 302.25,914.2031 L302.25,913.1094 Q302.25,911.8594 302.8438,910.7656 Q303.4531,909.6719 304.5,909.0938 Q305.5625,908.5 306.75,908.5 Q307.4688,908.5 308.0938,908.75 Q308.7188,909 309.25,909.5 Z " fill="#000000"/><text fill="#000000" font-family="sans-serif" font-size="14" lengthAdjust="spacing" textLength="119" x="327.75" y="918.7285">JpaAGVRepository</text><line style="stroke:#181818;stroke-width:0.5;" x1="233.5" x2="508.5" y1="929" y2="929"/><line style="stroke:#181818;stroke-width:0.5;" x1="233.5" x2="508.5" y1="937" y2="937"/><ellipse cx="243.5" cy="948" fill="#84BE84" rx="3" ry="3" style="stroke:#038048;stroke-width:1.0;"/><text fill="#000000" font-family="sans-serif" font-size="14" lengthAdjust="spacing" textLength="251" x="252.5" y="955.5332">JpaAGVRepository(final String puname)</text></g><!--MD5=[b032603c00e4d1e3924bc78dc4234c4d]
link AGV to OrderAGVAssignmentUI--><g id="link_AGV_OrderAGVAssignmentUI"><path codeLine="3" d="M236,319.01 C236,338.52 236,357.36 236,373.74 " fill="none" id="AGV-to-OrderAGVAssignmentUI" style="stroke:#181818;stroke-width:1.0;"/><polygon fill="#181818" points="236,378.75,240,369.75,236,373.75,232,369.75,236,378.75" style="stroke:#181818;stroke-width:1.0;"/></g><!--MD5=[1e39b3dc798598735ba1d4f785a091cc]
link OrderAGVAssignmentUI to OrderAGVAssignmentController--><g id="link_OrderAGVAssignmentUI_OrderAGVAssignmentController"><path codeLine="4" d="M236,480.21 C236,496.83 236,515.91 236,534.63 " fill="none" id="OrderAGVAssignmentUI-to-OrderAGVAssignmentController" style="stroke:#181818;stroke-width:1.0;"/><polygon fill="#181818" points="236,539.9,240,530.9,236,534.9,232,530.9,236,539.9" style="stroke:#181818;stroke-width:1.0;"/></g><!--MD5=[0890193416a00a038409a5a15c53db8a]
link OrderAGVAssignmentController to AGVRepository--><g id="link_OrderAGVAssignmentController_AGVRepository"><path codeLine="5" d="M236,711.13 C236,730.21 236,749.51 236,765.47 " fill="none" id="OrderAGVAssignmentController-to-AGVRepository" style="stroke:#181818;stroke-width:1.0;"/><polygon fill="#181818" points="236,770.74,240,761.74,236,765.74,232,761.74,236,770.74" style="stroke:#181818;stroke-width:1.0;"/></g><!--MD5=[936d37a10780a1209f7873cc13573c5b]
link AGVRepository to InMemoryAGVRepository--><g id="link_AGVRepository_InMemoryAGVRepository"><path codeLine="6" d="M201.14,837.26 C182.53,854.48 159.58,875.71 140.46,893.41 " fill="none" id="AGVRepository-to-InMemoryAGVRepository" style="stroke:#181818;stroke-width:1.0;"/><polygon fill="#181818" points="136.68,896.91,145.995,893.7115,140.3419,893.5056,140.5479,887.8524,136.68,896.91" style="stroke:#181818;stroke-width:1.0;"/></g><!--MD5=[a1098fa8a26c41203f6ad8c1388f4acc]
link AGVRepository to JpaAGVRepository--><g id="link_AGVRepository_JpaAGVRepository"><path codeLine="7" d="M271.12,837.26 C289.87,854.48 312.99,875.71 332.26,893.41 " fill="none" id="AGVRepository-to-JpaAGVRepository" style="stroke:#181818;stroke-width:1.0;"/><polygon fill="#181818" points="336.06,896.91,332.138,887.8757,332.3778,893.5275,326.726,893.7673,336.06,896.91" style="stroke:#181818;stroke-width:1.0;"/></g><!--MD5=[5bda1e74e2b020093dacc1d6b4b225c0]
@startuml


AGV - -> OrderAGVAssignmentUI
OrderAGVAssignmentUI - -> OrderAGVAssignmentController
OrderAGVAssignmentController - -> AGVRepository
AGVRepository - -> InMemoryAGVRepository
AGVRepository - -> JpaAGVRepository



class AGV{
 +getStatus()
 +numberoftasks()
 +getagvtasks()
 +hasOrder(String orderid)
 +setId(int id)
 +getId()
 +addTask(String task)
 +removeTask(String task)
 +getLocation()
 +getModel()
 +setModel(Model model)
 +setStatus(Status status)
 +getShortDescription()
 +sameAs(Object other)
 +toString()
 }


class OrderAGVAssignmentController{
 +validateAnswer(String answer)
 +isValidId(String answer)
 +existsOrderId(String answer)
 +notasks()
 +assigntasktoaagv(String orderid)
 +assigntaskimmediatlytoagv(String orderid)
 +agvwithlesstasks()
}

Interface AGVRepository{
 +findAll()
}

class OrderAGVAssignmentUI{
 +doShow()
 +validateId(String orderId)
 +headline()
}

class JpaAGVRepository{
 +JpaAGVRepository(final String puname)
}

class InMemoryAGVRepository{
    +findAll()
}

@enduml

PlantUML version 1.2022.4(Sat Apr 09 14:29:17 BST 2022)
(GPL source distribution)
Java Runtime: OpenJDK Runtime Environment
JVM: OpenJDK 64-Bit Server VM
Default Encoding: Cp1252
Language: pt
Country: PT
--></g></svg>