<svg xmlns="http://www.w3.org/2000/svg" xmlns:xlink="http://www.w3.org/1999/xlink" xmlns:lucid="lucid" width="8220" height="2740"><g transform="translate(-340 800)" lucid:page-tab-id="0_0"><path d="M0-1258.83h9098.33v3840.5H0z" fill="#fff"/><path d="M384-540c-13.25 0-24 10.75-24 24v72c0 13.25 10.75 24 24 24h627c13.25 0 24-10.75 24-24v-72c0-13.25-10.75-24-24-24z" stroke="#5e5e5e" stroke-width="3" fill="#fff"/><use xlink:href="#a" transform="matrix(1,0,0,1,368,-532) translate(57.03086419753089 60.888888888888886)"/><path d="M5044 1700c-24.3 0-44 19.7-44 44v132c0 24.3 19.7 44 44 44h892c24.3 0 44-19.7 44-44v-132c0-24.3-19.7-44-44-44z" stroke="#5e5e5e" stroke-width="3" fill="#fff"/><use xlink:href="#b" transform="matrix(1,0,0,1,5008,1708) translate(320.5185185185185 110.88888888888889)"/><path d="M5044-780c-24.3 0-44 19.7-44 44v132c0 24.3 19.7 44 44 44h892c24.3 0 44-19.7 44-44v-132c0-24.3-19.7-44-44-44z" stroke="#5e5e5e" stroke-width="3" fill="#fff"/><use xlink:href="#b" transform="matrix(1,0,0,1,5008,-772) translate(320.5185185185185 110.88888888888889)"/><path d="M7604-780c-24.3 0-44 19.7-44 44v132c0 24.3 19.7 44 44 44h892c24.3 0 44-19.7 44-44v-132c0-24.3-19.7-44-44-44z" stroke="#5e5e5e" stroke-width="3" fill="#fff"/><use xlink:href="#b" transform="matrix(1,0,0,1,7568,-772) translate(320.5185185185185 110.88888888888889)"/><path d="M7604 1700c-24.3 0-44 19.7-44 44v132c0 24.3 19.7 44 44 44h892c24.3 0 44-19.7 44-44v-132c0-24.3-19.7-44-44-44z" stroke="#5e5e5e" stroke-width="3" fill="#fff"/><use xlink:href="#b" transform="matrix(1,0,0,1,7568,1708) translate(320.5185185185185 110.88888888888889)"/><path d="M680-380c-5.52 0-10 4.48-10 10v1760c0 5.52 4.48 10 10 10h30c5.52 0 10-4.48 10-10V-370c0-5.52-4.48-10-10-10zM1610-380c-5.52 0-10 4.48-10 10v1760c0 5.52 4.48 10 10 10h30c5.52 0 10-4.48 10-10V-370c0-5.52-4.48-10-10-10zM5450-380c-5.52 0-10 4.48-10 10v1760c0 5.52 4.48 10 10 10h30c5.52 0 10-4.48 10-10V-370c0-5.52-4.48-10-10-10zM8090-380c-5.52 0-10 4.48-10 10v1760c0 5.52 4.48 10 10 10h30c5.52 0 10-4.48 10-10V-370c0-5.52-4.48-10-10-10z" stroke="#5e5e5e" stroke-width="3" fill="#fff"/><path d="M722.5-200H1580" stroke="#5e5e5e" stroke-width="2" fill="none"/><path d="M722.53-199h-1.03v-2h1.03z" stroke="#5e5e5e" stroke-width=".05" fill="#5e5e5e"/><path d="M1595.26-200l-14.26 4.64v-9.28z" stroke="#5e5e5e" stroke-width="2" fill="#5e5e5e"/><path d="M1384-540c-13.25 0-24 10.75-24 24v72c0 13.25 10.75 24 24 24h652c13.25 0 24-10.75 24-24v-72c0-13.25-10.75-24-24-24z" stroke="#5e5e5e" stroke-width="3" fill="#fff"/><use xlink:href="#c" transform="matrix(1,0,0,1,1368,-532) translate(-4.296296296296248 60.888888888888886)"/><path d="M2289-540c-13.25 0-24 10.75-24 24v72c0 13.25 10.75 24 24 24h432c13.25 0 24-10.75 24-24v-72c0-13.25-10.75-24-24-24z" stroke="#5e5e5e" stroke-width="3" fill="#fff"/><use xlink:href="#d" transform="matrix(1,0,0,1,2273,-532) translate(90.2716049382716 60.888888888888886)"/><path d="M2510-380c-5.52 0-10 4.48-10 10v1760c0 5.52 4.48 10 10 10h30c5.52 0 10-4.48 10-10V-370c0-5.52-4.48-10-10-10zM3104-540c-13.25 0-24 10.75-24 24v72c0 13.25 10.75 24 24 24h432c13.25 0 24-10.75 24-24v-72c0-13.25-10.75-24-24-24z" stroke="#5e5e5e" stroke-width="3" fill="#fff"/><use xlink:href="#e" transform="matrix(1,0,0,1,3088,-532) translate(175.33333333333334 60.888888888888886)"/><path d="M1652.5 96.3H2480" stroke="#5e5e5e" stroke-width="2" fill="none"/><path d="M1652.53 97.3h-1.03v-2h1.03z" stroke="#5e5e5e" stroke-width=".05" fill="#5e5e5e"/><path d="M2495.26 96.3l-14.26 4.65v-9.27z" stroke="#5e5e5e" stroke-width="2" fill="#5e5e5e"/><path d="M2552.5 102.3H3280" stroke="#5e5e5e" stroke-width="2" fill="none"/><path d="M2552.53 103.3h-1.03v-2h1.03z" stroke="#5e5e5e" stroke-width=".05" fill="#5e5e5e"/><path d="M3295.26 102.3l-14.26 4.65v-9.27z" stroke="#5e5e5e" stroke-width="2" fill="#5e5e5e"/><path d="M3310-380c-5.52 0-10 4.48-10 10v1760c0 5.52 4.48 10 10 10h30c5.52 0 10-4.48 10-10V-370c0-5.52-4.48-10-10-10z" stroke="#5e5e5e" stroke-width="3" fill="#fff"/><path d="M900-294a6 6 0 0 1 6-6h428a6 6 0 0 1 6 6v76.33a6 6 0 0 1-6 6H906a6 6 0 0 1-6-6z" stroke="#000" stroke-opacity="0" stroke-width="3" fill="#fff" fill-opacity="0"/><use xlink:href="#f" transform="matrix(1,0,0,1,905,-295) translate(30 47.89930555555556)"/><use xlink:href="#g" transform="matrix(1,0,0,1,905,-295) translate(175.679012345679 47.89930555555556)"/><use xlink:href="#h" transform="matrix(1,0,0,1,905,-295) translate(249.7530864197531 47.89930555555556)"/><use xlink:href="#i" transform="matrix(1,0,0,1,905,-295) translate(365.55555555555554 47.89930555555556)"/><a xlink:href="http://1.Asks" target="_blank" transform="matrix(1,0,0,1,905,-295)"><path class="lucid-link lucid-hotspot lucid-overlay-hotspot" fill-opacity="0" d="M30 12.34h133.33v53.33H30z"/></a><path d="M1760-26.5a6 6 0 0 1 6-6h668a6 6 0 0 1 6 6v108a6 6 0 0 1-6 6h-668a6 6 0 0 1-6-6z" stroke="#000" stroke-opacity="0" stroke-width="3" fill="#fff" fill-opacity="0"/><use xlink:href="#j" transform="matrix(1,0,0,1,1765,-27.500000000000014) translate(85.86419753086417 35.55555555555556)"/><use xlink:href="#k" transform="matrix(1,0,0,1,1765,-27.500000000000014) translate(135.24691358024688 35.55555555555556)"/><use xlink:href="#l" transform="matrix(1,0,0,1,1765,-27.500000000000014) translate(241.41975308641975 35.55555555555556)"/><use xlink:href="#g" transform="matrix(1,0,0,1,1765,-27.500000000000014) translate(297.96296296296293 35.55555555555556)"/><use xlink:href="#m" transform="matrix(1,0,0,1,1765,-27.500000000000014) translate(372.03703703703707 35.55555555555556)"/><use xlink:href="#n" transform="matrix(1,0,0,1,1765,-27.500000000000014) translate(510.0617283950618 35.55555555555556)"/><use xlink:href="#o" transform="matrix(1,0,0,1,1765,-27.500000000000014) translate(73.45679012345676 88.88888888888889)"/><use xlink:href="#p" transform="matrix(1,0,0,1,1765,-27.500000000000014) translate(280.61728395061726 88.88888888888889)"/><use xlink:href="#g" transform="matrix(1,0,0,1,1765,-27.500000000000014) translate(330 88.88888888888889)"/><use xlink:href="#q" transform="matrix(1,0,0,1,1765,-27.500000000000014) translate(404.0740740740741 88.88888888888889)"/><use xlink:href="#r" transform="matrix(1,0,0,1,1765,-27.500000000000014) translate(490.4938271604938 88.88888888888889)"/><path d="M1597.5-80H740" stroke="#5e5e5e" stroke-width="2" fill="none"/><path d="M1598.5-79h-1.03v-2h1.03z" stroke="#5e5e5e" stroke-width=".05" fill="#5e5e5e"/><path d="M724.74-80L739-84.64v9.28z" stroke="#5e5e5e" stroke-width="2" fill="#5e5e5e"/><path d="M840-174a6 6 0 0 1 6-6h708a6 6 0 0 1 6 6v56.33a6 6 0 0 1-6 6H846a6 6 0 0 1-6-6z" stroke="#000" stroke-opacity="0" stroke-width="3" fill="#fff" fill-opacity="0"/><use xlink:href="#s" transform="matrix(1,0,0,1,845,-175) translate(27.345679012345613 35.55555555555556)"/><use xlink:href="#g" transform="matrix(1,0,0,1,845,-175) translate(255.86419753086415 35.55555555555556)"/><use xlink:href="#h" transform="matrix(1,0,0,1,845,-175) translate(329.9382716049382 35.55555555555556)"/><use xlink:href="#t" transform="matrix(1,0,0,1,845,-175) translate(445.7407407407407 35.55555555555556)"/><use xlink:href="#u" transform="matrix(1,0,0,1,845,-175) translate(504.8765432098765 35.55555555555556)"/><use xlink:href="#v" transform="matrix(1,0,0,1,845,-175) translate(591.2962962962963 35.55555555555556)"/><use xlink:href="#w" transform="matrix(1,0,0,1,845,-175) translate(93.2716049382716 88.88888888888889)"/><use xlink:href="#x" transform="matrix(1,0,0,1,845,-175) translate(157.34567901234567 88.88888888888889)"/><use xlink:href="#y" transform="matrix(1,0,0,1,845,-175) translate(320.1851851851852 88.88888888888889)"/><use xlink:href="#z" transform="matrix(1,0,0,1,845,-175) translate(366.9753086419753 88.88888888888889)"/><use xlink:href="#A" transform="matrix(1,0,0,1,845,-175) translate(401.41975308641975 88.88888888888889)"/><use xlink:href="#B" transform="matrix(1,0,0,1,845,-175) translate(435.8641975308642 88.88888888888889)"/><use xlink:href="#C" transform="matrix(1,0,0,1,845,-175) translate(525.6172839506173 88.88888888888889)"/><g transform="matrix(1,0,0,1,845,-175)"><a xlink:href="http://2.Validates" target="_blank"><path class="lucid-link lucid-hotspot lucid-overlay-hotspot" fill-opacity="0" d="M27.35 0h216.17v53.33H27.35z"/></a></g><path d="M722.5 80H1580" stroke="#5e5e5e" stroke-width="2" fill="none"/><path d="M722.53 81h-1.03v-2h1.03z" stroke="#5e5e5e" stroke-width=".05" fill="#5e5e5e"/><path d="M1595.26 80L1581 84.64v-9.28z" stroke="#5e5e5e" stroke-width="2" fill="#5e5e5e"/><path d="M860-14a6 6 0 0 1 6-6h628a6 6 0 0 1 6 6v83a6 6 0 0 1-6 6H866a6 6 0 0 1-6-6z" stroke="#000" stroke-opacity="0" stroke-width="3" fill="#fff" fill-opacity="0"/><g><use xlink:href="#D" transform="matrix(1,0,0,1,865,-15) translate(2.901234567901213 51.49305555555556)"/><use xlink:href="#E" transform="matrix(1,0,0,1,865,-15) translate(52.28395061728393 51.49305555555556)"/><use xlink:href="#F" transform="matrix(1,0,0,1,865,-15) translate(91.7901234567901 51.49305555555556)"/><use xlink:href="#y" transform="matrix(1,0,0,1,865,-15) translate(195.24691358024688 51.49305555555556)"/><use xlink:href="#G" transform="matrix(1,0,0,1,865,-15) translate(242.037037037037 51.49305555555556)"/><use xlink:href="#H" transform="matrix(1,0,0,1,865,-15) translate(286.358024691358 51.49305555555556)"/><use xlink:href="#p" transform="matrix(1,0,0,1,865,-15) translate(441.91358024691357 51.49305555555556)"/><use xlink:href="#I" transform="matrix(1,0,0,1,865,-15) translate(491.2962962962963 51.49305555555556)"/></g><path d="M2610-14a6 6 0 0 1 6-6h648a6 6 0 0 1 6 6v131.33a6 6 0 0 1-6 6h-648a6 6 0 0 1-6-6z" stroke="#000" stroke-opacity="0" stroke-width="3" fill="#fff" fill-opacity="0"/><g><use xlink:href="#J" transform="matrix(1,0,0,1,2615,-15) translate(38.765432098765416 48.11805555555556)"/><use xlink:href="#K" transform="matrix(1,0,0,1,2615,-15) translate(253.45679012345676 48.11805555555556)"/><use xlink:href="#L" transform="matrix(1,0,0,1,2615,-15) translate(327.53086419753083 48.11805555555556)"/><use xlink:href="#M" transform="matrix(1,0,0,1,2615,-15) translate(443.3333333333333 48.11805555555556)"/><use xlink:href="#N" transform="matrix(1,0,0,1,2615,-15) translate(574.1975308641975 48.11805555555556)"/><use xlink:href="#O" transform="matrix(1,0,0,1,2615,-15) translate(217.6543209876543 101.4513888888889)"/></g><g transform="matrix(1,0,0,1,2615,-15)"><a xlink:href="http://5.Updates" target="_blank"><path class="lucid-link lucid-hotspot lucid-overlay-hotspot" fill-opacity="0" d="M38.77 12.56h202.35V65.9H38.77z"/></a></g><path d="M1830 146a6 6 0 0 1 6-6h528a6 6 0 0 1 6 6v88a6 6 0 0 1-6 6h-528a6 6 0 0 1-6-6z" stroke="#000" stroke-opacity="0" stroke-width="3" fill="#fff" fill-opacity="0"/><g><use xlink:href="#P" transform="matrix(1,0,0,1,1835,145) translate(34.32098765432099 35.55555555555556)"/><use xlink:href="#Q" transform="matrix(1,0,0,1,1835,145) translate(83.7037037037037 35.55555555555556)"/><use xlink:href="#R" transform="matrix(1,0,0,1,1835,145) translate(251.358024691358 35.55555555555556)"/><use xlink:href="#K" transform="matrix(1,0,0,1,1835,145) translate(285.8024691358024 35.55555555555556)"/><use xlink:href="#S" transform="matrix(1,0,0,1,1835,145) translate(359.87654320987656 35.55555555555556)"/><use xlink:href="#T" transform="matrix(1,0,0,1,1835,145) translate(115.74074074074073 88.88888888888889)"/><use xlink:href="#U" transform="matrix(1,0,0,1,1835,145) translate(206.9753086419753 88.88888888888889)"/></g><path d="M820 186a6 6 0 0 1 6-6h628a6 6 0 0 1 6 6v108a6 6 0 0 1-6 6H826a6 6 0 0 1-6-6z" stroke="#000" stroke-opacity="0" stroke-width="3" fill="#fff" fill-opacity="0"/><g><use xlink:href="#V" transform="matrix(1,0,0,1,825,185) translate(194.1358024691358 35.55555555555556)"/><use xlink:href="#Q" transform="matrix(1,0,0,1,825,185) translate(243.5185185185185 35.55555555555556)"/><use xlink:href="#W" transform="matrix(1,0,0,1,825,185) translate(411.1728395061728 35.55555555555556)"/><use xlink:href="#X" transform="matrix(1,0,0,1,825,185) translate(4.0123456790123555 88.88888888888889)"/><use xlink:href="#Y" transform="matrix(1,0,0,1,825,185) translate(445.86419753086415 88.88888888888889)"/></g><path d="M2497.5 267.05H1670" stroke="#5e5e5e" stroke-width="2" fill="none"/><path d="M2498.5 268.05h-1.03v-2h1.03z" stroke="#5e5e5e" stroke-width=".05" fill="#5e5e5e"/><path d="M1654.74 267.05l14.26-4.64v9.28z" stroke="#5e5e5e" stroke-width="2" fill="#5e5e5e"/><path d="M1597.5 313.75H740" stroke="#5e5e5e" stroke-width="2" fill="none"/><path d="M1598.5 314.75h-1.03v-2h1.03z" stroke="#5e5e5e" stroke-width=".05" fill="#5e5e5e"/><path d="M724.74 313.75l14.26-4.63v9.27z" stroke="#5e5e5e" stroke-width="2" fill="#5e5e5e"/><defs><path fill="#333" d="M232-93c-1 65-40 97-104 97C67 4 28-28 28-90v-158h33c8 89-33 224 67 224 102 0 64-133 71-224h33v155" id="Z"/><path fill="#333" d="M115-194c55 1 70 41 70 98S169 2 115 4C84 4 66-9 55-30l1 105H24l-1-265h31l2 30c10-21 28-34 59-34zm-8 174c40 0 45-34 45-75s-6-73-45-74c-42 0-51 32-51 76 0 43 10 73 51 73" id="aa"/><path fill="#333" d="M85-194c31 0 48 13 60 33l-1-100h32l1 261h-30c-2-10 0-23-3-31C134-8 116 4 85 4 32 4 16-35 15-94c0-66 23-100 70-100zm9 24c-40 0-46 34-46 75 0 40 6 74 45 74 42 0 51-32 51-76 0-42-9-74-50-73" id="ab"/><path fill="#333" d="M141-36C126-15 110 5 73 4 37 3 15-17 15-53c-1-64 63-63 125-63 3-35-9-54-41-54-24 1-41 7-42 31l-33-3c5-37 33-52 76-52 45 0 72 20 72 64v82c-1 20 7 32 28 27v20c-31 9-61-2-59-35zM48-53c0 20 12 33 32 33 41-3 63-29 60-74-43 2-92-5-92 41" id="ac"/><path fill="#333" d="M59-47c-2 24 18 29 38 22v24C64 9 27 4 27-40v-127H5v-23h24l9-43h21v43h35v23H59v120" id="ad"/><path fill="#333" d="M100-194c63 0 86 42 84 106H49c0 40 14 67 53 68 26 1 43-12 49-29l28 8c-11 28-37 45-77 45C44 4 14-33 15-96c1-61 26-98 85-98zm52 81c6-60-76-77-97-28-3 7-6 17-6 28h103" id="ae"/><path fill="#333" d="M30-248c118-7 216 8 213 122C240-48 200 0 122 0H30v-248zM63-27c89 8 146-16 146-99s-60-101-146-95v194" id="af"/><path fill="#333" d="M24-231v-30h32v30H24zM24 0v-190h32V0H24" id="ag"/><path fill="#333" d="M135-143c-3-34-86-38-87 0 15 53 115 12 119 90S17 21 10-45l28-5c4 36 97 45 98 0-10-56-113-15-118-90-4-57 82-63 122-42 12 7 21 19 24 35" id="ah"/><path fill="#333" d="M96-169c-40 0-48 33-48 73s9 75 48 75c24 0 41-14 43-38l32 2c-6 37-31 61-74 61-59 0-76-41-82-99-10-93 101-131 147-64 4 7 5 14 7 22l-32 3c-4-21-16-35-41-35" id="ai"/><path fill="#333" d="M106-169C34-169 62-67 57 0H25v-261h32l-1 103c12-21 28-36 61-36 89 0 53 116 60 194h-32v-121c2-32-8-49-39-48" id="aj"/><path fill="#333" d="M140-251c81 0 123 46 123 126C263-46 219 4 140 4 59 4 17-45 17-125s42-126 123-126zm0 227c63 0 89-41 89-101s-29-99-89-99c-61 0-89 39-89 99S79-25 140-24" id="ak"/><path fill="#333" d="M114-163C36-179 61-72 57 0H25l-1-190h30c1 12-1 29 2 39 6-27 23-49 58-41v29" id="al"/><path fill="#333" d="M33 0v-248h34V0H33" id="am"/><g id="a"><use transform="matrix(0.12345679012345678,0,0,0.12345679012345678,0,0)" xlink:href="#Z"/><use transform="matrix(0.12345679012345678,0,0,0.12345679012345678,31.975308641975307,0)" xlink:href="#aa"/><use transform="matrix(0.12345679012345678,0,0,0.12345679012345678,56.666666666666664,0)" xlink:href="#ab"/><use transform="matrix(0.12345679012345678,0,0,0.12345679012345678,81.35802469135803,0)" xlink:href="#ac"/><use transform="matrix(0.12345679012345678,0,0,0.12345679012345678,106.04938271604938,0)" xlink:href="#ad"/><use transform="matrix(0.12345679012345678,0,0,0.12345679012345678,118.39506172839506,0)" xlink:href="#ae"/><use transform="matrix(0.12345679012345678,0,0,0.12345679012345678,143.08641975308643,0)" xlink:href="#af"/><use transform="matrix(0.12345679012345678,0,0,0.12345679012345678,175.06172839506175,0)" xlink:href="#ag"/><use transform="matrix(0.12345679012345678,0,0,0.12345679012345678,184.81481481481484,0)" xlink:href="#ah"/><use transform="matrix(0.12345679012345678,0,0,0.12345679012345678,207.03703703703707,0)" xlink:href="#aa"/><use transform="matrix(0.12345679012345678,0,0,0.12345679012345678,231.72839506172843,0)" xlink:href="#ac"/><use transform="matrix(0.12345679012345678,0,0,0.12345679012345678,256.4197530864198,0)" xlink:href="#ad"/><use transform="matrix(0.12345679012345678,0,0,0.12345679012345678,268.7654320987655,0)" xlink:href="#ai"/><use transform="matrix(0.12345679012345678,0,0,0.12345679012345678,290.9876543209877,0)" xlink:href="#aj"/><use transform="matrix(0.12345679012345678,0,0,0.12345679012345678,315.67901234567904,0)" xlink:href="#ae"/><use transform="matrix(0.12345679012345678,0,0,0.12345679012345678,340.3703703703704,0)" xlink:href="#ab"/><use transform="matrix(0.12345679012345678,0,0,0.12345679012345678,365.0617283950617,0)" xlink:href="#ak"/><use transform="matrix(0.12345679012345678,0,0,0.12345679012345678,399.6296296296296,0)" xlink:href="#al"/><use transform="matrix(0.12345679012345678,0,0,0.12345679012345678,414.32098765432096,0)" xlink:href="#ab"/><use transform="matrix(0.12345679012345678,0,0,0.12345679012345678,439.0123456790123,0)" xlink:href="#ae"/><use transform="matrix(0.12345679012345678,0,0,0.12345679012345678,463.70370370370364,0)" xlink:href="#al"/><use transform="matrix(0.12345679012345678,0,0,0.12345679012345678,478.395061728395,0)" xlink:href="#ah"/><use transform="matrix(0.12345679012345678,0,0,0.12345679012345678,500.6172839506172,0)" xlink:href="#Z"/><use transform="matrix(0.12345679012345678,0,0,0.12345679012345678,532.5925925925925,0)" xlink:href="#am"/></g><g id="b"><use transform="matrix(0.12345679012345678,0,0,0.12345679012345678,0,0)" xlink:href="#Z"/><use transform="matrix(0.12345679012345678,0,0,0.12345679012345678,31.975308641975307,0)" xlink:href="#aa"/><use transform="matrix(0.12345679012345678,0,0,0.12345679012345678,56.666666666666664,0)" xlink:href="#ab"/><use transform="matrix(0.12345679012345678,0,0,0.12345679012345678,81.35802469135803,0)" xlink:href="#ac"/><use transform="matrix(0.12345679012345678,0,0,0.12345679012345678,106.04938271604938,0)" xlink:href="#ad"/><use transform="matrix(0.12345679012345678,0,0,0.12345679012345678,118.39506172839506,0)" xlink:href="#ae"/><use transform="matrix(0.12345679012345678,0,0,0.12345679012345678,143.08641975308643,0)" xlink:href="#ak"/><use transform="matrix(0.12345679012345678,0,0,0.12345679012345678,177.65432098765433,0)" xlink:href="#al"/><use transform="matrix(0.12345679012345678,0,0,0.12345679012345678,192.3456790123457,0)" xlink:href="#ab"/><use transform="matrix(0.12345679012345678,0,0,0.12345679012345678,217.03703703703707,0)" xlink:href="#ae"/><use transform="matrix(0.12345679012345678,0,0,0.12345679012345678,241.72839506172843,0)" xlink:href="#al"/><use transform="matrix(0.12345679012345678,0,0,0.12345679012345678,256.4197530864198,0)" xlink:href="#ah"/><use transform="matrix(0.12345679012345678,0,0,0.12345679012345678,278.64197530864203,0)" xlink:href="#Z"/><use transform="matrix(0.12345679012345678,0,0,0.12345679012345678,310.6172839506173,0)" xlink:href="#am"/></g><path fill="#333" d="M212-179c-10-28-35-45-73-45-59 0-87 40-87 99 0 60 29 101 89 101 43 0 62-24 78-52l27 14C228-24 195 4 139 4 59 4 22-46 18-125c-6-104 99-153 187-111 19 9 31 26 39 46" id="an"/><path fill="#333" d="M100-194c62-1 85 37 85 99 1 63-27 99-86 99S16-35 15-95c0-66 28-99 85-99zM99-20c44 1 53-31 53-75 0-43-8-75-51-75s-53 32-53 75 10 74 51 75" id="ao"/><path fill="#333" d="M117-194c89-4 53 116 60 194h-32v-121c0-31-8-49-39-48C34-167 62-67 57 0H25l-1-190h30c1 10-1 24 2 32 11-22 29-35 61-36" id="ap"/><path fill="#333" d="M24 0v-261h32V0H24" id="aq"/><g id="c"><use transform="matrix(0.12345679012345678,0,0,0.12345679012345678,0,0)" xlink:href="#Z"/><use transform="matrix(0.12345679012345678,0,0,0.12345679012345678,31.975308641975307,0)" xlink:href="#aa"/><use transform="matrix(0.12345679012345678,0,0,0.12345679012345678,56.666666666666664,0)" xlink:href="#ab"/><use transform="matrix(0.12345679012345678,0,0,0.12345679012345678,81.35802469135803,0)" xlink:href="#ac"/><use transform="matrix(0.12345679012345678,0,0,0.12345679012345678,106.04938271604938,0)" xlink:href="#ad"/><use transform="matrix(0.12345679012345678,0,0,0.12345679012345678,118.39506172839506,0)" xlink:href="#ae"/><use transform="matrix(0.12345679012345678,0,0,0.12345679012345678,143.08641975308643,0)" xlink:href="#af"/><use transform="matrix(0.12345679012345678,0,0,0.12345679012345678,175.06172839506175,0)" xlink:href="#ag"/><use transform="matrix(0.12345679012345678,0,0,0.12345679012345678,184.81481481481484,0)" xlink:href="#ah"/><use transform="matrix(0.12345679012345678,0,0,0.12345679012345678,207.03703703703707,0)" xlink:href="#aa"/><use transform="matrix(0.12345679012345678,0,0,0.12345679012345678,231.72839506172843,0)" xlink:href="#ac"/><use transform="matrix(0.12345679012345678,0,0,0.12345679012345678,256.4197530864198,0)" xlink:href="#ad"/><use transform="matrix(0.12345679012345678,0,0,0.12345679012345678,268.7654320987655,0)" xlink:href="#ai"/><use transform="matrix(0.12345679012345678,0,0,0.12345679012345678,290.9876543209877,0)" xlink:href="#aj"/><use transform="matrix(0.12345679012345678,0,0,0.12345679012345678,315.67901234567904,0)" xlink:href="#ae"/><use transform="matrix(0.12345679012345678,0,0,0.12345679012345678,340.3703703703704,0)" xlink:href="#ab"/><use transform="matrix(0.12345679012345678,0,0,0.12345679012345678,365.0617283950617,0)" xlink:href="#ak"/><use transform="matrix(0.12345679012345678,0,0,0.12345679012345678,399.6296296296296,0)" xlink:href="#al"/><use transform="matrix(0.12345679012345678,0,0,0.12345679012345678,414.32098765432096,0)" xlink:href="#ab"/><use transform="matrix(0.12345679012345678,0,0,0.12345679012345678,439.0123456790123,0)" xlink:href="#ae"/><use transform="matrix(0.12345679012345678,0,0,0.12345679012345678,463.70370370370364,0)" xlink:href="#al"/><use transform="matrix(0.12345679012345678,0,0,0.12345679012345678,478.395061728395,0)" xlink:href="#ah"/><use transform="matrix(0.12345679012345678,0,0,0.12345679012345678,500.6172839506172,0)" xlink:href="#an"/><use transform="matrix(0.12345679012345678,0,0,0.12345679012345678,532.5925925925925,0)" xlink:href="#ao"/><use transform="matrix(0.12345679012345678,0,0,0.12345679012345678,557.2839506172838,0)" xlink:href="#ap"/><use transform="matrix(0.12345679012345678,0,0,0.12345679012345678,581.9753086419752,0)" xlink:href="#ad"/><use transform="matrix(0.12345679012345678,0,0,0.12345679012345678,594.3209876543209,0)" xlink:href="#al"/><use transform="matrix(0.12345679012345678,0,0,0.12345679012345678,609.0123456790122,0)" xlink:href="#ao"/><use transform="matrix(0.12345679012345678,0,0,0.12345679012345678,633.7037037037036,0)" xlink:href="#aq"/><use transform="matrix(0.12345679012345678,0,0,0.12345679012345678,643.4567901234567,0)" xlink:href="#aq"/><use transform="matrix(0.12345679012345678,0,0,0.12345679012345678,653.2098765432098,0)" xlink:href="#ae"/><use transform="matrix(0.12345679012345678,0,0,0.12345679012345678,677.9012345679012,0)" xlink:href="#al"/></g><path fill="#333" d="M185-189c-5-48-123-54-124 2 14 75 158 14 163 119 3 78-121 87-175 55-17-10-28-26-33-46l33-7c5 56 141 63 141-1 0-78-155-14-162-118-5-82 145-84 179-34 5 7 8 16 11 25" id="ar"/><path fill="#333" d="M108 0H70L1-190h34L89-25l56-165h34" id="as"/><g id="d"><use transform="matrix(0.12345679012345678,0,0,0.12345679012345678,0,0)" xlink:href="#ak"/><use transform="matrix(0.12345679012345678,0,0,0.12345679012345678,34.5679012345679,0)" xlink:href="#al"/><use transform="matrix(0.12345679012345678,0,0,0.12345679012345678,49.25925925925925,0)" xlink:href="#ab"/><use transform="matrix(0.12345679012345678,0,0,0.12345679012345678,73.9506172839506,0)" xlink:href="#ae"/><use transform="matrix(0.12345679012345678,0,0,0.12345679012345678,98.64197530864196,0)" xlink:href="#al"/><use transform="matrix(0.12345679012345678,0,0,0.12345679012345678,113.33333333333331,0)" xlink:href="#ar"/><use transform="matrix(0.12345679012345678,0,0,0.12345679012345678,142.96296296296293,0)" xlink:href="#ae"/><use transform="matrix(0.12345679012345678,0,0,0.12345679012345678,167.6543209876543,0)" xlink:href="#al"/><use transform="matrix(0.12345679012345678,0,0,0.12345679012345678,182.34567901234567,0)" xlink:href="#as"/><use transform="matrix(0.12345679012345678,0,0,0.12345679012345678,204.5679012345679,0)" xlink:href="#ag"/><use transform="matrix(0.12345679012345678,0,0,0.12345679012345678,214.320987654321,0)" xlink:href="#ai"/><use transform="matrix(0.12345679012345678,0,0,0.12345679012345678,236.54320987654322,0)" xlink:href="#ae"/><use transform="matrix(0.12345679012345678,0,0,0.12345679012345678,261.2345679012346,0)" xlink:href="#ah"/></g><g id="e"><use transform="matrix(0.12345679012345678,0,0,0.12345679012345678,0,0)" xlink:href="#ak"/><use transform="matrix(0.12345679012345678,0,0,0.12345679012345678,34.5679012345679,0)" xlink:href="#al"/><use transform="matrix(0.12345679012345678,0,0,0.12345679012345678,49.25925925925925,0)" xlink:href="#ab"/><use transform="matrix(0.12345679012345678,0,0,0.12345679012345678,73.9506172839506,0)" xlink:href="#ae"/><use transform="matrix(0.12345679012345678,0,0,0.12345679012345678,98.64197530864196,0)" xlink:href="#al"/></g><path fill="#333" d="M27 0v-27h64v-190l-56 39v-29l58-41h29v221h61V0H27" id="at"/><path fill="#333" d="M33 0v-38h34V0H33" id="au"/><path fill="#333" d="M205 0l-28-72H64L36 0H1l101-248h38L239 0h-34zm-38-99l-47-123c-12 45-31 82-46 123h93" id="av"/><path fill="#333" d="M143 0L79-87 56-68V0H24v-261h32v163l83-92h37l-77 82L181 0h-38" id="aw"/><g id="f"><use transform="matrix(0.12345679012345678,0,0,0.12345679012345678,0,0)" xlink:href="#at"/><use transform="matrix(0.12345679012345678,0,0,0.12345679012345678,24.691358024691358,0)" xlink:href="#au"/><use transform="matrix(0.12345679012345678,0,0,0.12345679012345678,37.03703703703704,0)" xlink:href="#av"/><use transform="matrix(0.12345679012345678,0,0,0.12345679012345678,66.66666666666666,0)" xlink:href="#ah"/><use transform="matrix(0.12345679012345678,0,0,0.12345679012345678,88.88888888888889,0)" xlink:href="#aw"/><use transform="matrix(0.12345679012345678,0,0,0.12345679012345678,111.11111111111111,0)" xlink:href="#ah"/><path fill="#8080ff" d="M-2.22 3.08h137.78v3.26H-2.22z"/></g><g id="g"><use transform="matrix(0.12345679012345678,0,0,0.12345679012345678,0,0)" xlink:href="#ad"/><use transform="matrix(0.12345679012345678,0,0,0.12345679012345678,12.345679012345679,0)" xlink:href="#aj"/><use transform="matrix(0.12345679012345678,0,0,0.12345679012345678,37.03703703703704,0)" xlink:href="#ae"/></g><g id="h"><use transform="matrix(0.12345679012345678,0,0,0.12345679012345678,0,0)" xlink:href="#ao"/><use transform="matrix(0.12345679012345678,0,0,0.12345679012345678,24.691358024691358,0)" xlink:href="#al"/><use transform="matrix(0.12345679012345678,0,0,0.12345679012345678,39.382716049382715,0)" xlink:href="#ab"/><use transform="matrix(0.12345679012345678,0,0,0.12345679012345678,64.07407407407408,0)" xlink:href="#ae"/><use transform="matrix(0.12345679012345678,0,0,0.12345679012345678,88.76543209876543,0)" xlink:href="#al"/></g><g id="i"><use transform="matrix(0.12345679012345678,0,0,0.12345679012345678,0,0)" xlink:href="#ag"/><use transform="matrix(0.12345679012345678,0,0,0.12345679012345678,9.753086419753085,0)" xlink:href="#ab"/></g><path fill="#333" d="M155-56V0h-30v-56H8v-25l114-167h33v167h35v25h-35zm-30-156c-27 46-58 90-88 131h88v-131" id="ax"/><g id="j"><use transform="matrix(0.12345679012345678,0,0,0.12345679012345678,0,0)" xlink:href="#ax"/><use transform="matrix(0.12345679012345678,0,0,0.12345679012345678,24.691358024691358,0)" xlink:href="#au"/></g><path fill="#333" d="M143 4C61 4 22-44 18-125c-5-107 100-154 193-111 17 8 29 25 37 43l-32 9c-13-25-37-40-76-40-61 0-88 39-88 99 0 61 29 100 91 101 35 0 62-11 79-27v-45h-74v-28h105v86C228-13 192 4 143 4" id="ay"/><g id="k"><use transform="matrix(0.12345679012345678,0,0,0.12345679012345678,0,0)" xlink:href="#ay"/><use transform="matrix(0.12345679012345678,0,0,0.12345679012345678,34.5679012345679,0)" xlink:href="#ae"/><use transform="matrix(0.12345679012345678,0,0,0.12345679012345678,59.25925925925925,0)" xlink:href="#ad"/><use transform="matrix(0.12345679012345678,0,0,0.12345679012345678,71.60493827160494,0)" xlink:href="#ah"/></g><g id="l"><use transform="matrix(0.12345679012345678,0,0,0.12345679012345678,0,0)" xlink:href="#ac"/><use transform="matrix(0.12345679012345678,0,0,0.12345679012345678,24.691358024691358,0)" xlink:href="#aq"/><use transform="matrix(0.12345679012345678,0,0,0.12345679012345678,34.44444444444444,0)" xlink:href="#aq"/></g><g id="m"><use transform="matrix(0.12345679012345678,0,0,0.12345679012345678,0,0)" xlink:href="#ao"/><use transform="matrix(0.12345679012345678,0,0,0.12345679012345678,24.691358024691358,0)" xlink:href="#al"/><use transform="matrix(0.12345679012345678,0,0,0.12345679012345678,39.382716049382715,0)" xlink:href="#ab"/><use transform="matrix(0.12345679012345678,0,0,0.12345679012345678,64.07407407407408,0)" xlink:href="#ae"/><use transform="matrix(0.12345679012345678,0,0,0.12345679012345678,88.76543209876543,0)" xlink:href="#al"/><use transform="matrix(0.12345679012345678,0,0,0.12345679012345678,103.45679012345678,0)" xlink:href="#ah"/></g><g id="n"><use transform="matrix(0.12345679012345678,0,0,0.12345679012345678,0,0)" xlink:href="#ac"/><use transform="matrix(0.12345679012345678,0,0,0.12345679012345678,24.691358024691358,0)" xlink:href="#ap"/><use transform="matrix(0.12345679012345678,0,0,0.12345679012345678,49.382716049382715,0)" xlink:href="#ab"/></g><path fill="#333" d="M210-169c-67 3-38 105-44 169h-31v-121c0-29-5-50-35-48C34-165 62-65 56 0H25l-1-190h30c1 10-1 24 2 32 10-44 99-50 107 0 11-21 27-35 58-36 85-2 47 119 55 194h-31v-121c0-29-5-49-35-48" id="az"/><g id="o"><use transform="matrix(0.12345679012345678,0,0,0.12345679012345678,0,0)" xlink:href="#ai"/><use transform="matrix(0.12345679012345678,0,0,0.12345679012345678,22.22222222222222,0)" xlink:href="#ao"/><use transform="matrix(0.12345679012345678,0,0,0.12345679012345678,46.91358024691358,0)" xlink:href="#az"/><use transform="matrix(0.12345679012345678,0,0,0.12345679012345678,83.82716049382717,0)" xlink:href="#aa"/><use transform="matrix(0.12345679012345678,0,0,0.12345679012345678,108.51851851851852,0)" xlink:href="#ac"/><use transform="matrix(0.12345679012345678,0,0,0.12345679012345678,133.20987654320987,0)" xlink:href="#al"/><use transform="matrix(0.12345679012345678,0,0,0.12345679012345678,147.90123456790124,0)" xlink:href="#ae"/><use transform="matrix(0.12345679012345678,0,0,0.12345679012345678,172.5925925925926,0)" xlink:href="#ah"/></g><g id="p"><use transform="matrix(0.12345679012345678,0,0,0.12345679012345678,0,0)" xlink:href="#ad"/><use transform="matrix(0.12345679012345678,0,0,0.12345679012345678,12.345679012345679,0)" xlink:href="#ao"/></g><g id="q"><use transform="matrix(0.12345679012345678,0,0,0.12345679012345678,0,0)" xlink:href="#ao"/><use transform="matrix(0.12345679012345678,0,0,0.12345679012345678,24.691358024691358,0)" xlink:href="#ap"/><use transform="matrix(0.12345679012345678,0,0,0.12345679012345678,49.382716049382715,0)" xlink:href="#ae"/></g><path fill="#333" d="M177-190C167-65 218 103 67 71c-23-6-38-20-44-43l32-5c15 47 100 32 89-28v-30C133-14 115 1 83 1 29 1 15-40 15-95c0-56 16-97 71-98 29-1 48 16 59 35 1-10 0-23 2-32h30zM94-22c36 0 50-32 50-73 0-42-14-75-50-75-39 0-46 34-46 75s6 73 46 73" id="aA"/><g id="r"><use transform="matrix(0.12345679012345678,0,0,0.12345679012345678,0,0)" xlink:href="#aA"/><use transform="matrix(0.12345679012345678,0,0,0.12345679012345678,24.691358024691358,0)" xlink:href="#ag"/><use transform="matrix(0.12345679012345678,0,0,0.12345679012345678,34.44444444444444,0)" xlink:href="#as"/><use transform="matrix(0.12345679012345678,0,0,0.12345679012345678,56.666666666666664,0)" xlink:href="#ae"/><use transform="matrix(0.12345679012345678,0,0,0.12345679012345678,81.35802469135803,0)" xlink:href="#ap"/></g><path fill="#333" d="M101-251c82-7 93 87 43 132L82-64C71-53 59-42 53-27h129V0H18c2-99 128-94 128-182 0-28-16-43-45-43s-46 15-49 41l-32-3c6-41 34-60 81-64" id="aB"/><path fill="#333" d="M137 0h-34L2-248h35l83 218 83-218h36" id="aC"/><g id="s"><use transform="matrix(0.12345679012345678,0,0,0.12345679012345678,0,0)" xlink:href="#aB"/><use transform="matrix(0.12345679012345678,0,0,0.12345679012345678,24.691358024691358,0)" xlink:href="#au"/><use transform="matrix(0.12345679012345678,0,0,0.12345679012345678,37.03703703703704,0)" xlink:href="#aC"/><use transform="matrix(0.12345679012345678,0,0,0.12345679012345678,63.33333333333333,0)" xlink:href="#ac"/><use transform="matrix(0.12345679012345678,0,0,0.12345679012345678,88.02469135802468,0)" xlink:href="#aq"/><use transform="matrix(0.12345679012345678,0,0,0.12345679012345678,97.77777777777777,0)" xlink:href="#ag"/><use transform="matrix(0.12345679012345678,0,0,0.12345679012345678,107.53086419753086,0)" xlink:href="#ab"/><use transform="matrix(0.12345679012345678,0,0,0.12345679012345678,132.22222222222223,0)" xlink:href="#ac"/><use transform="matrix(0.12345679012345678,0,0,0.12345679012345678,156.9135802469136,0)" xlink:href="#ad"/><use transform="matrix(0.12345679012345678,0,0,0.12345679012345678,169.25925925925927,0)" xlink:href="#ae"/><use transform="matrix(0.12345679012345678,0,0,0.12345679012345678,193.95061728395063,0)" xlink:href="#ah"/><path fill="#8080ff" d="M-2.22 3.08H218.4v3.26H-2.22z"/></g><path fill="#333" d="M68-38c1 34 0 65-14 84H32c9-13 17-26 17-46H33v-38h35" id="aD"/><g id="t"><use transform="matrix(0.12345679012345678,0,0,0.12345679012345678,0,0)" xlink:href="#ag"/><use transform="matrix(0.12345679012345678,0,0,0.12345679012345678,9.753086419753085,0)" xlink:href="#ab"/><use transform="matrix(0.12345679012345678,0,0,0.12345679012345678,34.44444444444444,0)" xlink:href="#aD"/></g><g id="u"><use transform="matrix(0.12345679012345678,0,0,0.12345679012345678,0,0)" xlink:href="#ac"/><use transform="matrix(0.12345679012345678,0,0,0.12345679012345678,24.691358024691358,0)" xlink:href="#ap"/><use transform="matrix(0.12345679012345678,0,0,0.12345679012345678,49.382716049382715,0)" xlink:href="#ab"/></g><g id="v"><use transform="matrix(0.12345679012345678,0,0,0.12345679012345678,0,0)" xlink:href="#ac"/><use transform="matrix(0.12345679012345678,0,0,0.12345679012345678,24.691358024691358,0)" xlink:href="#ah"/><use transform="matrix(0.12345679012345678,0,0,0.12345679012345678,46.91358024691358,0)" xlink:href="#aw"/><use transform="matrix(0.12345679012345678,0,0,0.12345679012345678,69.1358024691358,0)" xlink:href="#ah"/></g><path fill="#333" d="M101-234c-31-9-42 10-38 44h38v23H63V0H32v-167H5v-23h27c-7-52 17-82 69-68v24" id="aE"/><g id="w"><use transform="matrix(0.12345679012345678,0,0,0.12345679012345678,0,0)" xlink:href="#aE"/><use transform="matrix(0.12345679012345678,0,0,0.12345679012345678,12.345679012345679,0)" xlink:href="#ao"/><use transform="matrix(0.12345679012345678,0,0,0.12345679012345678,37.03703703703704,0)" xlink:href="#al"/></g><g id="x"><use transform="matrix(0.12345679012345678,0,0,0.12345679012345678,0,0)" xlink:href="#ac"/><use transform="matrix(0.12345679012345678,0,0,0.12345679012345678,24.691358024691358,0)" xlink:href="#ap"/><use transform="matrix(0.12345679012345678,0,0,0.12345679012345678,49.382716049382715,0)" xlink:href="#ao"/><use transform="matrix(0.12345679012345678,0,0,0.12345679012345678,74.07407407407408,0)" xlink:href="#ad"/><use transform="matrix(0.12345679012345678,0,0,0.12345679012345678,86.41975308641976,0)" xlink:href="#aj"/><use transform="matrix(0.12345679012345678,0,0,0.12345679012345678,111.11111111111111,0)" xlink:href="#ae"/><use transform="matrix(0.12345679012345678,0,0,0.12345679012345678,135.80246913580248,0)" xlink:href="#al"/></g><g id="y"><use transform="matrix(0.12345679012345678,0,0,0.12345679012345678,0,0)" xlink:href="#ag"/><use transform="matrix(0.12345679012345678,0,0,0.12345679012345678,9.753086419753085,0)" xlink:href="#ab"/></g><g id="z"><use transform="matrix(0.12345679012345678,0,0,0.12345679012345678,0,0)" xlink:href="#ag"/><use transform="matrix(0.12345679012345678,0,0,0.12345679012345678,9.753086419753085,0)" xlink:href="#aE"/></g><g id="A"><use transform="matrix(0.12345679012345678,0,0,0.12345679012345678,0,0)" xlink:href="#ag"/><use transform="matrix(0.12345679012345678,0,0,0.12345679012345678,9.753086419753085,0)" xlink:href="#ad"/></g><path fill="#333" d="M47-170H22l-4-78h33" id="aF"/><g id="B"><use transform="matrix(0.12345679012345678,0,0,0.12345679012345678,0,0)" xlink:href="#ag"/><use transform="matrix(0.12345679012345678,0,0,0.12345679012345678,9.753086419753085,0)" xlink:href="#ah"/><use transform="matrix(0.12345679012345678,0,0,0.12345679012345678,31.975308641975307,0)" xlink:href="#ap"/><use transform="matrix(0.12345679012345678,0,0,0.12345679012345678,56.666666666666664,0)" xlink:href="#aF"/><use transform="matrix(0.12345679012345678,0,0,0.12345679012345678,65.06172839506172,0)" xlink:href="#ad"/></g><g id="C"><use transform="matrix(0.12345679012345678,0,0,0.12345679012345678,0,0)" xlink:href="#as"/><use transform="matrix(0.12345679012345678,0,0,0.12345679012345678,22.22222222222222,0)" xlink:href="#ac"/><use transform="matrix(0.12345679012345678,0,0,0.12345679012345678,46.91358024691358,0)" xlink:href="#aq"/><use transform="matrix(0.12345679012345678,0,0,0.12345679012345678,56.66666666666667,0)" xlink:href="#ag"/><use transform="matrix(0.12345679012345678,0,0,0.12345679012345678,66.41975308641976,0)" xlink:href="#ab"/></g><path fill="#333" d="M126-127c33 6 58 20 58 59 0 88-139 92-164 29-3-8-5-16-6-25l32-3c6 27 21 44 54 44 32 0 52-15 52-46 0-38-36-46-79-43v-28c39 1 72-4 72-42 0-27-17-43-46-43-28 0-47 15-49 41l-32-3c6-42 35-63 81-64 48-1 79 21 79 65 0 36-21 52-52 59" id="aG"/><g id="D"><use transform="matrix(0.12345679012345678,0,0,0.12345679012345678,0,0)" xlink:href="#aG"/><use transform="matrix(0.12345679012345678,0,0,0.12345679012345678,24.691358024691358,0)" xlink:href="#au"/></g><use transform="matrix(0.12345679012345678,0,0,0.12345679012345678,0,0)" xlink:href="#av" id="E"/><g id="F"><use transform="matrix(0.12345679012345678,0,0,0.12345679012345678,0,0)" xlink:href="#as"/><use transform="matrix(0.12345679012345678,0,0,0.12345679012345678,22.22222222222222,0)" xlink:href="#ac"/><use transform="matrix(0.12345679012345678,0,0,0.12345679012345678,46.91358024691358,0)" xlink:href="#aq"/><use transform="matrix(0.12345679012345678,0,0,0.12345679012345678,56.66666666666667,0)" xlink:href="#ag"/><use transform="matrix(0.12345679012345678,0,0,0.12345679012345678,66.41975308641976,0)" xlink:href="#ab"/></g><g id="G"><use transform="matrix(0.12345679012345678,0,0,0.12345679012345678,0,0)" xlink:href="#ag"/><use transform="matrix(0.12345679012345678,0,0,0.12345679012345678,9.753086419753085,0)" xlink:href="#ah"/></g><g id="H"><use transform="matrix(0.12345679012345678,0,0,0.12345679012345678,0,0)" xlink:href="#aa"/><use transform="matrix(0.12345679012345678,0,0,0.12345679012345678,24.691358024691358,0)" xlink:href="#ac"/><use transform="matrix(0.12345679012345678,0,0,0.12345679012345678,49.382716049382715,0)" xlink:href="#ah"/><use transform="matrix(0.12345679012345678,0,0,0.12345679012345678,71.60493827160494,0)" xlink:href="#ah"/><use transform="matrix(0.12345679012345678,0,0,0.12345679012345678,93.82716049382717,0)" xlink:href="#ae"/><use transform="matrix(0.12345679012345678,0,0,0.12345679012345678,118.51851851851852,0)" xlink:href="#ab"/></g><path fill="#333" d="M84 4C-5 8 30-112 23-190h32v120c0 31 7 50 39 49 72-2 45-101 50-169h31l1 190h-30c-1-10 1-25-2-33-11 22-28 36-60 37" id="aH"/><g id="I"><use transform="matrix(0.12345679012345678,0,0,0.12345679012345678,0,0)" xlink:href="#aH"/><use transform="matrix(0.12345679012345678,0,0,0.12345679012345678,24.691358024691358,0)" xlink:href="#aa"/><use transform="matrix(0.12345679012345678,0,0,0.12345679012345678,49.382716049382715,0)" xlink:href="#ab"/><use transform="matrix(0.12345679012345678,0,0,0.12345679012345678,74.07407407407408,0)" xlink:href="#ac"/><use transform="matrix(0.12345679012345678,0,0,0.12345679012345678,98.76543209876543,0)" xlink:href="#ad"/><use transform="matrix(0.12345679012345678,0,0,0.12345679012345678,111.11111111111111,0)" xlink:href="#ae"/></g><path fill="#333" d="M54-142c48-35 137-8 131 61C196 18 31 33 14-55l32-4c7 23 22 37 52 37 35-1 51-22 54-58 4-55-73-65-99-34H22l8-134h141v27H59" id="aI"/><g id="J"><use transform="matrix(0.12345679012345678,0,0,0.12345679012345678,0,0)" xlink:href="#aI"/><use transform="matrix(0.12345679012345678,0,0,0.12345679012345678,24.691358024691358,0)" xlink:href="#au"/><use transform="matrix(0.12345679012345678,0,0,0.12345679012345678,37.03703703703704,0)" xlink:href="#Z"/><use transform="matrix(0.12345679012345678,0,0,0.12345679012345678,69.01234567901234,0)" xlink:href="#aa"/><use transform="matrix(0.12345679012345678,0,0,0.12345679012345678,93.7037037037037,0)" xlink:href="#ab"/><use transform="matrix(0.12345679012345678,0,0,0.12345679012345678,118.39506172839505,0)" xlink:href="#ac"/><use transform="matrix(0.12345679012345678,0,0,0.12345679012345678,143.0864197530864,0)" xlink:href="#ad"/><use transform="matrix(0.12345679012345678,0,0,0.12345679012345678,155.43209876543207,0)" xlink:href="#ae"/><use transform="matrix(0.12345679012345678,0,0,0.12345679012345678,180.12345679012344,0)" xlink:href="#ah"/><path fill="#8080ff" d="M-2.22 3.08h206.8v3.26H-2.23z"/></g><g id="K"><use transform="matrix(0.12345679012345678,0,0,0.12345679012345678,0,0)" xlink:href="#ad"/><use transform="matrix(0.12345679012345678,0,0,0.12345679012345678,12.345679012345679,0)" xlink:href="#aj"/><use transform="matrix(0.12345679012345678,0,0,0.12345679012345678,37.03703703703704,0)" xlink:href="#ae"/></g><g id="L"><use transform="matrix(0.12345679012345678,0,0,0.12345679012345678,0,0)" xlink:href="#ao"/><use transform="matrix(0.12345679012345678,0,0,0.12345679012345678,24.691358024691358,0)" xlink:href="#al"/><use transform="matrix(0.12345679012345678,0,0,0.12345679012345678,39.382716049382715,0)" xlink:href="#ab"/><use transform="matrix(0.12345679012345678,0,0,0.12345679012345678,64.07407407407408,0)" xlink:href="#ae"/><use transform="matrix(0.12345679012345678,0,0,0.12345679012345678,88.76543209876543,0)" xlink:href="#al"/></g><g id="M"><use transform="matrix(0.12345679012345678,0,0,0.12345679012345678,0,0)" xlink:href="#ah"/><use transform="matrix(0.12345679012345678,0,0,0.12345679012345678,22.22222222222222,0)" xlink:href="#ad"/><use transform="matrix(0.12345679012345678,0,0,0.12345679012345678,34.5679012345679,0)" xlink:href="#ac"/><use transform="matrix(0.12345679012345678,0,0,0.12345679012345678,59.25925925925925,0)" xlink:href="#ad"/><use transform="matrix(0.12345679012345678,0,0,0.12345679012345678,71.60493827160494,0)" xlink:href="#aH"/><use transform="matrix(0.12345679012345678,0,0,0.12345679012345678,96.29629629629629,0)" xlink:href="#ah"/></g><g id="N"><use transform="matrix(0.12345679012345678,0,0,0.12345679012345678,0,0)" xlink:href="#ad"/><use transform="matrix(0.12345679012345678,0,0,0.12345679012345678,12.345679012345679,0)" xlink:href="#ao"/></g><g id="O"><use transform="matrix(0.12345679012345678,0,0,0.12345679012345678,0,0)" xlink:href="#ab"/><use transform="matrix(0.12345679012345678,0,0,0.12345679012345678,24.691358024691358,0)" xlink:href="#ag"/><use transform="matrix(0.12345679012345678,0,0,0.12345679012345678,34.44444444444444,0)" xlink:href="#ah"/><use transform="matrix(0.12345679012345678,0,0,0.12345679012345678,56.666666666666664,0)" xlink:href="#aa"/><use transform="matrix(0.12345679012345678,0,0,0.12345679012345678,81.35802469135803,0)" xlink:href="#ac"/><use transform="matrix(0.12345679012345678,0,0,0.12345679012345678,106.04938271604938,0)" xlink:href="#ad"/><use transform="matrix(0.12345679012345678,0,0,0.12345679012345678,118.39506172839506,0)" xlink:href="#ai"/><use transform="matrix(0.12345679012345678,0,0,0.12345679012345678,140.6172839506173,0)" xlink:href="#aj"/><use transform="matrix(0.12345679012345678,0,0,0.12345679012345678,165.30864197530866,0)" xlink:href="#ae"/><use transform="matrix(0.12345679012345678,0,0,0.12345679012345678,190.00000000000003,0)" xlink:href="#ab"/></g><path fill="#333" d="M110-160c48 1 74 30 74 79 0 53-28 85-80 85-65 0-83-55-86-122-5-90 50-162 133-122 14 7 22 21 27 39l-31 6c-5-40-67-38-82-6-9 19-15 44-15 74 11-20 30-34 60-33zm-7 138c34 0 49-23 49-58s-16-56-50-56c-29 0-50 16-49 49 1 36 15 65 50 65" id="aJ"/><g id="P"><use transform="matrix(0.12345679012345678,0,0,0.12345679012345678,0,0)" xlink:href="#aJ"/><use transform="matrix(0.12345679012345678,0,0,0.12345679012345678,24.691358024691358,0)" xlink:href="#au"/></g><path fill="#333" d="M233-177c-1 41-23 64-60 70L243 0h-38l-65-103H63V0H30v-248c88 3 205-21 203 71zM63-129c60-2 137 13 137-47 0-61-80-42-137-45v92" id="aK"/><g id="Q"><use transform="matrix(0.12345679012345678,0,0,0.12345679012345678,0,0)" xlink:href="#aK"/><use transform="matrix(0.12345679012345678,0,0,0.12345679012345678,31.975308641975307,0)" xlink:href="#ae"/><use transform="matrix(0.12345679012345678,0,0,0.12345679012345678,56.666666666666664,0)" xlink:href="#ad"/><use transform="matrix(0.12345679012345678,0,0,0.12345679012345678,69.01234567901234,0)" xlink:href="#aH"/><use transform="matrix(0.12345679012345678,0,0,0.12345679012345678,93.7037037037037,0)" xlink:href="#al"/><use transform="matrix(0.12345679012345678,0,0,0.12345679012345678,108.39506172839505,0)" xlink:href="#ap"/><use transform="matrix(0.12345679012345678,0,0,0.12345679012345678,133.0864197530864,0)" xlink:href="#ah"/></g><g id="R"><use transform="matrix(0.12345679012345678,0,0,0.12345679012345678,0,0)" xlink:href="#ag"/><use transform="matrix(0.12345679012345678,0,0,0.12345679012345678,9.753086419753085,0)" xlink:href="#aE"/></g><g id="S"><use transform="matrix(0.12345679012345678,0,0,0.12345679012345678,0,0)" xlink:href="#aH"/><use transform="matrix(0.12345679012345678,0,0,0.12345679012345678,24.691358024691358,0)" xlink:href="#aa"/><use transform="matrix(0.12345679012345678,0,0,0.12345679012345678,49.382716049382715,0)" xlink:href="#ab"/><use transform="matrix(0.12345679012345678,0,0,0.12345679012345678,74.07407407407408,0)" xlink:href="#ac"/><use transform="matrix(0.12345679012345678,0,0,0.12345679012345678,98.76543209876543,0)" xlink:href="#ad"/><use transform="matrix(0.12345679012345678,0,0,0.12345679012345678,111.11111111111111,0)" xlink:href="#ae"/></g><path fill="#333" d="M206 0h-36l-40-164L89 0H53L-1-190h32L70-26l43-164h34l41 164 42-164h31" id="aL"/><g id="T"><use transform="matrix(0.12345679012345678,0,0,0.12345679012345678,0,0)" xlink:href="#aL"/><use transform="matrix(0.12345679012345678,0,0,0.12345679012345678,31.975308641975307,0)" xlink:href="#ac"/><use transform="matrix(0.12345679012345678,0,0,0.12345679012345678,56.666666666666664,0)" xlink:href="#ah"/></g><g id="U"><use transform="matrix(0.12345679012345678,0,0,0.12345679012345678,0,0)" xlink:href="#ah"/><use transform="matrix(0.12345679012345678,0,0,0.12345679012345678,22.22222222222222,0)" xlink:href="#aH"/><use transform="matrix(0.12345679012345678,0,0,0.12345679012345678,46.91358024691358,0)" xlink:href="#ai"/><use transform="matrix(0.12345679012345678,0,0,0.12345679012345678,69.1358024691358,0)" xlink:href="#ai"/><use transform="matrix(0.12345679012345678,0,0,0.12345679012345678,91.35802469135803,0)" xlink:href="#ae"/><use transform="matrix(0.12345679012345678,0,0,0.12345679012345678,116.04938271604938,0)" xlink:href="#ah"/><use transform="matrix(0.12345679012345678,0,0,0.12345679012345678,138.2716049382716,0)" xlink:href="#ah"/><use transform="matrix(0.12345679012345678,0,0,0.12345679012345678,160.49382716049382,0)" xlink:href="#aE"/><use transform="matrix(0.12345679012345678,0,0,0.12345679012345678,172.8395061728395,0)" xlink:href="#aH"/><use transform="matrix(0.12345679012345678,0,0,0.12345679012345678,197.53086419753086,0)" xlink:href="#aq"/></g><path fill="#333" d="M64 0c3-98 48-159 88-221H18v-27h164v26C143-157 98-101 97 0H64" id="aM"/><g id="V"><use transform="matrix(0.12345679012345678,0,0,0.12345679012345678,0,0)" xlink:href="#aM"/><use transform="matrix(0.12345679012345678,0,0,0.12345679012345678,24.691358024691358,0)" xlink:href="#au"/></g><use transform="matrix(0.12345679012345678,0,0,0.12345679012345678,0,0)" xlink:href="#ac" id="W"/><path fill="#333" d="M0 4l72-265h28L28 4H0" id="aN"/><g id="X"><use transform="matrix(0.12345679012345678,0,0,0.12345679012345678,0,0)" xlink:href="#ah"/><use transform="matrix(0.12345679012345678,0,0,0.12345679012345678,22.22222222222222,0)" xlink:href="#aH"/><use transform="matrix(0.12345679012345678,0,0,0.12345679012345678,46.91358024691358,0)" xlink:href="#ai"/><use transform="matrix(0.12345679012345678,0,0,0.12345679012345678,69.1358024691358,0)" xlink:href="#ai"/><use transform="matrix(0.12345679012345678,0,0,0.12345679012345678,91.35802469135803,0)" xlink:href="#ae"/><use transform="matrix(0.12345679012345678,0,0,0.12345679012345678,116.04938271604938,0)" xlink:href="#ah"/><use transform="matrix(0.12345679012345678,0,0,0.12345679012345678,138.2716049382716,0)" xlink:href="#ah"/><use transform="matrix(0.12345679012345678,0,0,0.12345679012345678,160.49382716049382,0)" xlink:href="#aN"/><use transform="matrix(0.12345679012345678,0,0,0.12345679012345678,172.8395061728395,0)" xlink:href="#aH"/><use transform="matrix(0.12345679012345678,0,0,0.12345679012345678,197.53086419753086,0)" xlink:href="#ap"/><use transform="matrix(0.12345679012345678,0,0,0.12345679012345678,222.22222222222223,0)" xlink:href="#ah"/><use transform="matrix(0.12345679012345678,0,0,0.12345679012345678,244.44444444444446,0)" xlink:href="#aH"/><use transform="matrix(0.12345679012345678,0,0,0.12345679012345678,269.1358024691358,0)" xlink:href="#ai"/><use transform="matrix(0.12345679012345678,0,0,0.12345679012345678,291.358024691358,0)" xlink:href="#ai"/><use transform="matrix(0.12345679012345678,0,0,0.12345679012345678,313.58024691358025,0)" xlink:href="#ae"/><use transform="matrix(0.12345679012345678,0,0,0.12345679012345678,338.2716049382716,0)" xlink:href="#ah"/><use transform="matrix(0.12345679012345678,0,0,0.12345679012345678,360.4938271604938,0)" xlink:href="#ah"/><use transform="matrix(0.12345679012345678,0,0,0.12345679012345678,382.71604938271605,0)" xlink:href="#aE"/><use transform="matrix(0.12345679012345678,0,0,0.12345679012345678,395.0617283950617,0)" xlink:href="#aH"/><use transform="matrix(0.12345679012345678,0,0,0.12345679012345678,419.75308641975306,0)" xlink:href="#aq"/></g><g id="Y"><use transform="matrix(0.12345679012345678,0,0,0.12345679012345678,0,0)" xlink:href="#az"/><use transform="matrix(0.12345679012345678,0,0,0.12345679012345678,36.913580246913575,0)" xlink:href="#ae"/><use transform="matrix(0.12345679012345678,0,0,0.12345679012345678,61.60493827160494,0)" xlink:href="#ah"/><use transform="matrix(0.12345679012345678,0,0,0.12345679012345678,83.82716049382717,0)" xlink:href="#ah"/><use transform="matrix(0.12345679012345678,0,0,0.12345679012345678,106.0493827160494,0)" xlink:href="#ac"/><use transform="matrix(0.12345679012345678,0,0,0.12345679012345678,130.74074074074076,0)" xlink:href="#aA"/><use transform="matrix(0.12345679012345678,0,0,0.12345679012345678,155.43209876543213,0)" xlink:href="#ae"/></g></defs></g></svg>